<?xml version="1.0" encoding="iso-8859-1"?>
<!-- Generator: Adobe Illustrator 16.0.2, SVG Export Plug-In . SVG Version: 6.00 Build 0)  -->
<!DOCTYPE svg PUBLIC "-//W3C//DTD SVG 1.1//EN" "http://www.w3.org/Graphics/SVG/1.1/DTD/svg11.dtd">
<svg version="1.1" id="co_x5F_player" xmlns="http://www.w3.org/2000/svg" xmlns:xlink="http://www.w3.org/1999/xlink" x="0px"
	 y="0px" viewBox="0 0 40 40" style="enable-background:new 0 0 40 40;" xml:space="preserve">
<path fill="#0D47A1" d="M29.171,21.805c0-1.072,0.869-1.94,1.94-1.94c1.071,0,1.94,0.868,1.94,1.94v0.001h-0.008c0,3.746-1.515,7.134-3.962,9.582
	c-2.447,2.446-5.833,3.96-9.578,3.961v0.007H19.5h-0.002V35.35c-3.746,0-7.134-1.515-9.581-3.963
	c-2.446-2.447-3.961-5.833-3.961-9.578H5.947v-0.003v-0.001h0.008c0-3.746,1.515-7.134,3.963-9.581
	c2.338-2.339,5.536-3.824,9.084-3.952l-1.978-1.978c-0.703-0.702-0.703-1.848,0-2.551l0.182-0.182c0.703-0.702,1.849-0.702,2.551,0
	l6.923,6.924l-6.923,6.924c-0.703,0.702-1.849,0.702-2.551,0l-0.182-0.183c-0.702-0.702-0.702-1.848,0-2.551l2.541-2.541
	L19.5,12.134h-0.003v-0.008c-2.664,0.001-5.081,1.086-6.835,2.84c-1.755,1.755-2.841,4.174-2.841,6.838h0.008v0.001v0.003H9.82
	c0.001,2.664,1.086,5.081,2.84,6.835c1.754,1.755,4.173,2.841,6.837,2.841v-0.008H19.5h0.003v0.008
	c2.663-0.001,5.08-1.086,6.834-2.84c1.754-1.755,2.841-4.173,2.841-6.838h-0.008V21.805z"/>
</svg>
