<?xml version="1.0" encoding="iso-8859-1"?>
<!-- Generator: Adobe Illustrator 16.0.2, SVG Export Plug-In . SVG Version: 6.00 Build 0)  -->
<!DOCTYPE svg PUBLIC "-//W3C//DTD SVG 1.1//EN" "http://www.w3.org/Graphics/SVG/1.1/DTD/svg11.dtd">
<svg version="1.1" id="co_x5F_culture" xmlns="http://www.w3.org/2000/svg" xmlns:xlink="http://www.w3.org/1999/xlink" x="0px"
	 y="0px" viewBox="0 0 40 40" style="enable-background:new 0 0 40 40;" xml:space="preserve">
<path fill="#0D47A1" style="fill-rule:evenodd;clip-rule:evenodd;" d="M14.491,2.009h8.918c0.848,0,1.54,0.691,1.54,1.539v0.259
	c0,0.608-0.33,1.13-0.881,1.391c-1.325,0.629-1.822,2.749-2.008,5.226c0.454-0.379,0.938-0.714,1.441-1
	c5.857-3.331,9.705,0.698,10.604,2.686c1.589,3.504-0.532,7.384-0.048,6.217c-0.847,2.035-2.383,3.694-4.188,4.737
	c-0.028,0.28-0.065,0.556-0.109,0.827c-0.042,0.261-0.303,0.426-0.556,0.354c-0.365-0.105-0.775-0.018-1.067,0.263l-0.827,0.796
	c-0.264,0.252-0.68,0.244-0.933-0.02l-0.685-0.713c-0.212-0.222-0.475-0.335-0.782-0.338c-0.307-0.004-0.571,0.104-0.789,0.321
	l-0.738,0.739c-0.257,0.257-0.677,0.257-0.934,0l-0.755-0.755c-0.429-0.429-1.128-0.429-1.556,0l-0.755,0.755
	c-0.257,0.257-0.676,0.257-0.934,0l-0.77-0.77c-0.423-0.424-1.108-0.431-1.54-0.017l-0.827,0.796
	c-0.264,0.252-0.68,0.244-0.933-0.02l-0.684-0.713c-0.212-0.222-0.475-0.335-0.782-0.338c-0.307-0.004-0.572,0.104-0.789,0.321
	l-0.739,0.739c-0.257,0.257-0.676,0.257-0.933,0l-0.755-0.755c-0.278-0.278-0.67-0.376-1.027-0.293
	c-0.249,0.058-0.492-0.107-0.534-0.358c-0.062-0.387-0.11-0.779-0.141-1.182c-1.693-1.029-3.127-2.615-3.93-4.545
	c0.476,1.145-1.608-2.664-0.047-6.112c0.887-1.959,4.672-5.918,10.429-2.646c0.484,0.275,0.949,0.596,1.386,0.956
	c-0.189-2.447-0.689-4.537-2.003-5.16c-0.55-0.261-0.88-0.782-0.88-1.391V3.548C12.952,2.7,13.644,2.009,14.491,2.009L14.491,2.009z
	 M29.151,26.328c-0.288,0.854-0.643,1.659-1.035,2.419l-0.805,0.773c-0.263,0.253-0.681,0.243-0.933-0.02l-0.685-0.713
	c-0.426-0.443-1.136-0.452-1.571-0.016l-0.738,0.738c-0.257,0.258-0.677,0.258-0.934,0l-0.755-0.755
	c-0.429-0.429-1.128-0.429-1.556,0l-0.755,0.755c-0.257,0.258-0.676,0.258-0.934,0l-0.77-0.77c-0.423-0.424-1.108-0.43-1.54-0.016
	l-0.827,0.795c-0.263,0.253-0.681,0.243-0.933-0.02l-0.684-0.713c-0.426-0.443-1.136-0.452-1.571-0.016l-0.739,0.738
	c-0.257,0.258-0.676,0.258-0.933,0l-0.565-0.564c-0.436-0.818-0.827-1.691-1.142-2.621c-0.05-0.149,0.068-0.303,0.225-0.289
	c0.151,0.011,0.3,0.074,0.415,0.189l0.756,0.755c0.427,0.429,1.128,0.428,1.555,0.001l0.762-0.762
	c0.254-0.253,0.671-0.256,0.928-0.004l0.788,0.771c0.432,0.425,1.133,0.416,1.556-0.016l0.721-0.736
	c0.257-0.262,0.678-0.266,0.938-0.005l0.75,0.75c0.427,0.428,1.128,0.427,1.555,0l0.755-0.755c0.255-0.256,0.677-0.257,0.933,0
	l0.756,0.755c0.427,0.429,1.128,0.428,1.555,0.001l0.762-0.762c0.254-0.253,0.672-0.256,0.929-0.004l0.787,0.771
	c0.433,0.425,1.134,0.416,1.557-0.016l0.72-0.736c0.127-0.129,0.285-0.197,0.469-0.198c0.012,0,0.023,0,0.035,0.001
	C29.1,26.045,29.199,26.188,29.151,26.328L29.151,26.328z M26.339,31.612c-1,1.389-2.025,2.713-2.813,3.66
	c-0.39,0.469-0.913,0.714-1.522,0.714l-6.105,0.001c-0.609,0-1.134-0.246-1.523-0.715c-0.791-0.952-1.822-2.281-2.825-3.678
	c-0.15-0.21,0.219-0.465,0.148-0.395l0.762-0.761c0.254-0.254,0.671-0.256,0.928-0.005l0.788,0.772
	c0.432,0.424,1.133,0.415,1.556-0.017l0.721-0.736c0.257-0.262,0.678-0.265,0.938-0.005l0.75,0.751c0.427,0.427,1.128,0.427,1.555,0
	l0.755-0.756c0.255-0.255,0.677-0.256,0.933,0l0.756,0.756c0.427,0.428,1.128,0.427,1.555,0l0.762-0.761
	c0.254-0.254,0.672-0.256,0.929-0.005l0.787,0.772C26.111,31.147,26.492,31.397,26.339,31.612L26.339,31.612z M23.21,14.369
	c3.026,0.587,5.363,1.943,6.296,4.502c0.526-0.547,0.962-1.193,1.262-1.913c-0.22,0.529,0.912-1.567,0.09-3.385
	c-0.713-1.577-2.957-2.558-5.598-1.055C24.468,12.969,23.756,13.602,23.21,14.369L23.21,14.369z M8.511,18.575
	c1.006-2.379,3.293-3.654,6.219-4.214c-0.537-0.774-1.247-1.413-2.038-1.864c-3.469-1.973-5.168,0.451-5.423,1.014
	c-0.797,1.759,0.301,3.792,0.089,3.282C7.635,17.458,8.032,18.061,8.511,18.575z"/>
</svg>
