<?xml version="1.0" encoding="iso-8859-1"?>
<!-- Generator: Adobe Illustrator 16.0.2, SVG Export Plug-In . SVG Version: 6.00 Build 0)  -->
<!DOCTYPE svg PUBLIC "-//W3C//DTD SVG 1.1//EN" "http://www.w3.org/Graphics/SVG/1.1/DTD/svg11.dtd">
<svg version="1.1" id="co_x5F_education_x5F_1_x5C_2"
	 xmlns="http://www.w3.org/2000/svg" xmlns:xlink="http://www.w3.org/1999/xlink" x="0px" y="0px"
	 viewBox="0 0 40 40" style="enable-background:new 0 0 40 40;" xml:space="preserve">
<path fill="#0D47A1" style="fill-rule:evenodd;clip-rule:evenodd;" d="M5.97,10.003h23.255c1.172,0,2.18,0.453,2.959,1.329l4.479,5.038
	c1.34,1.509,1.34,3.754,0,5.262l-4.479,5.038c-0.779,0.876-1.787,1.329-2.959,1.329H5.97c-2.182,0-3.96-1.779-3.96-3.959V13.963
	C2.01,11.781,3.788,10.003,5.97,10.003L5.97,10.003z M8.857,15.768c-0.032-0.088-0.112-0.144-0.206-0.144s-0.174,0.056-0.206,0.144
	l-0.747,2.011L5.592,17.86c-0.094,0.003-0.171,0.062-0.2,0.15c-0.029,0.088-0.003,0.182,0.07,0.24l1.647,1.34l-0.556,1.998
	c-0.025,0.09,0.007,0.18,0.081,0.235s0.171,0.06,0.248,0.01l1.769-1.123l1.768,1.123c0.078,0.05,0.174,0.046,0.249-0.009
	c0.075-0.056,0.105-0.146,0.081-0.236l-0.556-1.998l1.647-1.34c0.073-0.059,0.1-0.152,0.07-0.24c-0.029-0.089-0.106-0.147-0.2-0.15
	l-2.106-0.082L8.857,15.768L8.857,15.768z M33.502,17.501c-0.828,0-1.5,0.672-1.5,1.5s0.672,1.5,1.5,1.5s1.5-0.672,1.5-1.5
	S34.33,17.501,33.502,17.501L33.502,17.501z M25.566,15.768c-0.031-0.088-0.113-0.144-0.205-0.144c-0.094,0-0.174,0.056-0.207,0.144
	l-0.746,2.011l-2.107,0.082c-0.094,0.003-0.17,0.062-0.199,0.15c-0.029,0.088-0.004,0.182,0.07,0.24l1.646,1.34l-0.555,1.998
	c-0.025,0.09,0.006,0.18,0.08,0.235s0.172,0.06,0.25,0.01l1.768-1.123l1.768,1.123c0.078,0.05,0.174,0.046,0.248-0.009
	c0.076-0.056,0.107-0.146,0.082-0.236l-0.557-1.998l1.648-1.34c0.072-0.059,0.1-0.152,0.07-0.24
	c-0.029-0.089-0.107-0.147-0.199-0.15l-2.107-0.082L25.566,15.768L25.566,15.768z M17.213,15.768
	c-0.033-0.088-0.112-0.144-0.207-0.144c-0.094,0-0.173,0.056-0.206,0.144l-0.747,2.011l-2.105,0.082
	c-0.095,0.003-0.172,0.062-0.201,0.15c-0.029,0.088-0.002,0.182,0.07,0.24l1.647,1.34l-0.556,1.998
	c-0.024,0.09,0.007,0.18,0.081,0.235s0.171,0.06,0.249,0.01l1.768-1.123l1.768,1.123c0.078,0.05,0.174,0.046,0.248-0.009
	c0.076-0.056,0.107-0.146,0.082-0.236l-0.554-1.998l1.646-1.34c0.072-0.059,0.1-0.152,0.07-0.24
	c-0.029-0.089-0.107-0.147-0.199-0.15l-2.106-0.082L17.213,15.768z"/>
</svg>
