<?xml version="1.0" encoding="iso-8859-1"?>
<!-- Generator: Adobe Illustrator 16.0.2, SVG Export Plug-In . SVG Version: 6.00 Build 0)  -->
<!DOCTYPE svg PUBLIC "-//W3C//DTD SVG 1.1//EN" "http://www.w3.org/Graphics/SVG/1.1/DTD/svg11.dtd">
<svg version="1.1" id="co_x5F_symbols" xmlns="http://www.w3.org/2000/svg" xmlns:xlink="http://www.w3.org/1999/xlink" x="0px"
	 y="0px" viewBox="0 0 40 40" style="enable-background:new 0 0 40 40;" xml:space="preserve">
<path fill="#0D47A1" style="fill-rule:evenodd;clip-rule:evenodd;" d="M25.856,6.479l10.136,18.36c1.424,2.645,1.328,5.625-0.264,8.173
	l-0.102,0.163c-1.531,2.449-4.013,3.826-6.902,3.826H11.252c-2.888,0-5.371-1.377-6.902-3.826l-0.102-0.163
	c-1.592-2.548-1.688-5.528-0.265-8.172L14.121,6.479c1.181-2.194,3.318-3.471,5.81-3.471h0.115
	C22.538,3.009,24.675,4.285,25.856,6.479L25.856,6.479z M19.958,10.068c-1.626,0-2.953,1.326-2.953,2.953v6.024
	c0,1.625,1.33,2.952,2.953,2.952h0.059c1.624,0,2.953-1.329,2.953-2.952v-6.024c0-1.625-1.327-2.953-2.953-2.953H19.958
	L19.958,10.068z M19.958,24.981c-1.626,0-2.958,1.326-2.953,2.952v0.06c0.006,1.627,1.33,2.954,2.953,2.954h0.059
	c1.624,0,2.953-1.33,2.953-2.954v-0.06c0-1.623-1.327-2.952-2.953-2.952H19.958z"/>
</svg>
