<?xml version="1.0" encoding="iso-8859-1"?>
<!-- Generator: Adobe Illustrator 17.1.0, SVG Export Plug-In . SVG Version: 6.00 Build 0)  -->
<!DOCTYPE svg PUBLIC "-//W3C//DTD SVG 1.1//EN" "http://www.w3.org/Graphics/SVG/1.1/DTD/svg11.dtd">
<svg version="1.1" xmlns="http://www.w3.org/2000/svg" xmlns:xlink="http://www.w3.org/1999/xlink" x="0px" y="0px"
	 viewBox="0 0 40 40" style="enable-background:new 0 0 40 40;" xml:space="preserve">
<g id="co_x5F_holiday">
	<g>
		<path fill="#0D47A1" d="M23.063,13.805c-0.538-0.125-1.142-0.216-1.735-0.202c-0.015,2.493,0.323,3.523,2.432,5.167
			c0.525,0.409,0.648,1.153,0.264,1.697l-0.014,0.021c-0.406,0.575-1.22,0.695-1.774,0.26c-2.809-2.208-3.409-3.891-3.406-7.133
			c-0.646-0.05-1.322,0.047-1.919,0.188c-0.552,0.131-1.066,0.378-1.513,0.727c-4.854,3.789-9.726,8.261-9.726,13.876
			c0,7.458,6.415,9.602,14.328,9.602c7.913,0,14.328-2.144,14.328-9.602c0-5.608-4.86-10.076-9.708-13.862
			C24.161,14.185,23.631,13.937,23.063,13.805z"/>
		<path fill="#0D47A1" d="M14.778,8.636c0.837,0.834,1.517,1.626,1.96,2.457c0.16,0.3,0.506,0.455,0.841,0.402c0.802-0.125,1.704-0.225,2.552-0.225
			c0.764,0,1.555,0.084,2.268,0.195c0.341,0.053,0.691-0.108,0.845-0.416c0.43-0.859,1.1-1.67,1.978-2.414
			c0.799-0.678,1.397-1.553,1.622-2.21c0.528-1.54-0.326-2.475-1.907-2.088c-0.906,0.221-1.848,0.834-2.592,1.602
			c0.121-1.124-0.096-2.316-0.661-3.183c-0.892-1.369-2.483-1.364-3.372,0.007c-0.569,0.877-0.784,2.086-0.654,3.219
			c-0.75-0.788-1.711-1.419-2.634-1.645c-1.581-0.386-2.435,0.549-1.907,2.088C13.344,7.085,14.02,7.88,14.778,8.636z"/>
	</g>
</g>
<g id="GRID" style="display:none;">
	<g style="display:inline;">
		<rect x="-40" y="-40" style="fill-rule:evenodd;clip-rule:evenodd;fill:#BBBDBF;" width="40.001" height="40"/>
		<rect y="-40" style="fill-rule:evenodd;clip-rule:evenodd;fill:#BBBDBF;" width="40" height="40"/>
		<rect x="40" y="-40" style="fill-rule:evenodd;clip-rule:evenodd;fill:#BBBDBF;" width="40" height="40"/>
		<rect x="-40" y="0.001" style="fill-rule:evenodd;clip-rule:evenodd;fill:#BBBDBF;" width="40.001" height="40"/>
		<rect x="-40" y="40" style="fill-rule:evenodd;clip-rule:evenodd;fill:#BBBDBF;" width="40.001" height="40"/>
		<rect y="0.001" style="fill-rule:evenodd;clip-rule:evenodd;fill:#BBBDBF;" width="40" height="40"/>
		<rect y="40" style="fill-rule:evenodd;clip-rule:evenodd;fill:#BBBDBF;" width="40" height="40"/>
		<rect x="40" y="0.001" style="fill-rule:evenodd;clip-rule:evenodd;fill:#BBBDBF;" width="40" height="40"/>
		<rect x="40" y="40" style="fill-rule:evenodd;clip-rule:evenodd;fill:#BBBDBF;" width="40" height="40"/>
	</g>
</g>
</svg>
