<?xml version="1.0" encoding="iso-8859-1"?>
<!-- Generator: Adobe Illustrator 16.0.2, SVG Export Plug-In . SVG Version: 6.00 Build 0)  -->
<!DOCTYPE svg PUBLIC "-//W3C//DTD SVG 1.1//EN" "http://www.w3.org/Graphics/SVG/1.1/DTD/svg11.dtd">
<svg version="1.1" id="co_x5F_basic" xmlns="http://www.w3.org/2000/svg" xmlns:xlink="http://www.w3.org/1999/xlink" x="0px"
	 y="0px" viewBox="0 0 40 40" style="enable-background:new 0 0 40 40;" xml:space="preserve">
<path fill="#0D47A1" style="fill-rule:evenodd;clip-rule:evenodd;" d="M11.493,1.993h16.995c3.028,0,5.499,2.47,5.499,5.5v1.499H5.994V7.492
	C5.994,4.463,8.464,1.993,11.493,1.993L11.493,1.993z M5.994,28.987h27.994v1.5c0,3.029-2.47,5.499-5.499,5.5
	c-5.665,0-11.33,0-16.995,0c-3.029,0-5.5-2.471-5.5-5.5V28.987L5.994,28.987z M5.994,19.989h27.994v6.998H5.994V19.989L5.994,19.989
	z M5.994,10.991h27.994v6.999H5.994V10.991z"/>
</svg>
