<?xml version="1.0" encoding="iso-8859-1"?>
<!-- Generator: Adobe Illustrator 16.0.2, SVG Export Plug-In . SVG Version: 6.00 Build 0)  -->
<!DOCTYPE svg PUBLIC "-//W3C//DTD SVG 1.1//EN" "http://www.w3.org/Graphics/SVG/1.1/DTD/svg11.dtd">
<svg version="1.1" id="co_x5F_furniture" xmlns="http://www.w3.org/2000/svg" xmlns:xlink="http://www.w3.org/1999/xlink" x="0px"
	 y="0px" width="40px" height="40px" viewBox="0 0 40 40" style="enable-background:new 0 0 40 40;" xml:space="preserve">
<path fill="#0D47A1" style="fill-rule:evenodd;clip-rule:evenodd;" d="M5.989,30.098v5.14c0,0.97-0.791,1.761-1.76,1.761H2.75
	c-0.969,0-1.761-0.791-1.761-1.761c0-3.746,0-7.494,0-11.24h36.992v11.24c0,0.97-0.79,1.761-1.76,1.761h-1.479
	c-0.969,0-1.76-0.791-1.76-1.761v-5.14c0-0.605-0.494-1.101-1.1-1.101H7.089C6.483,28.997,5.989,29.492,5.989,30.098L5.989,30.098z
	 M11.987,15.096v6.9H8.988v-6.9c0-0.606-0.494-1.101-1.101-1.101H7.089c-0.605,0-1.1,0.494-1.1,1.101v6.9h-5
	c0-2.866,0-5.733,0-8.601c0-2.424,1.977-4.401,4.4-4.401h28.192c2.424,0,4.399,1.978,4.399,4.401c0,2.867,0,5.734,0,8.601h-4.999
	v-6.9c0-0.606-0.494-1.101-1.1-1.101h-0.818c-0.605,0-1.1,0.494-1.1,1.101v6.9h-3v-6.9c0-0.606-0.494-1.101-1.1-1.101h-0.78
	c-0.605,0-1.1,0.494-1.1,1.101v6.9h-3v-6.9c0-0.606-0.494-1.101-1.1-1.101h-0.8c-0.605,0-1.1,0.494-1.1,1.101v6.9h-3v-6.9
	c0-0.606-0.494-1.101-1.1-1.101h-0.799C12.481,13.995,11.987,14.489,11.987,15.096z"/>
</svg>
