<?xml version="1.0" encoding="iso-8859-1"?>
<!-- Generator: Adobe Illustrator 16.0.2, SVG Export Plug-In . SVG Version: 6.00 Build 0)  -->
<!DOCTYPE svg PUBLIC "-//W3C//DTD SVG 1.1//EN" "http://www.w3.org/Graphics/SVG/1.1/DTD/svg11.dtd">
<svg version="1.1" id="co_x5F_furniture" xmlns="http://www.w3.org/2000/svg" xmlns:xlink="http://www.w3.org/1999/xlink" x="0px"
	 y="0px" viewBox="0 0 40 40" style="enable-background:new 0 0 40 40;" xml:space="preserve">
<path fill="#0D47A1" style="fill-rule:evenodd;clip-rule:evenodd;" d="M23.985,30.019v3.688c0,1.817-1.482,3.301-3.3,3.301h-1.399
	c-1.817,0-3.299-1.483-3.299-3.301v-3.688c-3.3,0-5.999-2.7-5.999-6.002v-0.252c0-0.969,0.79-1.761,1.76-1.761h16.476
	c0.969,0,1.76,0.792,1.76,1.761v0.252C29.983,27.318,27.284,30.019,23.985,30.019L23.985,30.019z M17.999,20.004v-4.286
	c0-2.756,2.237-5.019,4.985-5.019c1.115,0,2.019,0.903,2.019,2.018s-0.903,2.019-2.019,2.019c-0.54,0-0.981,0.444-0.981,0.982v4.286
	H17.999z"/>
</svg>
