<?xml version="1.0" encoding="iso-8859-1"?>
<!-- Generator: Adobe Illustrator 16.0.2, SVG Export Plug-In . SVG Version: 6.00 Build 0)  -->
<!DOCTYPE svg PUBLIC "-//W3C//DTD SVG 1.1//EN" "http://www.w3.org/Graphics/SVG/1.1/DTD/svg11.dtd">
<svg version="1.1" id="co_x5F_medicine" xmlns="http://www.w3.org/2000/svg" xmlns:xlink="http://www.w3.org/1999/xlink" x="0px"
	 y="0px" width="40px" height="40px" viewBox="0 0 40 40" style="enable-background:new 0 0 40 40;" xml:space="preserve">
<path fill="#0D47A1" style="fill-rule:evenodd;clip-rule:evenodd;" d="M32.642,19.211c-7.404,16.19-28.513,10.317-29.597-3.378
	c-0.06-0.764,2.404,0.479,5.805,1.271c0.384,0.09,0.68,0.299,0.913,0.617c0.434,0.593,0.739,0.955,1.121,1.573
	c0.277,0.448,0.941,0.181,0.71-0.278C9.516,14.873,7.709,8.22,9.203,7.372c1.32-0.751,9.763,3.856,12.914,7.23
	c0.397,0.426,0.894-0.137,0.65-0.476c-0.235-0.329-0.488-0.657-0.756-0.985c-0.224-0.272-0.265-0.63-0.108-0.947
	c1.4-2.83,4.44-4.55,7.627-3.609c2.577,0.761,4.706,3.285,4.546,6.112c-0.02,0.354,0.113,0.667,0.382,0.896l1.894,1.624
	c0.129,0.111,0.182,0.275,0.14,0.441c-0.041,0.166-0.164,0.285-0.331,0.322l-2.756,0.612C33.056,18.67,32.79,18.887,32.642,19.211
	L32.642,19.211z M29.176,12.102c-0.86,0-1.558,0.697-1.558,1.558c0,0.859,0.697,1.557,1.558,1.557c0.859,0,1.557-0.697,1.557-1.557
	C30.733,12.799,30.036,12.102,29.176,12.102z"/>
</svg>
