<?xml version="1.0" encoding="iso-8859-1"?>
<!-- Generator: Adobe Illustrator 16.0.2, SVG Export Plug-In . SVG Version: 6.00 Build 0)  -->
<!DOCTYPE svg PUBLIC "-//W3C//DTD SVG 1.1//EN" "http://www.w3.org/Graphics/SVG/1.1/DTD/svg11.dtd">
<svg version="1.1" id="co_x5F_medicine" xmlns="http://www.w3.org/2000/svg" xmlns:xlink="http://www.w3.org/1999/xlink" x="0px"
	 y="0px" width="40px" height="40px" viewBox="0 0 40 40" style="enable-background:new 0 0 40 40;" xml:space="preserve">
<path fill="#0D47A1" d="M25.588,2.918c1.481-0.014,2.992,0.478,4.189,1.624c0.204,0.195,0.393,0.402,0.564,0.62c0.512,0.65,0.399,1.592-0.252,2.104
	c-0.65,0.511-1.592,0.397-2.103-0.253c-0.096-0.12-0.19-0.226-0.284-0.314c-0.585-0.561-1.341-0.8-2.092-0.793h-0.002
	c-0.234,0.332-0.315,0.801-0.319,1.231c-0.005,0.441-0.036,0.681-0.033,0.722c0.559,0.603,0.528,1.544-0.071,2.107
	c-2.007,0.99-2.578-0.957-2.587-0.994c-0.169-0.479-0.27-0.881-0.295-1.64c-0.411,0.049-0.841-0.074-1.171-0.37
	c0,0-0.391,0.323-0.681,1.35c1.48,7.621-1.826,16.55-0.222,23.061c0.215,0.792,0.812,1.949,2.598,2.877
	c0.273-0.665,0.994-1.054,1.719-0.889c0.474,0.01,2.508,0.374,1.947-2.051c-1.2-0.322-2.261,0.292-2.665,0.911
	c-0.45,0.692-1.376,0.889-2.068,0.438c-0.692-0.449-0.889-1.375-0.438-2.067c0.236-0.364,1.023-1.409,2.463-1.969
	c0.446-0.174,0.954-0.302,1.525-0.35c-0.19-0.61-0.321-1.254-0.327-1.95c-0.094-0.938,0.003-1.813,0.249-2.588
	c0.298-0.936,0.813-1.717,1.482-2.294c0.694-0.599,1.543-0.978,2.479-1.084l0.051-0.005c0.666-0.069,1.379,0.002,2.109,0.235
	c0.672,0.214,1.241,0.546,1.708,0.97c0.806,0.73,1.3,1.715,1.489,2.81c0.174,0.998,0.085,2.1-0.258,3.18
	c-0.33,1.04-0.899,2.06-1.696,2.938c-0.556,0.612-1.503,0.656-2.115,0.1c-0.611-0.556-0.656-1.503-0.099-2.115
	c0.216-0.237,0.404-0.489,0.565-0.75c-0.143-0.011-0.283-0.028-0.418-0.054c-0.831-0.154-1.615-0.588-1.909-1.391
	c-0.028-0.077-0.05-0.155-0.065-0.234c-0.149-0.73,0.266-1.475,0.991-1.717c0.579-0.194,1.194-0.014,1.58,0.41
	c0.154,0.025,0.331-0.01,0.437-0.03c-0.216-0.894-0.794-1.167-1.112-1.269c-1.696-0.538-2.26,0.854-2.371,1.203
	c-0.258,0.813-0.156,1.441-0.131,1.784c0.024,0.704,0.426,1.576,0.801,2.438c0.938,2.16,1.804,4.149-0.498,6.395
	c-1.143,1.111-2.992,1.345-4.373,1.023c-0.537-0.139-2.836-0.748-4.338-2.563c-0.305,0.456-0.669,0.824-1.097,1.138
	c-3.088,2.264-7.072,1.917-9.144-0.065c-0.203-0.194-0.393-0.401-0.563-0.62c-0.512-0.649-0.398-1.591,0.252-2.103
	c0.65-0.511,1.592-0.398,2.104,0.252c-0.52-0.654,0.481,1.126,2.375,1.107c0,0,0.41-0.873,0.354-1.953
	c-0.56-0.602-0.528-1.543,0.071-2.107c0.602-0.565,1.549-0.537,2.115,0.065l0.003,0.003c0.16,0.171,0.272,0.367,0.338,0.576
	c0.216,0.503,0.401,1.231,0.426,1.989c1.048-0.073,1.419,0.652,1.508,0.808c0.182-0.28,0.335-0.607,0.46-1
	c-0.554-2.199-0.519-5.686-0.033-11.631l0.001-0.015l0.007-0.083h0.001c0.432-5.28,0.872-10.684-0.169-12.696
	c-0.92-1.744-2.13-2.212-2.29-2.32c-0.267,0.677-0.995,1.077-1.727,0.91c-1.918-0.446-2.724,1.706-1.859,2.063
	c1.752,0.349,2.775-0.814,3.155-1.177c0.644-0.565,1.571-0.479,2.115,0.146c0.95,1.104-0.112,2.061-0.384,2.326
	c-0.813,0.746-1.841,1.688-3.779,1.768c0.184,0.6,0.309,1.229,0.315,1.91c0.165,1.666-0.255,3.609-1.732,4.883
	c-1.6,1.379-3.464,1.227-4.64,0.854c-0.757-0.241-2.728-1.086-3.196-3.779c-0.355-2.043,0.394-4.398,1.954-6.118
	C7.039,8.234,7.986,8.19,8.598,8.747c0.612,0.556,0.656,1.503,0.1,2.114c-0.216,0.238-0.404,0.49-0.566,0.75
	c0.313,0.016,1.864,0.125,2.327,1.444c0.092,0.323,0.289,1.479-0.925,1.952c-0.58,0.193-1.194,0.013-1.581-0.411
	c-0.154-0.025-0.331,0.011-0.437,0.031c0.218,0.895,0.794,1.166,1.112,1.268c-0.17-0.054,1.755,0.736,2.371-1.202
	c0.251-0.79,0.233-2.143-0.669-4.224c-2.743-6.315,2.144-7.323,2.595-7.442c4.03-0.856,6.457,2.704,6.788,3.261
	C20.327,5.397,22.262,2.948,25.588,2.918z M17.008,25.89c-1.275-0.588-2.635-0.803-3.872-0.533
	c-1.342,0.293-2.504,1.112-3.249,2.578c-0.79,1.591-1.896,0.29-1.442,0.697c-0.113-0.102-0.209-0.304-0.266-0.635
	c-0.139-0.815-0.913-1.364-1.729-1.225c-0.814,0.139-1.363,0.913-1.225,1.728c0.182,1.063,0.631,1.839,1.227,2.37
	c1.251,1.114,2.9,0.979,4.022,0.473c0.874-0.395,1.636-1.09,2.032-1.947l0.021-0.048c0,0,0.22-0.84,1.239-1.062
	c0.587-0.128,1.287,0,1.985,0.322c0.029,0.013,0.088,0.043,0.172,0.085c0.738,0.375,1.641,0.082,2.016-0.656
	C18.554,26.706,17.313,26.038,17.008,25.89z M9.514,20.925c0.01,0.105,0.143,1.393-0.374,2.006
	c-0.523,0.635-1.266,0.264-1.479,0.095c-0.191-0.241-0.283-1.036,0.178-1.4c0.646-0.512,0.757-1.45,0.246-2.098
	c-0.512-0.647-1.45-0.757-2.098-0.247c-0.885,0.701-1.395,1.795-1.471,2.893c-0.062,0.89,0.163,1.896,0.801,2.704
	c0.592,0.748,1.479,1.273,2.678,1.357c0.362,0.011,2.153,0.21,3.441-1.383c0.126-0.148,0.242-0.31,0.348-0.48
	c0,0,1.218,0.651,2.706,0.253c0.552-0.16,1.83-0.648,2.45-1.924c0.308-0.63,0.398-1.35,0.17-2.13
	c-0.096-0.332-0.244-0.659-0.452-0.976c-0.252-0.385-0.287-0.661-0.217-0.865c0.189-0.484,0.622-0.732,0.984-1.181
	c0.601-0.712,0.927-1.728,0.904-2.757c0-1.785-1.026-2.887-1.526-3.287c-0.631-0.535-1.575-0.455-2.109,0.176
	s-0.455,1.574,0.176,2.108c0.23,0.291,0.948,1.036,0.271,1.826c-0.02,0.022-0.018,0.024-0.022,0.029
	c-0.581,0.524-1.201,1.208-1.513,2.112c-0.348,1.011-0.309,2.177,0.545,3.479c0.05,0.075,0.078,0.13,0.089,0.165
	c-0.257,0.36-1.018,0.554-1.712-0.052c-0.003-0.221-0.016-0.452-0.037-0.693c-0.074-0.821-0.802-1.428-1.623-1.354
	C10.045,19.376,9.439,20.103,9.514,20.925L9.514,20.925z M22.072,13.44c1.275,0.589,2.633,0.804,3.871,0.533
	c1.342-0.292,2.504-1.111,3.25-2.577c0.371-0.738,0.944-0.809,1.188-0.792c0.108,0.007,0.396,0.003,0.52,0.729
	c0.139,0.815,0.913,1.364,1.729,1.225c0.815-0.139,1.364-0.912,1.225-1.727c-0.182-1.063-0.631-1.839-1.228-2.369
	c-0.596-0.533-1.316-0.797-2.058-0.846c-0.669-0.044-1.353,0.096-1.964,0.371c-0.874,0.395-1.636,1.09-2.031,1.948
	c0,0-0.263,0.892-1.262,1.109c-0.586,0.128-1.286,0-1.986-0.323c-0.028-0.013-0.086-0.042-0.171-0.085
	c-0.737-0.374-1.64-0.081-2.016,0.657c-0.375,0.736-0.081,1.639,0.656,2.015C21.795,13.309,21.856,13.341,22.072,13.44z
	 M29.566,18.405c-0.01-0.105-0.145-1.389,0.373-2.006c0.169-0.2,1.073-0.609,1.479-0.094c0.191,0.24,0.285,1.036-0.178,1.4
	c-0.647,0.512-0.757,1.45-0.245,2.098c0.511,0.646,1.45,0.757,2.098,0.246c0.885-0.701,1.394-1.795,1.47-2.891
	c0.061-0.889-0.163-1.899-0.801-2.705c-0.592-0.748-1.479-1.274-2.678-1.357c-0.249-0.017-0.505-0.013-0.764,0.011
	c-2.141,0.218-2.73,1.347-3.025,1.852c0,0-1.13-0.701-2.705-0.253c-0.431,0.126-0.843,0.311-1.2,0.545
	c-0.529,0.348-0.975,0.813-1.251,1.379c-0.307,0.63-0.397,1.351-0.17,2.131c0.096,0.332,0.245,0.658,0.453,0.976
	c0.251,0.384,0.286,0.661,0.217,0.865c-0.105,0.303-0.398,0.609-0.682,0.865c-0.242,0.246-1.227,1.245-1.207,3.071
	c0.07,2.206,1.252,3.005,1.525,3.288c0.631,0.534,1.575,0.455,2.109-0.176s0.455-1.575-0.176-2.108
	c-0.147-0.17-0.477-0.326-0.471-1.063c-0.014-0.557,1.185-1.568,1.735-2.906c0.349-1.01,0.309-2.176-0.545-3.478
	c-0.049-0.076-0.078-0.13-0.089-0.165c0.646-1.106,2.03,0.418,1.712,0.052c0.003,0.222,0.016,0.452,0.038,0.692
	c0.074,0.822,0.801,1.428,1.623,1.354C29.034,19.954,29.641,19.228,29.566,18.405z"/>
</svg>
