<?xml version="1.0" encoding="iso-8859-1"?>
<!-- Generator: Adobe Illustrator 16.0.2, SVG Export Plug-In . SVG Version: 6.00 Build 0)  -->
<!DOCTYPE svg PUBLIC "-//W3C//DTD SVG 1.1//EN" "http://www.w3.org/Graphics/SVG/1.1/DTD/svg11.dtd">
<svg version="1.1" id="co_x5F_building" xmlns="http://www.w3.org/2000/svg" xmlns:xlink="http://www.w3.org/1999/xlink" x="0px"
	 y="0px" viewBox="0 0 40 40" style="enable-background:new 0 0 40 40;" xml:space="preserve">
<path fill="#0D47A1" style="fill-rule:evenodd;clip-rule:evenodd;" d="M37,26.501c0,0.828-0.672,1.5-1.5,1.5s-1.5-0.672-1.5-1.5l-0.023-2.094
	c0-3.528-2.981-6.416-6.51-6.416c-3.438,0-6.345,2.783-6.467,6.196v2.313c0,0.828-0.671,1.5-1.5,1.5s-1.5-0.672-1.5-1.5
	l-0.021-2.094c0-3.528-3.013-6.416-6.542-6.416c-3.452,0-6.338,2.805-6.438,6.234v2.275c0,0.828-0.671,1.5-1.5,1.5
	S2,27.329,2,26.501v-11.5c0-1.104,0.896-2,2-2h31c1.104,0,2,0.896,2,2V26.501z"/>
</svg>
