<?xml version="1.0" encoding="iso-8859-1"?>
<!-- Generator: Adobe Illustrator 16.0.2, SVG Export Plug-In . SVG Version: 6.00 Build 0)  -->
<!DOCTYPE svg PUBLIC "-//W3C//DTD SVG 1.1//EN" "http://www.w3.org/Graphics/SVG/1.1/DTD/svg11.dtd">
<svg version="1.1" id="co_x5F_building" xmlns="http://www.w3.org/2000/svg" xmlns:xlink="http://www.w3.org/1999/xlink" x="0px"
	 y="0px" viewBox="0 0 40 40" style="enable-background:new 0 0 40 40;" xml:space="preserve">
<path fill="#0D47A1" style="fill-rule:evenodd;clip-rule:evenodd;" d="M3.99,9.992h7.839c0.363,0,0.66,0.297,0.66,0.66v1.957
	c0,0.287-0.174,0.532-0.447,0.625c-1.771,0.604-3.055,2.29-3.055,4.26v0.058c0,0.242-0.197,0.439-0.44,0.439H4.43
	c-0.243,0-0.44-0.197-0.44-0.439V9.992L3.99,9.992z M33.112,5.653v2.679c0,0.364-0.297,0.66-0.661,0.66h-0.68
	c-0.363,0-0.66-0.296-0.66-0.66V5.653c0-0.364-0.297-0.66-0.66-0.66h-0.555c-0.364,0-0.66,0.296-0.66,0.66v2.679
	c0,0.364-0.296,0.66-0.66,0.66h-0.68c-0.363,0-0.66-0.296-0.66-0.66V5.653c0-0.364-0.296-0.66-0.66-0.66h-0.555
	c-0.364,0-0.66,0.296-0.66,0.66v2.679c0,0.364-0.297,0.66-0.66,0.66h-0.68c-0.364,0-0.66-0.296-0.66-0.66V5.653
	c0-0.364-0.296-0.66-0.66-0.66h-0.555c-0.363,0-0.66,0.296-0.66,0.66v2.679c0,0.364-0.297,0.66-0.66,0.66h-0.68
	c-0.363,0-0.66-0.296-0.66-0.66V5.653c0-0.364-0.296-0.66-0.66-0.66h-0.555c-0.363,0-0.66,0.296-0.66,0.66v2.679
	c0,0.364-0.296,0.66-0.66,0.66h-0.68c-0.363,0-0.66-0.296-0.66-0.66V5.653c0-0.364-0.296-0.66-0.66-0.66h-0.555
	c-0.363,0-0.66,0.296-0.66,0.66v2.679c0,0.364-0.297,0.66-0.66,0.66h-0.68c-0.364,0-0.66-0.296-0.66-0.66V5.653
	c0-0.364-0.297-0.66-0.66-0.66h-0.555c-0.363,0-0.66,0.296-0.66,0.66v2.679c0,0.364-0.296,0.66-0.66,0.66h-0.68
	c-0.363,0-0.66-0.296-0.66-0.66V5.653c0-0.364-0.296-0.66-0.66-0.66H6.649c-0.363,0-0.66,0.296-0.66,0.66v2.679
	c0,0.364-0.297,0.66-0.66,0.66H4.65c-0.364,0-0.66-0.296-0.66-0.66V4.094c0-0.606,0.494-1.101,1.1-1.101c10.265,0,20.531,0,30.797,0
	c0.606,0,1.1,0.494,1.1,1.1v4.239c0,0.364-0.296,0.66-0.66,0.66h-0.679c-0.363,0-0.66-0.296-0.66-0.66V5.653
	c0-0.364-0.297-0.66-0.66-0.66h-0.555C33.408,4.993,33.112,5.289,33.112,5.653L33.112,5.653z M15.149,9.992h10.679
	c0.363,0,0.66,0.297,0.66,0.66v1.957c0,0.287-0.175,0.532-0.446,0.625c-1.771,0.604-3.055,2.29-3.055,4.26v0.058
	c0,0.242-0.197,0.439-0.439,0.439h-4.12c-0.243,0-0.44-0.197-0.44-0.439v-0.058c0-1.967-1.281-3.652-3.051-4.259
	c-0.271-0.093-0.446-0.338-0.446-0.624v-1.959C14.489,10.289,14.785,9.992,15.149,9.992L15.149,9.992z M29.147,9.992h7.839v7.56
	c0,0.242-0.198,0.439-0.44,0.439h-4.122c-0.242,0-0.44-0.197-0.44-0.439v-0.058c0-1.966-1.282-3.652-3.052-4.259
	c-0.271-0.093-0.446-0.337-0.446-0.624v-1.959C28.487,10.289,28.784,9.992,29.147,9.992L29.147,9.992z M36.985,19.432l0.001,16.458
	c0,0.605-0.494,1.101-1.1,1.101h-2.801c-0.605,0-1.1-0.495-1.1-1.101l-0.002-16.458c0-0.242,0.198-0.439,0.44-0.439h4.122
	C36.787,18.992,36.985,19.189,36.985,19.432L36.985,19.432z M21.886,36.99h-2.8c-0.606,0-1.1-0.495-1.1-1.101l-0.001-16.458
	c0-0.242,0.197-0.439,0.44-0.439h4.12c0.242,0,0.44,0.197,0.44,0.439l0.001,16.458C22.986,36.495,22.492,36.99,21.886,36.99
	L21.886,36.99z M7.887,36.99H5.09c-0.605,0-1.1-0.495-1.1-1.101L3.988,19.432c0-0.242,0.198-0.439,0.44-0.439h4.118
	c0.243,0,0.44,0.197,0.44,0.439L8.987,35.89C8.987,36.495,8.493,36.99,7.887,36.99z"/>
</svg>
