<?xml version="1.0" encoding="iso-8859-1"?>
<!-- Generator: Adobe Illustrator 16.0.2, SVG Export Plug-In . SVG Version: 6.00 Build 0)  -->
<!DOCTYPE svg PUBLIC "-//W3C//DTD SVG 1.1//EN" "http://www.w3.org/Graphics/SVG/1.1/DTD/svg11.dtd">
<svg version="1.1" id="co_x5F_player" xmlns="http://www.w3.org/2000/svg" xmlns:xlink="http://www.w3.org/1999/xlink" x="0px"
	 y="0px" viewBox="0 0 40 40" style="enable-background:new 0 0 40 40;" xml:space="preserve">
<path fill="#90CAF9" style="fill-rule:evenodd;clip-rule:evenodd;" d="M29.08,37.006H10.934c-4.357,0-7.924-3.565-7.924-7.923V10.936
	c0-4.358,3.566-7.923,7.924-7.923H29.08c4.357,0,7.922,3.565,7.922,7.923v18.147C37.002,33.441,33.438,37.006,29.08,37.006z
	 M28.785,15.189c1.027-1.029,1.027-2.706,0-3.734l-0.266-0.266c-1.029-1.028-2.705-1.028-3.734,0l-4.797,4.799l-4.799-4.799
	c-1.029-1.028-2.707-1.028-3.734,0l-0.266,0.266c-1.027,1.028-1.027,2.705,0,3.734l4.799,4.798l-4.799,4.799
	c-1.027,1.027-1.027,2.705,0,3.733l0.266,0.266c1.027,1.028,2.705,1.028,3.734,0l4.799-4.799l4.797,4.799
	c1.029,1.028,2.705,1.028,3.734,0l0.266-0.266c1.027-1.028,1.027-2.706,0-3.733l-4.799-4.799L28.785,15.189z"/>
</svg>
