<?xml version="1.0" encoding="iso-8859-1"?>
<!-- Generator: Adobe Illustrator 16.0.2, SVG Export Plug-In . SVG Version: 6.00 Build 0)  -->
<!DOCTYPE svg PUBLIC "-//W3C//DTD SVG 1.1//EN" "http://www.w3.org/Graphics/SVG/1.1/DTD/svg11.dtd">
<svg version="1.1" id="co_x5F_player" xmlns="http://www.w3.org/2000/svg" xmlns:xlink="http://www.w3.org/1999/xlink" x="0px"
	 y="0px" viewBox="0 0 40 40" style="enable-background:new 0 0 40 40;" xml:space="preserve">
	<style>
		path {
			transform: rotate(-90deg);
	    transform-origin: 20px 20px;
		}
	</style>
<path fill="#0D47A1" style="fill-rule:evenodd;clip-rule:evenodd;" d="M29.079,37.006H10.932c-4.357,0-7.922-3.565-7.922-7.923V10.936
	c0-4.358,3.565-7.923,7.922-7.923h18.146c4.358,0,7.923,3.565,7.923,7.923v18.147C37.002,33.441,33.437,37.006,29.079,37.006z
	 M24.117,14.861c0.964-0.965,0.965-2.545,0-3.511c-0.966-0.965-2.546-0.965-3.512,0l-6.832,6.832
	c-0.036,0.032-0.071,0.064-0.105,0.099c-0.454,0.453-0.694,1.044-0.721,1.642l-0.002,0.053v0.006l-0.001,0.053v0.006l0.001,0.054
	v0.006l0.002,0.053c0.027,0.599,0.267,1.188,0.721,1.644c0.035,0.034,0.07,0.067,0.106,0.1l6.831,6.831
	c0.965,0.965,2.545,0.965,3.511,0c0.965-0.966,0.964-2.546,0-3.512l-5.179-5.178L24.117,14.861z"/>
</svg>
