<?xml version="1.0" encoding="iso-8859-1"?>
<!-- Generator: Adobe Illustrator 16.0.2, SVG Export Plug-In . SVG Version: 6.00 Build 0)  -->
<!DOCTYPE svg PUBLIC "-//W3C//DTD SVG 1.1//EN" "http://www.w3.org/Graphics/SVG/1.1/DTD/svg11.dtd">
<svg version="1.1" id="co_x5F_symbols" xmlns="http://www.w3.org/2000/svg" xmlns:xlink="http://www.w3.org/1999/xlink" x="0px"
	 y="0px" viewBox="0 0 40 40" style="enable-background:new 0 0 40 40;" xml:space="preserve">
<path fill="#0D47A1" style="fill-rule:evenodd;clip-rule:evenodd;" d="M19.962,1.992c9.937,0,17.996,8.059,17.996,17.996
	s-8.059,17.996-17.996,17.996c-9.938,0-17.996-8.059-17.996-17.996S10.024,1.992,19.962,1.992L19.962,1.992z M8.992,13.017
	c-1.283,2.015-2.027,4.407-2.027,6.972s0.744,4.956,2.027,6.97l6.971-6.97L8.992,13.017L8.992,13.017z M19.962,23.987l-6.971,6.971
	c2.015,1.283,4.405,2.027,6.971,2.027c2.565,0,4.956-0.744,6.971-2.027L19.962,23.987L19.962,23.987z M30.932,26.958
	c1.283-2.014,2.027-4.405,2.027-6.97c0-2.564-0.744-4.957-2.027-6.972l-6.971,6.972L30.932,26.958L30.932,26.958z M19.962,15.989
	l6.971-6.971c-2.015-1.284-4.406-2.028-6.971-2.028s-4.958,0.744-6.972,2.027L19.962,15.989z"/>
</svg>
