<?xml version="1.0" encoding="iso-8859-1"?>
<!-- Generator: Adobe Illustrator 16.0.2, SVG Export Plug-In . SVG Version: 6.00 Build 0)  -->
<!DOCTYPE svg PUBLIC "-//W3C//DTD SVG 1.1//EN" "http://www.w3.org/Graphics/SVG/1.1/DTD/svg11.dtd">
<svg version="1.1" id="co_x5F_building" xmlns="http://www.w3.org/2000/svg" xmlns:xlink="http://www.w3.org/1999/xlink" x="0px"
	 y="0px" viewBox="0 0 40 40" style="enable-background:new 0 0 40 40;" xml:space="preserve">
<path fill="#0D47A1" style="fill-rule:evenodd;clip-rule:evenodd;" d="M32.669,30.663c-0.215,0.216-0.475,0.323-0.778,0.323h-0.898v4.8
	c0,1.212-0.988,2.2-2.2,2.2H11.195c-1.212,0-2.2-0.988-2.2-2.2v-4.8H8.094c-0.605,0-1.105-0.493-1.106-1.098v-3.354
	c0-0.364,0.129-0.677,0.387-0.934l7.612-7.613v-3.451c0-0.364,0.13-0.678,0.388-0.935l3.293-3.288
	c0.214-0.215,0.323-0.476,0.323-0.778L19,9.52V7.001h-2c-0.552,0-1-0.448-1-1C16,5.448,16.448,5,17,5h2V3c0-0.552,0.448-1,1-1
	s1,0.448,1,1v2h2c0.552,0,1,0.448,1,1.001c0,0.552-0.448,1-1,1h-2v2.584c0.013,0.278,0.111,0.522,0.312,0.724l3.288,3.294
	c0.257,0.257,0.386,0.569,0.386,0.932v3.453l7.614,7.613c0.256,0.257,0.391,0.569,0.392,0.932v3.353
	C32.991,30.188,32.883,30.449,32.669,30.663z M29.985,27.443c0-0.304-0.108-0.564-0.322-0.778l-8.899-8.899
	c-0.428-0.428-1.128-0.428-1.556,0l-8.898,8.899c-0.215,0.214-0.323,0.475-0.323,0.778v1.104c0,0.242,0.197,0.439,0.44,0.439h0.9
	c0.364,0,0.66,0.297,0.66,0.661v5.679c0,0.363,0.296,0.66,0.66,0.66h3.899c0.243,0,0.44-0.198,0.44-0.44v-4.898
	c0-0.024,0.011-0.046,0.014-0.069V29c0-1.104,0.896-2,2-2h2c1.104,0,2,0.896,2,2v3.001c0,0.048-0.011,0.094-0.014,0.141v3.404
	c0,0.242,0.197,0.44,0.44,0.44h3.899c0.364,0,0.66-0.297,0.66-0.66v-5.679c0-0.364,0.296-0.661,0.66-0.661h0.9
	c0.242,0,0.44-0.197,0.44-0.439V27.443z M21.326,24.987h-2.68c-0.363,0-0.66-0.297-0.66-0.66v-2.658c0-0.363,0.296-0.66,0.66-0.66
	h2.68c-0.453,0,0.66-0.167,0.66,0.66v2.658C21.986,25.154,20.873,24.987,21.326,24.987z"/>
</svg>
