<?xml version="1.0" encoding="iso-8859-1"?>
<!-- Generator: Adobe Illustrator 16.0.2, SVG Export Plug-In . SVG Version: 6.00 Build 0)  -->
<!DOCTYPE svg PUBLIC "-//W3C//DTD SVG 1.1//EN" "http://www.w3.org/Graphics/SVG/1.1/DTD/svg11.dtd">
<svg version="1.1" id="co_x5F_mobile" xmlns="http://www.w3.org/2000/svg" xmlns:xlink="http://www.w3.org/1999/xlink" x="0px"
	 y="0px" viewBox="0 0 40 40" style="enable-background:new 0 0 40 40;" xml:space="preserve">
<path fill="#0D47A1" style="fill-rule:evenodd;clip-rule:evenodd;" d="M19.956,2.012c9.937,0,17.996,8.059,17.996,17.997
	c0,9.937-8.059,17.996-17.996,17.996c-9.938,0-17.996-8.059-17.996-17.996C1.959,10.071,10.018,2.012,19.956,2.012L19.956,2.012z
	 M28.482,12.36c0.088-0.246,0.03-0.504-0.155-0.689c-0.185-0.184-0.443-0.243-0.689-0.155l-11.842,4.243l-4.243,11.842
	c-0.088,0.247-0.03,0.505,0.155,0.689c0.185,0.185,0.443,0.243,0.689,0.155l11.842-4.243L28.482,12.36L28.482,12.36z M22.791,22.826
	l-5.619-5.619l-3.137,8.756L22.791,22.826L22.791,22.826z M19.956,6.011c-7.729,0-13.997,6.268-13.997,13.997
	c0,7.729,6.268,13.997,13.997,13.997c7.729,0,13.997-6.268,13.997-13.997C33.952,12.279,27.685,6.011,19.956,6.011z"/>
</svg>
