<?xml version="1.0" encoding="iso-8859-1"?>
<!-- Generator: Adobe Illustrator 16.0.2, SVG Export Plug-In . SVG Version: 6.00 Build 0)  -->
<!DOCTYPE svg PUBLIC "-//W3C//DTD SVG 1.1//EN" "http://www.w3.org/Graphics/SVG/1.1/DTD/svg11.dtd">
<svg version="1.1" id="co_x5F_mobile" xmlns="http://www.w3.org/2000/svg" xmlns:xlink="http://www.w3.org/1999/xlink" x="0px"
	 y="0px" viewBox="0 0 40 40" style="enable-background:new 0 0 40 40;" xml:space="preserve">
<path fill="#0D47A1" style="fill-rule:evenodd;clip-rule:evenodd;" d="M32.752,7.283c7.027,7.026,7.027,18.423,0,25.45
	c-7.027,7.026-18.423,7.026-25.45,0c-7.027-7.027-7.027-18.424,0-25.45C14.329,0.256,25.725,0.256,32.752,7.283L32.752,7.283z
	 M29.761,11.19c0.129-0.259,0.081-0.557-0.124-0.762c-0.204-0.205-0.503-0.253-0.762-0.124L16.566,16.46l-6.156,12.31
	c-0.129,0.258-0.08,0.557,0.124,0.761c0.204,0.204,0.503,0.252,0.762,0.124l12.309-6.156L29.761,11.19L29.761,11.19z M22.384,22.365
	l-4.684-4.684l-3.8,7.598c-0.129,0.258-0.081,0.557,0.124,0.762c0.205,0.205,0.503,0.253,0.762,0.124L22.384,22.365z"/>
</svg>
