<?xml version="1.0" encoding="UTF-8" standalone="no"?>
<!DOCTYPE svg PUBLIC "-//W3C//DTD SVG 1.1//EN" "http://www.w3.org/Graphics/SVG/1.1/DTD/svg11.dtd">
<!-- Created with Vectornator (http://vectornator.io/) -->
<svg height="100%" stroke-miterlimit="10" style="fill-rule:nonzero;clip-rule:evenodd;stroke-linecap:round;stroke-linejoin:round;" version="1.1" viewBox="0 0 40 40" width="100%" xml:space="preserve" xmlns="http://www.w3.org/2000/svg" xmlns:xlink="http://www.w3.org/1999/xlink">
<defs/>
<g id="Untitled">
<path d="M32.673 7.273C25.662 0.261 14.291 0.261 7.28 7.273C0.269001 14.283 0.269001 25.654 7.28 32.666C14.291 39.677 25.662 39.677 32.673 32.666C39.685 25.654 39.685 14.283 32.673 7.273ZM19.992 32.778C19.992 33.421 19.44 33.928 18.8 33.875C15.63 33.608 12.533 32.263 10.109 29.838C4.659 24.388 4.659 15.55 10.109 10.101C12.534 7.676 15.63 6.33 18.8 6.064C19.44 6.01 19.992 6.518 19.992 7.16L19.992 32.778Z" fill="#0d47a1" fill-rule="evenodd" opacity="1" stroke="none"/>
</g>
</svg>
