<?xml version="1.0" encoding="iso-8859-1"?>
<!-- Generator: Adobe Illustrator 16.0.2, SVG Export Plug-In . SVG Version: 6.00 Build 0)  -->
<!DOCTYPE svg PUBLIC "-//W3C//DTD SVG 1.1//EN" "http://www.w3.org/Graphics/SVG/1.1/DTD/svg11.dtd">
<svg version="1.1" id="co_x5F_work" xmlns="http://www.w3.org/2000/svg" xmlns:xlink="http://www.w3.org/1999/xlink" x="0px"
	 y="0px" viewBox="0 0 40 40" style="enable-background:new 0 0 40 40;" xml:space="preserve">
<path fill="#0D47A1" style="fill-rule:evenodd;clip-rule:evenodd;" d="M35.527,33h-2.519v2.519c0,1.09-0.89,1.98-1.98,1.98h-0.04
	c-1.09,0-1.979-0.89-1.979-1.98V33h-2.52c-1.09,0-1.979-0.89-1.979-1.98v-0.04c0-1.091,0.889-1.98,1.979-1.98h2.52v-2.52
	c0-1.09,0.889-1.979,1.979-1.979h0.04c1.09,0,1.98,0.89,1.98,1.979V29h2.519c1.09,0,1.98,0.889,1.98,1.98v0.04
	C37.507,32.11,36.618,33,35.527,33z M31,22c-2.209,0-4,1.791-4,4v1h-1c-2.209,0-4,1.791-4,4c0,0.439,0.088,0.854,0.219,1.25
	C20.73,32.729,19.149,33,17.5,33C8.939,33,2,26.061,2,17.5S8.939,2,17.5,2S33,8.939,33,17.5c0,1.647-0.262,3.233-0.738,4.723
	C31.863,22.089,31.443,22,31,22z M26.774,17.465c0-0.943-0.738-1.493-1.681-1.493h-6.066V9.169c0-0.943-0.55-1.619-1.494-1.619
	h-0.08c-0.943,0-1.462,0.676-1.462,1.619v9.824h0.089h9.012c0.943,0,1.681-0.55,1.681-1.493V17.465z"/>
</svg>
