<?xml version="1.0" encoding="iso-8859-1"?>
<!-- Generator: Adobe Illustrator 16.0.2, SVG Export Plug-In . SVG Version: 6.00 Build 0)  -->
<!DOCTYPE svg PUBLIC "-//W3C//DTD SVG 1.1//EN" "http://www.w3.org/Graphics/SVG/1.1/DTD/svg11.dtd">
<svg version="1.1" id="co_x5F_multimedia" xmlns="http://www.w3.org/2000/svg" xmlns:xlink="http://www.w3.org/1999/xlink" x="0px"
	 y="0px" viewBox="0 0 40 40" style="enable-background:new 0 0 40 40;" xml:space="preserve">
<path fill="#0D47A1" style="fill-rule:evenodd;clip-rule:evenodd;" d="M36,33h-3v3c0,1.105-0.896,2-2,2h-2c-1.105,0-2-0.895-2-2v-3H11H9
	c-1.105,0-2-0.895-2-2V13H4c-1.105,0-2-0.895-2-2V9c0-1.104,0.895-2,2-2h3V4c0-1.104,0.895-2,2-2h2c1.104,0,2,0.896,2,2v23h23
	c1.104,0,2,0.896,2,2v2C38,32.105,37.104,33,36,33z M27,25V13H15V7h14h2c1.104,0,2,0.896,2,2v16H27z"/>
</svg>
