<?xml version="1.0" encoding="iso-8859-1"?>
<!-- Generator: Adobe Illustrator 16.0.2, SVG Export Plug-In . SVG Version: 6.00 Build 0)  -->
<!DOCTYPE svg PUBLIC "-//W3C//DTD SVG 1.1//EN" "http://www.w3.org/Graphics/SVG/1.1/DTD/svg11.dtd">
<svg version="1.1" id="co_x5F_culture" xmlns="http://www.w3.org/2000/svg" xmlns:xlink="http://www.w3.org/1999/xlink" x="0px"
	 y="0px" width="40px" height="40px" viewBox="0 0 40 40" style="enable-background:new 0 0 40 40;" xml:space="preserve">
<path fill="#0d47a1" style="fill-rule:evenodd;clip-rule:evenodd;" d="M34.992,9.949L35,30.001c0,2.209-1.791,4-4,4H7c-2.209,0-4-1.791-4-4
	L2.999,9.928c-1.141-0.231-2-1.24-2-2.449c0-1.21,0.859-2.218,2-2.449v-0.05l0.013,0.047c0.158-0.031,0.32-0.047,0.487-0.047
	c1.38,0,2.5,1.119,2.5,2.499c0,1.106-0.72,2.046-1.717,2.374l3.408,12.531c0.053,0.194,0.225,0.325,0.427,0.324
	s0.373-0.133,0.424-0.329l2.432-9.303c-0.623-0.226-1.069-0.84-1.069-1.563c0-0.914,0.714-1.654,1.594-1.654
	c0.88,0,1.594,0.74,1.594,1.654c0,0.724-0.447,1.338-1.069,1.563l2.387,9.128c0.052,0.199,0.229,0.332,0.435,0.328
	c0.205-0.004,0.376-0.145,0.42-0.346L17.98,9.802c-1.157-0.416-1.984-1.523-1.984-2.823c0-1.656,1.343-2.999,3-2.999
	c1.656,0,2.999,1.343,2.999,2.999c0,1.3-0.827,2.407-1.984,2.823l2.716,12.385c0.044,0.201,0.215,0.342,0.422,0.346
	c0.206,0.004,0.382-0.13,0.434-0.328l2.386-9.128c-0.623-0.226-1.069-0.84-1.069-1.563c0-0.914,0.714-1.654,1.594-1.654
	c0.88,0,1.594,0.74,1.594,1.654c0,0.723-0.446,1.338-1.069,1.563l2.433,9.303c0.051,0.196,0.222,0.328,0.423,0.329
	c0.202,0.001,0.374-0.13,0.426-0.324l3.419-12.57c-0.94-0.359-1.607-1.27-1.607-2.335c0-1.38,1.119-2.499,2.5-2.499
	c0.126,0,0.251,0.01,0.373,0.027l0.007-0.027v0.028c1.199,0.183,2.119,1.22,2.119,2.471S36.191,9.767,34.992,9.949z M8.655,26.68
	c-0.761,0-1.379,0.617-1.379,1.379c0,0.761,0.618,1.378,1.379,1.378c0.762,0,1.379-0.617,1.379-1.378
	C10.034,27.297,9.417,26.68,8.655,26.68z M18.995,25.302c-1.522,0-2.757,1.234-2.757,2.757s1.234,2.757,2.757,2.757
	c1.522,0,2.757-1.234,2.757-2.757S20.517,25.302,18.995,25.302z M29.333,26.68c-0.761,0-1.379,0.617-1.379,1.379
	c0,0.761,0.618,1.378,1.379,1.378c0.762,0,1.379-0.617,1.379-1.378C30.712,27.297,30.095,26.68,29.333,26.68z"/>
</svg>
