<?xml version="1.0" encoding="iso-8859-1"?>
<!-- Generator: Adobe Illustrator 16.0.2, SVG Export Plug-In . SVG Version: 6.00 Build 0)  -->
<!DOCTYPE svg PUBLIC "-//W3C//DTD SVG 1.1//EN" "http://www.w3.org/Graphics/SVG/1.1/DTD/svg11.dtd">
<svg version="1.1" id="co_x5F_weather" xmlns="http://www.w3.org/2000/svg" xmlns:xlink="http://www.w3.org/1999/xlink" x="0px"
	 y="0px" viewBox="0 0 40 40" style="enable-background:new 0 0 40 40;" xml:space="preserve">
<path fill="#0D47A1" style="fill-rule:evenodd;clip-rule:evenodd;" d="M15.437,7.552c4.777-0.837,9.339,2.191,10.479,6.833l-0.139-0.001
	c-2.583,0-4.933,1.026-6.67,2.695c-1.272,1.223-2.21,2.795-2.665,4.564c-1.058,0.521-2.357,1.594-2.962,3.391
	c-2.782-1.167-4.931-3.683-5.49-6.874C7.118,13.176,10.452,8.425,15.437,7.552L15.437,7.552z M27.08,31.729
	c0.471,0.815,1.298,2.87,0.954,4.155c-0.344,1.287-1.38,1.698-2.445,1.412c-1.065-0.285-1.757-1.159-1.412-2.444
	C24.521,33.565,26.265,32.2,27.08,31.729L27.08,31.729z M21.324,31.729c0.471,0.815,1.299,2.87,0.954,4.155
	c-0.344,1.287-1.38,1.698-2.445,1.412c-1.065-0.285-1.757-1.159-1.412-2.444C18.766,33.565,20.51,32.2,21.324,31.729L21.324,31.729z
	 M32.835,31.729c0.471,0.815,1.298,2.87,0.954,4.155c-0.344,1.287-1.38,1.698-2.445,1.412c-1.065-0.285-1.756-1.159-1.412-2.444
	C30.276,33.565,32.02,32.2,32.835,31.729L32.835,31.729z M32.872,29.994c2.791,0,5.021-1.959,5.021-4.854
	c0-2.655-2.029-4.808-4.531-4.808c-0.546,0-1.07,0.103-1.556,0.291c-1.192-2.104-3.445-3.524-6.028-3.524
	c-3.727,0-6.767,2.954-6.925,6.655c-1.641,0.088-2.956,1.457-2.956,3.117l0,0c0,1.718,1.408,3.122,3.122,3.122H32.872L32.872,29.994
	z M14.441,1.806l0.079-0.015c0.656-0.114,1.286,0.327,1.4,0.983l0.301,1.72c0.115,0.656-0.327,1.286-0.983,1.401L15.16,5.908
	c-0.657,0.115-1.286-0.326-1.4-0.982l-0.301-1.72C13.343,2.549,13.785,1.921,14.441,1.806L14.441,1.806z M27.731,14.692
	l-0.014-0.079c-0.115-0.656,0.326-1.285,0.983-1.4l1.72-0.302c0.656-0.114,1.286,0.327,1.4,0.983l0.014,0.078
	c0.115,0.657-0.327,1.286-0.983,1.401l-1.72,0.301C28.476,15.79,27.846,15.349,27.731,14.692L27.731,14.692z M7.399,5.073
	C6.888,5.501,6.821,6.267,7.249,6.778l1.121,1.338c0.428,0.511,1.193,0.579,1.705,0.151l0.061-0.052
	c0.511-0.428,0.579-1.193,0.151-1.703L9.165,5.174C8.737,4.663,7.971,4.595,7.46,5.021L7.399,5.073L7.399,5.073z M2.936,11.425
	l0.027-0.075c0.229-0.626,0.925-0.95,1.551-0.722l1.64,0.6c0.626,0.228,0.95,0.925,0.722,1.551l-0.028,0.075
	c-0.229,0.626-0.926,0.95-1.551,0.721l-1.64-0.599C3.031,12.748,2.707,12.05,2.936,11.425L2.936,11.425z M2.245,19.156l-0.013-0.079
	c-0.115-0.656,0.326-1.284,0.982-1.399l1.72-0.302c0.656-0.115,1.286,0.326,1.4,0.983l0.014,0.078
	c0.115,0.656-0.327,1.285-0.983,1.4l-1.72,0.302C2.989,20.255,2.36,19.813,2.245,19.156L2.245,19.156z M5.513,26.198
	c0.428,0.511,1.193,0.578,1.704,0.15l1.339-1.12c0.511-0.428,0.579-1.194,0.151-1.705l-0.051-0.061
	c-0.428-0.511-1.194-0.579-1.705-0.151l-1.338,1.121c-0.511,0.428-0.579,1.192-0.151,1.705L5.513,26.198L5.513,26.198z
	 M11.864,30.662l-0.075-0.027c-0.625-0.229-0.95-0.926-0.721-1.552l0.599-1.64c0.229-0.626,0.926-0.95,1.552-0.722l0.075,0.027
	c0.626,0.229,0.95,0.925,0.721,1.552l-0.599,1.641C13.187,30.566,12.49,30.891,11.864,30.662L11.864,30.662z M28.523,6.96
	c-0.427-0.511-1.193-0.579-1.704-0.151L25.48,7.93c-0.511,0.428-0.579,1.193-0.151,1.704l0.051,0.062
	c0.428,0.511,1.193,0.579,1.704,0.151l1.339-1.121c0.511-0.428,0.579-1.193,0.151-1.704L28.523,6.96L28.523,6.96z M22.173,2.495
	l0.075,0.028c0.626,0.229,0.95,0.926,0.722,1.551l-0.599,1.64c-0.229,0.626-0.926,0.951-1.552,0.723l-0.075-0.028
	c-0.626-0.228-0.95-0.925-0.721-1.552l0.599-1.64C20.85,2.591,21.547,2.267,22.173,2.495z"/>
</svg>
