<?xml version="1.0" encoding="iso-8859-1"?>
<!-- Generator: Adobe Illustrator 17.1.0, SVG Export Plug-In . SVG Version: 6.00 Build 0)  -->
<!DOCTYPE svg PUBLIC "-//W3C//DTD SVG 1.1//EN" "http://www.w3.org/Graphics/SVG/1.1/DTD/svg11.dtd">
<svg version="1.1" id="co_x5F_baby" xmlns="http://www.w3.org/2000/svg" xmlns:xlink="http://www.w3.org/1999/xlink" x="0px"
	 y="0px" viewBox="0 0 40 40" style="enable-background:new 0 0 40 40;" xml:space="preserve">
<path fill="#0D47A1" d="M34.044,10.364c1.869-0.688,3.158-1.924,2.929-2.891c-0.247-1.044-2.162-1.37-4.277-0.729
	c-0.446,0.136-0.857,0.308-1.239,0.499c-1.405-2.807-4.48-4.632-7.929-4.148c-3.313,0.466-5.997,3.16-6.454,6.475
	c-0.251,1.818,0.143,3.53,0.982,4.95c0.588,0.995,0.458,2.276-0.279,3.167c-0.73,0.883-1.671,1.423-2.543,1.612
	c-2.399,0.521-4.525-0.092-5.641-0.834c-0.513-0.341-0.804-0.928-1.416-1.123c-1.61-0.512-3.504,0.592-4.231,2.467
	c-0.119,0.372-0.763,1.674-0.763,3.86c-0.001,6.936,7.114,12.558,15.892,12.559c8.778,0.001,15.894-5.62,15.895-12.556
	c0-2.833-1.193-5.443-3.198-7.543c-0.514-0.539-0.683-1.344-0.34-2.005c0.09-0.174,0.174-0.352,0.25-0.534
	c0.32,0.146,0.654,0.283,1.015,0.392c2.115,0.642,4.03,0.316,4.278-0.728C37.201,12.288,35.913,11.053,34.044,10.364z
	 M24.633,12.725c-1.145,0-2.073-0.928-2.073-2.073c0-1.145,0.928-2.073,2.073-2.073c1.145,0,2.073,0.928,2.073,2.073
	C26.705,11.797,25.778,12.725,24.633,12.725z"/>
</svg>
