<?xml version="1.0" encoding="iso-8859-1"?>
<!-- Generator: Adobe Illustrator 16.0.2, SVG Export Plug-In . SVG Version: 6.00 Build 0)  -->
<!DOCTYPE svg PUBLIC "-//W3C//DTD SVG 1.1//EN" "http://www.w3.org/Graphics/SVG/1.1/DTD/svg11.dtd">
<svg version="1.1" id="co_x5F_food_x5F_1" xmlns="http://www.w3.org/2000/svg" xmlns:xlink="http://www.w3.org/1999/xlink" x="0px"
	 y="0px" width="40px" height="40px" viewBox="0 0 40 40" style="enable-background:new 0 0 40 40;" xml:space="preserve">
<path fill="#0D47A1" style="fill-rule:evenodd;clip-rule:evenodd;" d="M21.07,34.244c-4.475,4.475-11.977,5.132-16.195,0.912
	c-4.221-4.22-3.811-11.472,0.912-16.196c3.676-3.676,9.686-6.117,14.354-9.274c1.436-0.969,1.902-0.2,6.381-0.832
	c-0.547,2.549-0.285,3.512,0.014,4.649c0.865,0.341,3.611,0.6,4.822,0.198c-1.316,3.371,0.121,4.613-1.01,6.212
	C27.35,24.149,24.893,30.422,21.07,34.244L21.07,34.244z M35.146,3.327c-0.787,0.195-2.045,0.767-2.789,1.888
	c-0.076-2.031-7.205-5.432-9.953,1.748c-0.303,0.351,4.234,0.582,7.35-0.542c-0.248,0.172-0.494,0.371-0.729,0.595
	c-1.35,1.285-0.85,4.265-0.623,4.499s3.334,0.815,4.682-0.47c0.234-0.224,0.443-0.459,0.627-0.696
	c-1.018,3.447-1.154,7.489-0.65,7.271c8.453-3.678,3.941-9.221,1.742-9.739c1.189-0.879,1.871-2.197,1.977-3.04
	S35.934,3.132,35.146,3.327z"/>
</svg>
