<?xml version="1.0" encoding="iso-8859-1"?>
<!-- Generator: Adobe Illustrator 16.0.2, SVG Export Plug-In . SVG Version: 6.00 Build 0)  -->
<!DOCTYPE svg PUBLIC "-//W3C//DTD SVG 1.1//EN" "http://www.w3.org/Graphics/SVG/1.1/DTD/svg11.dtd">
<svg version="1.1" id="co_x5F_finance" xmlns="http://www.w3.org/2000/svg" xmlns:xlink="http://www.w3.org/1999/xlink" x="0px"
	 y="0px" viewBox="0 0 40 40" style="enable-background:new 0 0 40 40;" xml:space="preserve">
<path fill="#0D47A1" style="fill-rule:evenodd;clip-rule:evenodd;" d="M35.886,36.986h-3.799c-0.605,0-1.1-0.494-1.1-1.1V5.193
	c0-1.211,0.988-2.2,2.199-2.2h1.6c1.212,0,2.199,0.989,2.199,2.2v30.693C36.985,36.492,36.491,36.986,35.886,36.986z M28.888,36.986
	h-3.799c-0.606,0-1.1-0.494-1.1-1.1V12.192c0-1.212,0.987-2.2,2.199-2.2h1.599c1.212,0,2.2,0.988,2.2,2.2v23.694
	C29.987,36.492,29.493,36.986,28.888,36.986z M21.889,36.986H18.09c-0.235,0-0.453-0.074-0.633-0.201
	c-0.282-0.2-0.467-0.528-0.467-0.898V19.19c0-0.509,0.174-0.979,0.467-1.352c0.402-0.515,1.03-0.848,1.732-0.848h1.6
	c1.212,0,2.2,0.988,2.2,2.2v16.696C22.989,36.492,22.495,36.986,21.889,36.986z M15.994,14.838c-1.094,0-1.989-0.896-1.989-1.989
	V9.796l-6.448,6.449c-0.773,0.773-2.039,0.773-2.813,0c-0.774-0.773-0.774-2.04,0-2.813l6.448-6.449H8.139
	c-1.094,0-1.988-0.895-1.988-1.989s0.895-1.989,1.988-1.989c0,0,6.645-0.003,7.855-0.003c1.246,0,1.992,0.814,1.992,1.992
	c0,2.627,0.025,7.855,0.025,7.855C18.012,13.476,17.467,14.838,15.994,14.838z M6.792,30.988c1.212,0,2.2,0.988,2.2,2.199v2.699
	c0,0.605-0.494,1.1-1.1,1.1H4.094c-0.606,0-1.101-0.494-1.101-1.1v-2.699c0-1.211,0.988-2.199,2.2-2.199H6.792z M12.191,23.989h1.6
	c1.211,0,2.199,0.989,2.199,2.2v9.702c0,0.606-0.494,1.101-1.1,1.101h-3.799c-0.605,0-1.1-0.494-1.1-1.101v-9.702
	C9.992,24.978,10.98,23.989,12.191,23.989z"/>
</svg>
