<?xml version="1.0" encoding="iso-8859-1"?>
<!-- Generator: Adobe Illustrator 16.0.2, SVG Export Plug-In . SVG Version: 6.00 Build 0)  -->
<!DOCTYPE svg PUBLIC "-//W3C//DTD SVG 1.1//EN" "http://www.w3.org/Graphics/SVG/1.1/DTD/svg11.dtd">
<svg version="1.1" id="co_x5F_work" xmlns="http://www.w3.org/2000/svg" xmlns:xlink="http://www.w3.org/1999/xlink" x="0px"
	 y="0px" viewBox="0 0 40 40" style="enable-background:new 0 0 40 40;" xml:space="preserve">
<path fill="#0D47A1" style="fill-rule:evenodd;clip-rule:evenodd;" d="M16.402,1.969h15.196c2.423,0,4.399,1.977,4.399,4.4v27.224
	c0,2.423-1.976,4.4-4.399,4.4H16.402c-2.423,0-4.399-1.977-4.399-4.4v-3.599h4v2.899c0,0.606,0.494,1.1,1.099,1.1h13.797
	c0.605,0,1.1-0.494,1.1-1.1V7.068c0-0.606-0.494-1.1-1.1-1.1H17.102c-0.605,0-1.099,0.494-1.099,1.1v2.899h-4V6.369
	C12.003,3.946,13.979,1.969,16.402,1.969L16.402,1.969z M21.076,21.486c0.024-0.022,0.048-0.044,0.072-0.068l0,0
	c0.338-0.337,0.527-0.771,0.568-1.215l0.001-0.017l0.002-0.031l0.001-0.013l0.001-0.022v-0.003l0-0.004v-0.005l0.002-0.041v-0.001
	v-0.005l0-0.042v-0.002v-0.003l0-0.042v-0.005v0l-0.002-0.042c-0.021-0.478-0.213-0.947-0.575-1.31l0,0
	c-0.028-0.028-0.057-0.055-0.085-0.081l-5.447-5.447c-0.771-0.77-2.031-0.77-2.8,0l0,0c-0.77,0.77-0.77,2.031,0,2.8l2.15,2.119
	H5.885c-1.089,0-1.98,0.923-1.98,2.012l0,0c0,1.089,0.891,1.98,1.98,1.98h9.08l-2.15,2.15c-0.77,0.77-0.77,2.03,0,2.801l0,0
	c0.77,0.77,2.03,0.77,2.801,0L21.076,21.486L21.076,21.486z"/>
</svg>
