<?xml version="1.0" encoding="iso-8859-1"?>
<!-- Generator: Adobe Illustrator 16.0.2, SVG Export Plug-In . SVG Version: 6.00 Build 0)  -->
<!DOCTYPE svg PUBLIC "-//W3C//DTD SVG 1.1//EN" "http://www.w3.org/Graphics/SVG/1.1/DTD/svg11.dtd">
<svg version="1.1" id="co_x5F_navigation" xmlns="http://www.w3.org/2000/svg" xmlns:xlink="http://www.w3.org/1999/xlink" x="0px"
	 y="0px" viewBox="0 0 40 40" style="enable-background:new 0 0 40 40;" xml:space="preserve">
<path fill="#0D47A1" style="fill-rule:evenodd;clip-rule:evenodd;" d="M34.694,8.009h-5.938c-1.212,0-2.255,0.432-3.111,1.288l-7.645,7.646v-4.161
	c0-0.936-0.537-1.753-1.319-2.154c1.582-0.5,2.729-1.98,2.729-3.728c0-2.157-1.751-3.908-3.909-3.908
	c-2.157,0-3.908,1.751-3.908,3.908c0,1.748,1.147,3.228,2.729,3.728c-0.783,0.401-1.32,1.217-1.32,2.154v9.159l-3.421,3.42
	c-0.428,0.428-0.949,0.645-1.555,0.645H5.271c-1.818,0-3.301,1.482-3.301,3.299v2.399c0,1.817,1.482,3.3,3.301,3.3h5.844
	c1.211,0,2.254-0.432,3.111-1.289l5.709-5.709l10.354-10.354c0.428-0.428,0.949-0.645,1.556-0.645h2.85c1.817,0,3.3-1.482,3.3-3.3
	v-2.398C37.994,9.49,36.512,8.009,34.694,8.009z M35.008,13.33c0,0.363-0.296,0.66-0.659,0.66h-3.78
	c-0.605,0-1.127,0.215-1.555,0.644L12.306,31.342c-0.428,0.428-0.949,0.644-1.555,0.644H5.648c-0.363,0-0.66-0.296-0.66-0.66V29.65
	c0-0.363,0.296-0.66,0.66-0.66h3.654c0.605,0,1.127-0.216,1.556-0.645l16.707-16.708c0.429-0.428,0.949-0.644,1.556-0.644h5.228
	c0.363,0,0.659,0.297,0.659,0.66V13.33z"/>
</svg>
