<?xml version="1.0" encoding="iso-8859-1"?>
<!-- Generator: Adobe Illustrator 16.0.2, SVG Export Plug-In . SVG Version: 6.00 Build 0)  -->
<!DOCTYPE svg PUBLIC "-//W3C//DTD SVG 1.1//EN" "http://www.w3.org/Graphics/SVG/1.1/DTD/svg11.dtd">
<svg version="1.1" id="co_x5F_medicine" xmlns="http://www.w3.org/2000/svg" xmlns:xlink="http://www.w3.org/1999/xlink" x="0px"
	 y="0px" viewBox="0 0 40 40" style="enable-background:new 0 0 40 40;" xml:space="preserve">
<path fill="#0D47A1" d="M19.502,6.702c0.39,0,0.782,0.018,1.175,0.052c4.486,0.391,8.498,2.962,11.379,5.685c3.024,2.857,4.908,6.232,4.908,7.58
	l-0.002,0.061v0.002l0.002,0.055c0,3.41-7.701,12.439-16.347,13.143c-0.384,0.03-0.756,0.047-1.115,0.047
	c-3.727,0-7.156-1.552-9.963-3.574c-4.522-3.259-7.521-8.21-7.521-9.676c0-1.46,3.001-6.461,7.524-9.757
	C12.35,8.272,15.777,6.702,19.502,6.702L19.502,6.702z M19.489,20.014l-6.33-2.952c-0.43,0.925-0.653,1.932-0.653,2.952
	c0,3.856,3.127,6.983,6.983,6.983s6.984-3.127,6.984-6.983s-3.128-6.984-6.984-6.984c-0.814,0-1.623,0.144-2.388,0.422
	L19.489,20.014L19.489,20.014z M20.277,11.393c-0.254-0.022-0.512-0.033-0.775-0.033c-2.622,0-5.132,1.174-7.232,2.705
	c-3.363,2.451-5.595,5.351-5.595,6.011c0,0.652,2.223,3.495,5.574,5.911c2.106,1.518,4.624,2.683,7.253,2.683
	c0.268,0,0.519-0.01,0.752-0.029c6.905-0.563,12.048-8.121,12.053-8.5c-0.001-0.041-0.001-0.084,0-0.126
	C32.301,19.73,27.164,11.991,20.277,11.393z"/>
</svg>
