<?xml version="1.0" encoding="iso-8859-1"?>
<!-- Generator: Adobe Illustrator 16.0.2, SVG Export Plug-In . SVG Version: 6.00 Build 0)  -->
<!DOCTYPE svg PUBLIC "-//W3C//DTD SVG 1.1//EN" "http://www.w3.org/Graphics/SVG/1.1/DTD/svg11.dtd">
<svg version="1.1" id="co_x5F_building" xmlns="http://www.w3.org/2000/svg" xmlns:xlink="http://www.w3.org/1999/xlink" x="0px"
	 y="0px" viewBox="0 0 40 40" style="enable-background:new 0 0 40 40;" xml:space="preserve">
<path fill="#0D47A1" style="fill-rule:evenodd;clip-rule:evenodd;" d="M4.756,3.009h2.479c0.969,0,1.76,0.791,1.76,1.76v0.8
	c0,0.243-0.198,0.44-0.44,0.44H3.436c-0.243,0-0.44-0.197-0.44-0.44v-0.8C2.996,3.8,3.787,3.009,4.756,3.009L4.756,3.009z
	 M6.655,24.007h1.68c0.364,0,0.66,0.296,0.66,0.66v1.68c0,0.363-0.296,0.66-0.66,0.66h-1.68c-0.363,0-0.66-0.297-0.66-0.66v-1.68
	C5.996,24.303,6.292,24.007,6.655,24.007L6.655,24.007z M30.653,30.006h1.68c0.363,0,0.66,0.297,0.66,0.66v1.68
	c0,0.363-0.297,0.66-0.66,0.66h-1.68c-0.363,0-0.66-0.297-0.66-0.66v-1.68C29.993,30.303,30.29,30.006,30.653,30.006L30.653,30.006z
	 M24.622,30.006h1.68c0.363,0,0.66,0.297,0.66,0.66v1.68c0,0.363-0.296,0.66-0.66,0.66h-1.68c-0.363,0-0.66-0.297-0.66-0.66v-1.68
	C23.962,30.303,24.259,30.006,24.622,30.006L24.622,30.006z M18.654,30.006h1.68c0.363,0,0.66,0.297,0.66,0.66v1.68
	c0,0.363-0.297,0.66-0.66,0.66h-1.68c-0.363,0-0.66-0.297-0.66-0.66v-1.68C17.994,30.303,18.291,30.006,18.654,30.006L18.654,30.006
	z M12.654,30.006h1.68c0.363,0,0.66,0.297,0.66,0.66v1.68c0,0.363-0.297,0.66-0.66,0.66h-1.68c-0.363,0-0.66-0.297-0.66-0.66v-1.68
	C11.995,30.303,12.291,30.006,12.654,30.006L12.654,30.006z M30.653,24.007h1.68c0.363,0,0.66,0.296,0.66,0.66v1.68
	c0,0.363-0.297,0.66-0.66,0.66h-1.68c-0.363,0-0.66-0.297-0.66-0.66v-1.68C29.993,24.303,30.29,24.007,30.653,24.007L30.653,24.007z
	 M24.622,24.007h1.68c0.363,0,0.66,0.296,0.66,0.66v1.68c0,0.363-0.297,0.66-0.66,0.66h-1.68c-0.363,0-0.66-0.297-0.66-0.66v-1.68
	C23.962,24.303,24.259,24.007,24.622,24.007L24.622,24.007z M18.654,24.007h1.68c0.363,0,0.66,0.296,0.66,0.66v1.68
	c0,0.363-0.297,0.66-0.66,0.66h-1.68c-0.363,0-0.66-0.297-0.66-0.66v-1.68C17.994,24.303,18.291,24.007,18.654,24.007L18.654,24.007
	z M12.654,24.007h1.68c0.363,0,0.66,0.296,0.66,0.66v1.68c0,0.363-0.297,0.66-0.66,0.66h-1.68c-0.363,0-0.66-0.297-0.66-0.66v-1.68
	C11.995,24.303,12.291,24.007,12.654,24.007L12.654,24.007z M6.655,30.006h1.68c0.364,0,0.66,0.297,0.66,0.66v1.68
	c0,0.363-0.296,0.66-0.66,0.66h-1.68c-0.363,0-0.66-0.297-0.66-0.66v-1.68C5.996,30.303,6.292,30.006,6.655,30.006L6.655,30.006z
	 M9.721,17.294c-0.134,0.114-0.31,0.138-0.47,0.064s-0.256-0.224-0.256-0.399V8.448c0-0.242-0.198-0.44-0.44-0.44H3.436
	c-0.243,0-0.44,0.198-0.44,0.44c0,8.785,0,17.571,0,26.357c0,1.212,0.989,2.2,2.2,2.2h28.596c1.212,0,2.2-0.988,2.2-2.2
	c0-7.471,0-14.941,0-22.411c0-0.439-0.24-0.815-0.639-1c-0.398-0.184-0.841-0.122-1.175,0.163l-6.454,5.83
	c-0.134,0.114-0.311,0.138-0.47,0.065c-0.159-0.074-0.256-0.225-0.256-0.4v-4.658c0-0.439-0.24-0.815-0.639-1
	c-0.398-0.184-0.841-0.122-1.175,0.163l-6.486,5.83c-0.133,0.114-0.31,0.138-0.47,0.065c-0.16-0.074-0.256-0.225-0.256-0.4v-4.658
	c0-0.439-0.24-0.815-0.639-1c-0.399-0.184-0.841-0.122-1.175,0.163L9.721,17.294z"/>
</svg>
