<?xml version="1.0" encoding="iso-8859-1"?>
<!-- Generator: Adobe Illustrator 16.0.2, SVG Export Plug-In . SVG Version: 6.00 Build 0)  -->
<!DOCTYPE svg PUBLIC "-//W3C//DTD SVG 1.1//EN" "http://www.w3.org/Graphics/SVG/1.1/DTD/svg11.dtd">
<svg version="1.1" id="co_x5F_food_x5F_2" xmlns="http://www.w3.org/2000/svg" xmlns:xlink="http://www.w3.org/1999/xlink" x="0px"
	 y="0px" viewBox="0 0 40 40" style="enable-background:new 0 0 40 40;" xml:space="preserve">
<path fill="#0D47A1" style="fill-rule:evenodd;clip-rule:evenodd;" d="M25.757,11.731c6.981,1.133,12.338,7.379,12.338,8.821
	s-5.356,7.688-12.336,8.82c-1.269,1.27-3.462,2.917-6.31,4.439c-0.317,0.168-0.67,0.159-0.977-0.024
	c-0.306-0.185-0.48-0.491-0.48-0.85v-4.523c-3.237-1.301-5.879-3.484-7.416-5.282c-0.179-0.21-0.409-0.325-0.684-0.345
	s-0.517,0.063-0.723,0.245c-1.277,1.124-3.139,2.445-5.438,3.688c-0.344,0.186-0.736,0.16-1.053-0.069
	c-0.315-0.229-0.463-0.596-0.392-0.979c0.3-1.639,0.936-3.26,1.603-4.593c0.138-0.277,0.143-0.572,0.015-0.854
	c-0.662-1.455-1.296-3.159-1.604-4.781c-0.073-0.385,0.072-0.753,0.389-0.983c0.315-0.231,0.711-0.258,1.056-0.072
	c2.294,1.242,4.151,2.56,5.424,3.683c0.208,0.182,0.45,0.264,0.725,0.244s0.504-0.135,0.683-0.344
	c1.538-1.799,4.18-3.982,7.417-5.283V8.167c0-0.357,0.175-0.665,0.48-0.85c0.307-0.184,0.659-0.192,0.977-0.023
	C22.297,8.815,24.488,10.462,25.757,11.731L25.757,11.731z M30.1,18.553c-1.104,0-1.999,0.896-1.999,2
	c0,1.104,0.896,1.999,1.999,1.999s1.999-0.895,1.999-1.999C32.099,19.449,31.203,18.553,30.1,18.553z"/>
</svg>
