<?xml version="1.0" encoding="iso-8859-1"?>
<!-- Generator: Adobe Illustrator 16.0.2, SVG Export Plug-In . SVG Version: 6.00 Build 0)  -->
<!DOCTYPE svg PUBLIC "-//W3C//DTD SVG 1.1//EN" "http://www.w3.org/Graphics/SVG/1.1/DTD/svg11.dtd">
<svg version="1.1" id="co_x5F_symbols" xmlns="http://www.w3.org/2000/svg" xmlns:xlink="http://www.w3.org/1999/xlink" x="0px"
	 y="0px" width="40px" height="40px" viewBox="0 0 40 40" style="enable-background:new 0 0 40 40;" xml:space="preserve">
<path fill="#0D47A1" style="fill-rule:evenodd;clip-rule:evenodd;" d="M20.258,1.975c1.943-0.002,3.04,1.799,3.076,2.763
	c0.525-0.505,2.744-1.07,4.119,0.303c1.375,1.373,0.877,3.422,0.222,4.128c0.729,0.016,2.697,1.184,2.698,3.127
	c0.002,1.943-1.799,3.039-2.762,3.076c0.505,0.526,1.069,2.743-0.303,4.119c-1.372,1.375-3.422,0.877-4.129,0.221
	c-0.011,0.539-0.406,1.819-1.395,2.29c0.859,1.547,1.1,2.937,1.005,4.144c2.523-2.594,6.371-3.376,9.378-2.836
	c-0.636,4.691-5.365,9.246-10.98,7.446c-0.752,1.657-1.302,3.369-0.009,5.603c0.642,1.678-1.733,2.483-2.607,1.076
	c-0.82-1.418-1.123-2.65-1.117-3.771c-6.715-0.951-9.913-4.679-9.629-10.24c5.787,0.045,8.594,2.741,9.897,8.417
	c0.255-0.906,0.656-1.757,1.059-2.61c0.89-1.885,1.781-3.88-0.029-6.964c-1.361-0.448-1.744-1.819-1.774-2.616
	c-0.525,0.504-2.744,1.069-4.119-0.303c-1.375-1.373-0.878-3.422-0.222-4.129c-0.729-0.015-2.696-1.184-2.699-3.126
	c-0.001-1.943,1.8-3.04,2.764-3.075c-0.506-0.526-1.071-2.746,0.302-4.12c1.373-1.375,3.422-0.878,4.128-0.222
	C17.146,3.945,18.314,1.977,20.258,1.975L20.258,1.975z M20.155,9.52c-1.476,0-2.673,1.197-2.673,2.673
	c0,1.477,1.197,2.673,2.673,2.673c1.477,0,2.673-1.196,2.673-2.673C22.828,10.717,21.632,9.52,20.155,9.52z"/>
</svg>
