<?xml version="1.0" encoding="iso-8859-1"?>
<!-- Generator: Adobe Illustrator 16.0.2, SVG Export Plug-In . SVG Version: 6.00 Build 0)  -->
<!DOCTYPE svg PUBLIC "-//W3C//DTD SVG 1.1//EN" "http://www.w3.org/Graphics/SVG/1.1/DTD/svg11.dtd">
<svg version="1.1" id="co_x5F_navigation" xmlns="http://www.w3.org/2000/svg" xmlns:xlink="http://www.w3.org/1999/xlink" x="0px"
	 y="0px" viewBox="0 0 40 40" style="enable-background:new 0 0 40 40;" xml:space="preserve">
<path fill="#0D47A1" style="fill-rule:evenodd;clip-rule:evenodd;" d="M24.989,29.674v5.737c0,1.968-1.61,3.578-3.578,3.578h-5.833
	c-1.968,0-3.578-1.61-3.578-3.578v-5.737c-3.835-1.666-6.323-4.776-6.323-8.337c0-4.676,4.448-8.573,10.342-9.443V9.608
	c0-0.847-0.349-1.619-0.91-2.181l0.005-0.006L15.11,7.418c-0.555-0.556-1.328-0.9-2.182-0.9l0,0c-0.848,0-1.62,0.349-2.182,0.91
	c-0.561,0.562-0.91,1.333-0.91,2.181c0,1.377-1.115,2.491-2.491,2.491c-1.375,0-2.49-1.114-2.49-2.491
	c0-2.222,0.908-4.24,2.37-5.702s3.48-2.369,5.703-2.369l0,0c2.156,0,4.125,0.862,5.583,2.261c1.456-1.398,3.426-2.261,5.582-2.261h0
	c2.223,0,4.241,0.907,5.703,2.369s2.37,3.48,2.37,5.702c0,1.377-1.116,2.491-2.491,2.491s-2.49-1.114-2.49-2.491
	c0-0.848-0.349-1.619-0.91-2.181s-1.334-0.91-2.182-0.91h0c-0.854,0-1.626,0.345-2.181,0.9l-0.005,0.004l0.005,0.006
	C21.35,7.989,21,8.762,21,9.608v2.285c5.895,0.87,10.343,4.768,10.343,9.443C31.343,24.897,28.825,28.008,24.989,29.674
	L24.989,29.674z M21,16.381v4.966c0,1.375-1.115,2.49-2.49,2.49c-1.376,0-2.491-1.115-2.491-2.49v-4.966
	c-2.988,0.71-5.135,2.66-5.135,4.956c0,2.895,3.415,5.242,7.626,5.242c4.21,0,7.625-2.348,7.625-5.242
	C26.136,19.041,23.988,17.091,21,16.381z"/>
</svg>
