<?xml version="1.0" encoding="iso-8859-1"?>
<!-- Generator: Adobe Illustrator 16.0.2, SVG Export Plug-In . SVG Version: 6.00 Build 0)  -->
<!DOCTYPE svg PUBLIC "-//W3C//DTD SVG 1.1//EN" "http://www.w3.org/Graphics/SVG/1.1/DTD/svg11.dtd">
<svg version="1.1" id="co_x5F_multimedia" xmlns="http://www.w3.org/2000/svg" xmlns:xlink="http://www.w3.org/1999/xlink" x="0px"
	 y="0px" viewBox="0 0 40 40" style="enable-background:new 0 0 40 40;" xml:space="preserve">
<path fill="#0D47A1" style="fill-rule:evenodd;clip-rule:evenodd;" d="M32.598,5.014H30.76c-0.97,0-1.761,0.791-1.761,1.76v0.479
	c0,0.97,0.791,1.76,1.761,1.76h1.139c0.606,0,1.1,0.494,1.1,1.1v6.245c0,0.155-0.072,0.289-0.203,0.371
	c-0.13,0.083-0.282,0.093-0.422,0.028c-1.025-0.478-2.169-0.745-3.374-0.745c-2.095,0-4.001,0.805-5.427,2.123
	c-0.634,0.586-1.376,0.877-2.24,0.877h-3.665c-0.863,0-1.606-0.291-2.239-0.877c-1.426-1.317-3.333-2.123-5.427-2.123
	c-1.205,0-2.349,0.267-3.374,0.745c-0.14,0.064-0.292,0.055-0.422-0.028c-0.131-0.083-0.204-0.216-0.204-0.371v-6.245
	c0-0.605,0.494-1.1,1.101-1.1H8.24c0.97,0,1.761-0.79,1.761-1.76V6.774c0-0.97-0.791-1.76-1.761-1.76H6.402
	c-2.424,0-4.4,1.976-4.4,4.4c0,4.866,0,9.733,0,14.599c0,4.417,3.582,7.999,7.999,7.999c3.969,0,7.263-2.892,7.892-6.683
	c0.123-0.749,0.759-1.288,1.519-1.288h0.178c0.76,0,1.395,0.54,1.52,1.288c0.627,3.792,3.922,6.683,7.891,6.683
	c4.417,0,7.999-3.582,7.999-7.999c0-4.866,0-9.733,0-14.599C36.998,6.99,35.021,5.014,32.598,5.014z M10.001,28.011
	c-2.209,0-4-1.791-4-3.999c0-2.209,1.791-4,4-4c2.208,0,3.999,1.791,3.999,4C14,26.221,12.209,28.011,10.001,28.011z M28.999,28.011
	c-2.209,0-4-1.791-4-3.999c0-2.209,1.791-4,4-4c2.208,0,3.999,1.791,3.999,4C32.998,26.221,31.207,28.011,28.999,28.011z"/>
</svg>
