<?xml version="1.0" encoding="iso-8859-1"?>
<!-- Generator: Adobe Illustrator 16.0.2, SVG Export Plug-In . SVG Version: 6.00 Build 0)  -->
<!DOCTYPE svg PUBLIC "-//W3C//DTD SVG 1.1//EN" "http://www.w3.org/Graphics/SVG/1.1/DTD/svg11.dtd">
<svg version="1.1" id="co_x5F_food_x5F_1" xmlns="http://www.w3.org/2000/svg" xmlns:xlink="http://www.w3.org/1999/xlink" x="0px"
	 y="0px" width="40px" height="40px" viewBox="0 0 40 40" style="enable-background:new 0 0 40 40;" xml:space="preserve">
<path fill="#0D47A1" style="fill-rule:evenodd;clip-rule:evenodd;" d="M30.355,7.658c-8.717,5.481-16.3,12.106-22.683,19.294
	c-0.162,0.183-0.403,0.363-0.624,0.254c-2.313-1.142-2.98-5.243-0.308-3.687c-3.572-5.805-0.979-6.835,0.43-5.133
	c-1.267-7.095,2.396-5.859,2.575-4.294c0.151-7.175,3.87-5.377,3.732-3.587c3.225-7.162,5.417-4.78,5.39-3.081
	C22.336,1.438,24.115,4.709,24,5.676c5.859-5.526,6.367-1.972,6.23-1.261C37.043,0.071,38.969,2,34.754,8.938
	c1.41-0.524,4.643,1.234-1.262,6.229c0.881-0.343,5.184,1.714-1.748,5.132c1.354-0.157,5.045,2.898-3.082,5.389
	c1.268-0.179,6.094,3.684-3.588,3.733c1.863,0.25,3.439,4.555-4.293,2.576c2.189,0.751,1.822,5.441-5.133,0.429
	c1.192,0.788,0.186,5.326-4.078-0.508c-1.348,1.38-2.097,1.981-3.167,4.666c-1.062,2.65-5.464,1.334-4.034-0.955
	c1.998-2.907,6.005-9.183,26.557-27.303C31.66,7.681,30.898,7.317,30.355,7.658z"/>
</svg>
