<?xml version="1.0" encoding="iso-8859-1"?>
<!-- Generator: Adobe Illustrator 16.0.2, SVG Export Plug-In . SVG Version: 6.00 Build 0)  -->
<!DOCTYPE svg PUBLIC "-//W3C//DTD SVG 1.1//EN" "http://www.w3.org/Graphics/SVG/1.1/DTD/svg11.dtd">
<svg version="1.1" id="co_x5F_symbols" xmlns="http://www.w3.org/2000/svg" xmlns:xlink="http://www.w3.org/1999/xlink" x="0px"
	 y="0px" width="40px" height="40px" viewBox="0 0 40 40" style="enable-background:new 0 0 40 40;" xml:space="preserve">
<path fill="#0D47A1" style="fill-rule:evenodd;clip-rule:evenodd;" d="M19.975,37.993c-9.937,0-17.996-8.059-17.996-17.997
	C1.979,10.06,10.038,2,19.975,2s17.996,8.06,17.996,17.997C37.971,29.934,29.912,37.993,19.975,37.993z M18.04,31.264
	c0.455,0.444,0.988,0.666,1.601,0.666c0.634,0,1.163-0.216,1.585-0.649s0.634-0.967,0.634-1.601c0-0.634-0.211-1.168-0.634-1.6
	c-0.422-0.434-0.951-0.65-1.585-0.65c-0.633,0-1.173,0.216-1.616,0.65c-0.444,0.432-0.666,0.966-0.666,1.6
	C17.359,30.292,17.586,30.819,18.04,31.264z M25.029,9.742c-1.374-1.162-3.085-1.743-5.135-1.743c-1.311,0-2.557,0.301-3.74,0.904
	c-1.184,0.602-2.103,1.453-2.757,2.552c-0.402,0.676-0.603,1.352-0.603,2.028c0,0.529,0.164,0.967,0.492,1.315
	c0.327,0.349,0.745,0.522,1.251,0.522c0.592,0,1.109-0.306,1.553-0.919c0.845-1.141,1.268-1.711,1.268-1.711
	c0.613-0.613,1.426-0.919,2.44-0.919c0.866,0,1.59,0.238,2.171,0.712c0.581,0.476,0.872,1.147,0.872,2.014
	c0,0.993-0.306,1.764-0.919,2.313c-0.444,0.402-1.205,0.771-2.282,1.109c-0.803,0.254-1.336,0.512-1.601,0.776
	s-0.396,0.661-0.396,1.188v3.169c0,0.635,0.169,1.163,0.507,1.585c0.338,0.422,0.814,0.634,1.426,0.634
	c0.993,0,1.617-0.486,1.87-1.458c0.085-0.339,0.127-1.204,0.127-2.599c1.733-0.339,3.101-1.083,4.104-2.235
	c1.004-1.15,1.506-2.604,1.506-4.358C27.185,12.616,26.466,10.989,25.029,9.742z"/>
</svg>
