<?xml version="1.0" encoding="iso-8859-1"?>
<!-- Generator: Adobe Illustrator 16.0.2, SVG Export Plug-In . SVG Version: 6.00 Build 0)  -->
<!DOCTYPE svg PUBLIC "-//W3C//DTD SVG 1.1//EN" "http://www.w3.org/Graphics/SVG/1.1/DTD/svg11.dtd">
<svg version="1.1" id="co_x5F_culture" xmlns="http://www.w3.org/2000/svg" xmlns:xlink="http://www.w3.org/1999/xlink" x="0px"
	 y="0px" viewBox="0 0 40 40" style="enable-background:new 0 0 40 40;" xml:space="preserve">
<path fill="#ffffff" style="fill-rule:evenodd;clip-rule:evenodd;" d="M7.982,2.011h22.034c1.091,0,1.98,0.889,1.98,1.979v0.036
	c0,1.09-0.889,1.979-1.98,1.979h-1.02v3h3.599c2.423,0,4.399,1.977,4.399,4.399v3.199c0,2.423-1.976,4.398-4.399,4.398h-3.785
	c-0.737,3.057-3.571,5.001-6.812,5.001V29.8c0,1.212,0.988,2.2,2.2,2.2h1.819c1.09,0,1.979,0.89,1.979,1.979v0.044
	c0,1.091-0.889,1.979-1.979,1.979H11.981c-1.091,0-1.98-0.889-1.98-1.979l0-0.044c0-1.09,0.889-1.979,1.979-1.979H13.8
	c1.211,0,2.2-0.988,2.2-2.2v-3.795c-3.242,0-6.076-1.944-6.812-5.003H5.403c-2.423,0-4.399-1.976-4.399-4.398v-3.199
	c0-2.423,1.977-4.399,4.399-4.399h3.599v-3H7.982c-1.091,0-1.98-0.889-1.98-1.979V3.99C6.002,2.899,6.892,2.011,7.982,2.011
	L7.982,2.011z M19.598,9.809C19.487,9.571,19.262,9.428,19,9.427c-0.263,0-0.488,0.145-0.598,0.382l-1.259,2.706l-2.962,0.361
	c-0.261,0.032-0.467,0.201-0.548,0.451c-0.082,0.25-0.015,0.508,0.178,0.688l2.185,2.033l-0.572,2.928
	c-0.05,0.259,0.047,0.507,0.26,0.661c0.212,0.154,0.479,0.17,0.708,0.043L19,18.229l2.608,1.45c0.229,0.127,0.496,0.111,0.708-0.043
	c0.213-0.155,0.311-0.403,0.26-0.661l-0.572-2.928l2.185-2.034c0.193-0.179,0.259-0.438,0.178-0.687
	c-0.081-0.25-0.287-0.42-0.547-0.451l-2.962-0.361L19.598,9.809L19.598,9.809z M28.997,13.004v3.999h3.119
	c0.485,0,0.88-0.395,0.88-0.879v-2.24c0-0.484-0.395-0.88-0.88-0.88H28.997L28.997,13.004z M9.002,17.003v-3.999h-3.12
	c-0.485,0-0.879,0.396-0.879,0.88l0,2.24c0,0.484,0.395,0.879,0.88,0.879H9.002z"/>
</svg>
