<?xml version="1.0" encoding="iso-8859-1"?>
<!-- Generator: Adobe Illustrator 16.0.2, SVG Export Plug-In . SVG Version: 6.00 Build 0)  -->
<!DOCTYPE svg PUBLIC "-//W3C//DTD SVG 1.1//EN" "http://www.w3.org/Graphics/SVG/1.1/DTD/svg11.dtd">
<svg version="1.1" id="co_x5F_building" xmlns="http://www.w3.org/2000/svg" xmlns:xlink="http://www.w3.org/1999/xlink" x="0px"
	 y="0px" viewBox="0 0 40 40" style="enable-background:new 0 0 40 40;" xml:space="preserve">
<path fill="#0D47A1" style="fill-rule:evenodd;clip-rule:evenodd;" d="M24.938,8.792V8.448c0-0.242,0.197-0.44,0.439-0.44h6.294
	c0.727,0,1.319,0.594,1.319,1.321v7.756l1.49,1.622c0.328,0.34,0.492,0.747,0.492,1.22v2.728c0,0.724-0.586,1.314-1.31,1.319
	l-0.69,0.006v10.698c0,0.728-0.593,1.32-1.32,1.32c-8.104,0-16.209-0.004-24.313-0.004c-0.727,0-1.32-0.593-1.32-1.32V23.979
	l-0.688-0.004c-0.725-0.004-1.312-0.596-1.312-1.32v-2.732c0-0.474,0.164-0.881,0.493-1.223L18.564,4.145
	c0.259-0.268,0.579-0.403,0.951-0.403s0.692,0.137,0.95,0.404L24.938,8.792L24.938,8.792z M22.998,32.576
	c0,0.242,0.197,0.439,0.439,0.44l5.896,0.001c0.363,0,0.66-0.297,0.66-0.66V22.67c0-0.362,0.293-0.657,0.655-0.66l0.689-0.005
	c0.362-0.003,0.654-0.298,0.654-0.66v-1.329L19.83,7.342c-0.086-0.09-0.192-0.135-0.316-0.135s-0.231,0.045-0.316,0.134
	L6.999,20.012v1.332c0,0.361,0.294,0.657,0.656,0.659l0.688,0.005c0.362,0.002,0.656,0.298,0.656,0.66v9.686
	c0,0.363,0.297,0.66,0.659,0.66h5.899c0.243,0,0.44-0.197,0.44-0.439v-6.676c0-0.484,0.396-0.88,0.88-0.88h5.24
	c0.484,0,0.88,0.396,0.88,0.88V32.576L22.998,32.576z M20.559,29.028h-0.12c-0.243,0-0.44,0.198-0.44,0.44v1.12
	c0,0.242,0.197,0.439,0.44,0.439h0.12c0.242,0,0.439-0.197,0.439-0.439v-1.12C20.998,29.227,20.801,29.028,20.559,29.028
	L20.559,29.028z M16.892,14.988c-0.484,0-0.88,0.396-0.88,0.88v1.209c0,0.484,0.396,0.879,0.88,0.879h1.223
	c0.484,0,0.88-0.395,0.88-0.879v-1.209c0-0.484-0.396-0.88-0.88-0.88H16.892L16.892,14.988z M20.874,14.988
	c-0.485,0-0.88,0.396-0.88,0.88v1.209c0,0.484,0.395,0.879,0.88,0.879h1.257c0.484,0,0.88-0.395,0.88-0.879v-1.209
	c0-0.484-0.396-0.88-0.88-0.88H20.874L20.874,14.988z M23.011,19.868c0-0.485-0.396-0.88-0.88-0.88h-1.257
	c-0.485,0-0.88,0.395-0.88,0.88v1.208c0,0.484,0.395,0.88,0.88,0.88h1.257c0.484,0,0.88-0.396,0.88-0.88V19.868L23.011,19.868z
	 M18.114,21.956c0.484,0,0.88-0.396,0.88-0.88v-1.209c0-0.484-0.396-0.88-0.88-0.88h-1.223c-0.484,0-0.88,0.396-0.88,0.88v1.209
	c0,0.484,0.396,0.88,0.88,0.88H18.114L18.114,21.956z M27.357,10.988c-0.242,0-0.44,0.198-0.44,0.44v0.602l3.094,3.063v-3.664
	c0-0.242-0.198-0.44-0.44-0.44H27.357z"/>
</svg>
