<?xml version="1.0" encoding="iso-8859-1"?>
<!-- Generator: Adobe Illustrator 16.0.2, SVG Export Plug-In . SVG Version: 6.00 Build 0)  -->
<!DOCTYPE svg PUBLIC "-//W3C//DTD SVG 1.1//EN" "http://www.w3.org/Graphics/SVG/1.1/DTD/svg11.dtd">
<svg version="1.1" id="co_x5F_building" xmlns="http://www.w3.org/2000/svg" xmlns:xlink="http://www.w3.org/1999/xlink" x="0px"
	 y="0px" viewBox="0 0 40 40" style="enable-background:new 0 0 40 40;" xml:space="preserve">
<path fill="#0D47A1" style="fill-rule:evenodd;clip-rule:evenodd;" d="M35.159,34.728L22.83,12.999c-0.236-0.414-0.455-1.01-0.221-1.425
	l3.541-6.275c0.719-1.33-1.068-2.23-1.801-1.014l-3.34,5.646V3.117c0-1.411-2.038-1.502-2.038,0v6.77l-3.286-5.602
	c-0.787-1.322-2.501-0.233-1.83,0.982l3.526,6.251c0.234,0.417,0.046,1.045-0.191,1.46L4.768,34.722
	c-0.4,0.7-0.397,1.498,0.007,2.195s1.097,1.097,1.902,1.097h26.568c0.806,0,1.496-0.397,1.902-1.093
	C35.552,36.225,35.557,35.428,35.159,34.728z M25.061,35.577c-0.162,0.278-0.438,0.437-0.76,0.437h-8.666
	c-0.321,0-0.598-0.158-0.76-0.437s-0.164-0.598-0.006-0.878l4.333-7.646c0.161-0.283,0.439-0.446,0.766-0.446
	s0.605,0.163,0.766,0.446l4.333,7.646C25.226,34.979,25.224,35.299,25.061,35.577z"/>
</svg>
