<?xml version="1.0" encoding="iso-8859-1"?>
<!-- Generator: Adobe Illustrator 16.0.2, SVG Export Plug-In . SVG Version: 6.00 Build 0)  -->
<!DOCTYPE svg PUBLIC "-//W3C//DTD SVG 1.1//EN" "http://www.w3.org/Graphics/SVG/1.1/DTD/svg11.dtd">
<svg version="1.1" id="co_x5F_mobile" xmlns="http://www.w3.org/2000/svg" xmlns:xlink="http://www.w3.org/1999/xlink" x="0px"
	 y="0px" width="40px" height="40px" viewBox="0 0 40 40" style="enable-background:new 0 0 40 40;" xml:space="preserve">
<path fill="#ffffff" style="fill-rule:evenodd;clip-rule:evenodd;" d="M19.984,3.122c5.4,0,9.78,4.38,9.78,9.781c0,1.29-0.251,2.522-0.706,3.651
	l-9.155,20.483l-8.993-20.483c-0.455-1.128-0.706-2.361-0.706-3.651C10.205,7.502,14.584,3.122,19.984,3.122L19.984,3.122z
	 M19.984,8.635c-2.354,0-4.267,1.914-4.267,4.268c0,2.353,1.913,4.268,4.267,4.268s4.268-1.915,4.268-4.268
	C24.252,10.549,22.338,8.635,19.984,8.635z"/>
</svg>
