<?xml version="1.0" encoding="utf-8"?>
<!-- Generator: Adobe Illustrator 23.0.3, SVG Export Plug-In . SVG Version: 6.00 Build 0)  -->
<svg version="1.1" id="Capa_1" xmlns="http://www.w3.org/2000/svg" xmlns:xlink="http://www.w3.org/1999/xlink" x="0px" y="0px"
	 width="24px" height="24px" viewBox="0 0 23.3 23.3" style="enable-background:new 0 0 23.3 23.3;" xml:space="preserve">
<path fill="#ffffff" d="M15.7,11.7L22,5.4c1-1,1-2.4,0-3.4l-0.9-0.9c-1-1-2.4-1-3.4,0l-6.3,6.3L5.2,1.1c-1-1-2.4-1-3.4,0L1,2c-1,1-1,2.4,0,3.4
	l6.3,6.3L1,18c-1,1-1,2.4,0,3.4l0.9,0.9c1,1,2.4,1,3.4,0l6.3-6.3l6.3,6.3c1,1,2.4,1,3.4,0l0.9-0.9c1-1,1-2.4,0-3.4L15.7,11.7z"/>
</svg>
