<?xml version="1.0" encoding="iso-8859-1"?>
<!-- Generator: Adobe Illustrator 16.0.2, SVG Export Plug-In . SVG Version: 6.00 Build 0)  -->
<!DOCTYPE svg PUBLIC "-//W3C//DTD SVG 1.1//EN" "http://www.w3.org/Graphics/SVG/1.1/DTD/svg11.dtd">
<svg version="1.1" id="co_x5F_basic" xmlns="http://www.w3.org/2000/svg" xmlns:xlink="http://www.w3.org/1999/xlink" x="0px"
	 y="0px" viewBox="0 0 40 40" style="enable-background:new 0 0 40 40;" xml:space="preserve">
<path fill="#0D47A1" style="fill-rule:evenodd;clip-rule:evenodd;" d="M19.984,9.31c5.521,0,9.998,4.477,9.998,9.998c0,3.7-2.012,6.929-4.999,8.658
	v1.049h-9.998v-1.049c-2.987-1.729-4.998-4.958-4.998-8.658C9.987,13.787,14.464,9.31,19.984,9.31L19.984,9.31z M5.325,27.909
	c0.363,0.63,1.174,0.847,1.803,0.482l2.043-1.179c0.63-0.364,0.847-1.174,0.483-1.803l-0.18-0.312
	c-0.364-0.629-1.174-0.846-1.803-0.483l-2.044,1.18c-0.629,0.364-0.846,1.173-0.482,1.803L5.325,27.909L5.325,27.909z
	 M34.764,27.702c0.362-0.629,0.146-1.439-0.483-1.803l-2.043-1.18c-0.63-0.363-1.439-0.146-1.803,0.483l-0.181,0.311
	c-0.362,0.63-0.146,1.44,0.483,1.803l2.044,1.179c0.629,0.364,1.438,0.147,1.803-0.483L34.764,27.702L34.764,27.702z M36.98,19.188
	v0.359c0,0.727-0.593,1.32-1.32,1.32h-2.358c-0.728,0-1.32-0.593-1.32-1.32v-0.359c0-0.727,0.593-1.32,1.32-1.32h2.358
	C36.388,17.868,36.98,18.461,36.98,19.188L36.98,19.188z M34.644,10.706c-0.363-0.629-1.173-0.847-1.803-0.483l-2.043,1.18
	c-0.63,0.363-0.847,1.173-0.483,1.803l0.18,0.311c0.364,0.629,1.174,0.846,1.803,0.483l2.044-1.179
	c0.629-0.364,0.846-1.174,0.482-1.803L34.644,10.706L34.644,10.706z M28.379,4.528c-0.63-0.364-1.439-0.146-1.803,0.482l-1.18,2.044
	c-0.363,0.629-0.147,1.439,0.482,1.803l0.312,0.18c0.63,0.363,1.44,0.147,1.803-0.482l1.181-2.044
	c0.362-0.629,0.146-1.439-0.483-1.803L28.379,4.528L28.379,4.528z M19.864,2.312h0.36c0.727,0,1.319,0.592,1.319,1.319V5.99
	c0,0.728-0.593,1.32-1.319,1.32h-0.36c-0.727,0-1.319-0.593-1.319-1.32V3.631C18.545,2.904,19.138,2.312,19.864,2.312L19.864,2.312z
	 M11.383,4.648c-0.63,0.363-0.848,1.173-0.483,1.803l1.18,2.043c0.364,0.629,1.173,0.846,1.803,0.482l0.312-0.18
	c0.63-0.364,0.847-1.173,0.483-1.803l-1.18-2.043c-0.363-0.629-1.173-0.846-1.803-0.483L11.383,4.648L11.383,4.648z M5.206,10.913
	c-0.364,0.629-0.147,1.439,0.482,1.803l2.043,1.18c0.63,0.363,1.439,0.146,1.803-0.483l0.18-0.311
	c0.364-0.629,0.146-1.44-0.482-1.804l-2.043-1.179c-0.63-0.364-1.439-0.146-1.803,0.482L5.206,10.913L5.206,10.913z M2.988,19.427
	v-0.359c0-0.728,0.593-1.32,1.319-1.32h2.359c0.728,0,1.32,0.593,1.32,1.32v0.359c0,0.727-0.593,1.32-1.32,1.32H4.308
	C3.581,20.748,2.988,20.154,2.988,19.427L2.988,19.427z M15.466,19.099c-0.343,0.343-0.343,0.902,0,1.245l4.374,4.374l4.373-4.374
	c0.343-0.342,0.343-0.901,0-1.245l-0.169-0.169c-0.344-0.343-0.902-0.343-1.244,0l-2.96,2.96l-2.96-2.96
	c-0.343-0.343-0.901-0.343-1.244,0L15.466,19.099L15.466,19.099z M24.983,31.015v2h-9.998v-2H24.983L24.983,31.015z M24.982,35.014
	c-0.005,1.813-1.484,2.978-3.299,2.978h-3.398c-1.814,0-3.294-1.164-3.3-2.978H24.982z"/>
</svg>
