<?xml version="1.0" encoding="utf-8"?>
<!-- Generator: Adobe Illustrator 18.0.0, SVG Export Plug-In . SVG Version: 6.00 Build 0)  -->
<!DOCTYPE svg PUBLIC "-//W3C//DTD SVG 1.1//EN" "http://www.w3.org/Graphics/SVG/1.1/DTD/svg11.dtd">
<svg version="1.1" id="co_x5F_transport" xmlns="http://www.w3.org/2000/svg" xmlns:xlink="http://www.w3.org/1999/xlink" x="0px"
	 y="0px" viewBox="0 230.9 612 321.7" enable-background="new 0 230.9 612 321.7" xml:space="preserve">
<path fill="#ffffff" d="M381.1,492.2h-3.5l25.4,43.7c2.6,3.5-0.9,8.7-5.2,8.7h-25.4c-7.9,0-7.9-17.5-17.5-17.5H250
	c-9.6,0-8.7,17.5-17.5,17.5H208c-4.4,0-7-4.4-5.2-8.7l25.4-43.7h-4.4c-14.9,0-26.2-11.4-26.2-26.2V282.3c0-14.9,11.4-26.2,26.2-26.2
	h36.7c3.5-10.5,13.1-17.5,24.5-17.5h35c11.4,0,21,7,24.5,17.5h36.7c14.9,0,26.2,11.4,26.2,26.2v183.6
	C407.3,480.8,396,492.2,381.1,492.2z M258.7,509.7h87.4c9.6,0,0.9-17.5-8.7-17.5h-69.9C257.8,492.2,249.1,509.7,258.7,509.7z
	 M241.2,448.5c9.6,0,17.5-7.9,17.5-17.5s-7.9-17.5-17.5-17.5s-17.5,7.9-17.5,17.5C223.7,440.6,231.6,448.5,241.2,448.5z
	 M276.2,308.6h-35c-9.6,0-17.5,7.9-17.5,17.5v52.5c0,9.6,7.9,17.5,17.5,17.5h35c9.6,0,17.5-7.9,17.5-17.5v-52.5
	C293.7,316.4,285.8,308.6,276.2,308.6z M302.4,256.1c-9.6,0-17.5,7.9-17.5,17.5s7.9,17.5,17.5,17.5s17.5-7.9,17.5-17.5
	S312,256.1,302.4,256.1z M381.1,326.1c0-9.6-7.9-17.5-17.5-17.5h-35c-9.6,0-17.5,7.9-17.5,17.5v52.5c0,9.6,7.9,17.5,17.5,17.5h35
	c9.6,0,17.5-7.9,17.5-17.5V326.1z M363.6,413.5c-9.6,0-17.5,7.9-17.5,17.5s7.9,17.5,17.5,17.5s17.5-7.9,17.5-17.5
	S373.2,413.5,363.6,413.5z"/>
<path fill="#ffffff" d="M602.3,487.8c-1.7,2.6-4.4,4.4-8.7,4.4h-53.3V521c0,3.5-2.6,6.1-6.1,6.1h-23.6c-3.5,0-6.1-2.6-6.1-6.1v-28.9
	h-53.3c-3.5,0-6.1-1.7-8.7-4.4c-1.7-2.6-1.7-6.1,0-9.6l34.1-64.7h-14.9c-3.5,0-7-1.7-8.7-5.2s-1.7-7,0-9.6l35.8-56h-6.1
	c-3.5,0-7-1.7-8.7-5.2s-1.7-7,0-9.6l40.2-62.1c1.7-2.6,3.5-3.5,6.1-3.5s5.2,0.9,6.1,3.5l40.2,62.1c1.7,2.6,1.7,7,0,9.6
	c-1.7,3.5-5.2,5.2-8.7,5.2h-6.1l35.8,56c1.7,2.6,1.7,7,0,9.6c-1.7,3.5-5.2,5.2-8.7,5.2H564l34.1,64.7
	C604.1,480.8,604.1,484.3,602.3,487.8z"/>
<path fill="#ffffff" d="M168.3,487.8c-1.7,2.6-4.4,4.4-8.7,4.4h-53.3V521c0,3.5-2.6,6.1-6.1,6.1H76.5c-3.5,0-6.1-2.6-6.1-6.1v-28.9
	H17.1c-3.5,0-6.1-1.7-8.7-4.4c-1.7-2.6-1.7-6.1,0-9.6l34.1-64.7h-15c-3.5,0-7-1.7-8.7-5.2s-1.7-7,0-9.6l35.8-56h-6.1
	c-3.5,0-7-1.7-8.7-5.2s-1.7-7,0-9.6L80,265.7c1.7-2.6,3.5-3.5,6.1-3.5s5.2,0.9,6.1,3.5l40.2,62.1c1.7,2.6,1.7,7,0,9.6
	c-1.7,3.5-5.2,5.2-8.7,5.2h-6.1l35.8,56c1.7,2.6,1.7,7,0,9.6c-1.7,3.5-5.2,5.2-8.7,5.2h-14.9l34.1,64.7
	C170.1,480.8,170.1,484.3,168.3,487.8z"/>
</svg>
