<?xml version="1.0" encoding="iso-8859-1"?>
<!-- Generator: Adobe Illustrator 16.0.2, SVG Export Plug-In . SVG Version: 6.00 Build 0)  -->
<!DOCTYPE svg PUBLIC "-//W3C//DTD SVG 1.1//EN" "http://www.w3.org/Graphics/SVG/1.1/DTD/svg11.dtd">
<svg version="1.1" id="co_x5F_mobile" xmlns="http://www.w3.org/2000/svg" xmlns:xlink="http://www.w3.org/1999/xlink" x="0px"
	 y="0px" viewBox="0 0 40 40" style="enable-background:new 0 0 40 40;" xml:space="preserve">
<path fill="#0D47A1" style="fill-rule:evenodd;clip-rule:evenodd;" d="M37.09,2.446c-0.581-0.428-1.265-0.545-1.954-0.333l-8.667,2.667
	c-1.001,0.308-1.955,0.269-2.928-0.121l-7.113-2.845c-0.973-0.389-1.927-0.429-2.929-0.12L3.54,4.758
	C2.602,5.046,1.985,5.88,1.985,6.861v25.393c0,1.475,1.438,2.537,2.848,2.103l8.666-2.667c1.002-0.308,1.956-0.269,2.929,0.121
	l7.113,2.845c0.973,0.39,1.927,0.428,2.928,0.121l9.961-3.065c0.938-0.288,1.553-1.121,1.553-2.102V4.216
	C37.982,3.495,37.67,2.874,37.09,2.446z M13.985,26.874c0,0.396-0.251,0.731-0.631,0.843l-6.239,1.849
	c-0.562,0.166-1.129-0.258-1.129-0.844v-4.459c0-4.511,2.385-10.193,7.999-9.568V26.874z M13.985,12.586
	c-3.286-0.25-6.223,1.017-7.999,3.845V8.56c0-0.396,0.25-0.731,0.63-0.843l6.239-1.849c0.562-0.166,1.13,0.258,1.13,0.844V12.586z
	 M23.983,29.534c0,0.62-0.63,1.047-1.206,0.817l-6.239-2.495c-0.341-0.137-0.554-0.45-0.554-0.817V15.273
	c1.695,0.846,2.755,2.435,3.814,4.022c1.165,1.749,2.332,3.497,4.185,4.558V29.534z M23.983,21.221
	c-0.962-0.858-1.706-1.973-2.449-3.087c-1.429-2.142-2.857-4.285-5.55-5.163V6.936c0-0.62,0.632-1.047,1.207-0.817l6.239,2.495
	c0.341,0.137,0.553,0.45,0.553,0.817V21.221z M33.983,27.911c0,0.396-0.251,0.731-0.63,0.843l-6.239,1.849
	c-0.563,0.167-1.13-0.258-1.13-0.844v-5.123c3.371,0.792,6.248-0.515,7.999-3.57V27.911z M33.983,13.263
	c0,4.323-2.573,11.083-7.999,9.163V9.597c0-0.396,0.25-0.731,0.629-0.844l6.239-1.849c0.563-0.167,1.131,0.257,1.131,0.844V13.263z"
	/>
</svg>
