<?xml version="1.0" encoding="iso-8859-1"?>
<!-- Generator: Adobe Illustrator 16.0.2, SVG Export Plug-In . SVG Version: 6.00 Build 0)  -->
<!DOCTYPE svg PUBLIC "-//W3C//DTD SVG 1.1//EN" "http://www.w3.org/Graphics/SVG/1.1/DTD/svg11.dtd">
<svg version="1.1" id="co_x5F_mobile" xmlns="http://www.w3.org/2000/svg" xmlns:xlink="http://www.w3.org/1999/xlink" x="0px"
	 y="0px" viewBox="0 0 40 40" style="enable-background:new 0 0 40 40;" xml:space="preserve">
<path fill="#0D47A1" style="fill-rule:evenodd;clip-rule:evenodd;" d="M36.482,31.641l-9.104,3.035c-0.941,0.313-1.841,0.313-2.782,0l-9.216-3.072
	c-0.942-0.314-1.841-0.314-2.783,0l-7.711,2.57c-1.419,0.474-2.896-0.591-2.896-2.087V6.728c0-0.963,0.59-1.783,1.504-2.087
	l9.103-3.034c0.942-0.315,1.841-0.315,2.783,0l9.216,3.072c0.941,0.313,1.841,0.313,2.782,0l7.712-2.571
	c1.419-0.473,2.896,0.592,2.896,2.087v25.359C37.987,30.518,37.396,31.336,36.482,31.641z M33.986,8.002
	c0-0.748-0.738-1.279-1.447-1.043l-5.16,1.72c-0.941,0.314-1.841,0.314-2.782,0L15.38,5.606c-0.942-0.314-1.841-0.314-2.783,0
	L6.742,7.558C6.285,7.71,5.99,8.12,5.99,8.602v19.679c0,0.748,0.738,1.28,1.448,1.043l5.16-1.72c0.942-0.313,1.841-0.313,2.783,0
	l9.216,3.072c0.941,0.313,1.841,0.313,2.782,0l5.856-1.952c0.456-0.152,0.751-0.562,0.751-1.043V8.002z M24.448,22.415
	c-0.78,0.779-2.036,0.82-2.828,0.028l-1.616-1.616l-1.615,1.616c-0.794,0.794-2.046,0.748-2.829-0.027
	c-0.771-0.772-0.771-2.029,0-2.801l1.616-1.616l-1.616-1.615c-0.771-0.772-0.771-2.03,0-2.801c0.78-0.779,2.037-0.819,2.829-0.028
	l1.615,1.616l1.616-1.616c0.771-0.771,2.028-0.771,2.8,0c0.776,0.783,0.822,2.033,0.028,2.829l-1.616,1.615l1.616,1.616
	C25.219,20.385,25.219,21.643,24.448,22.415z"/>
</svg>
