<?xml version="1.0" encoding="utf-8"?>
<!-- Generator: Adobe Illustrator 23.0.4, SVG Export Plug-In . SVG Version: 6.00 Build 0)  -->
<svg version="1.1" id="co_x5F_player" xmlns="http://www.w3.org/2000/svg" xmlns:xlink="http://www.w3.org/1999/xlink" x="0px"
	 y="0px" viewBox="0 0 40 40" style="enable-background:new 0 0 40 40;" xml:space="preserve">
<style type="text/css">
	.st0{fill-rule:evenodd;clip-rule:evenodd;fill:#C62828;stroke:#FFFFFF;stroke-miterlimit:10;}
	.st1{fill:#FFFFFF;}
</style>
<path class="st0" d="M8.4,1h23.2C34,1,36,3,36,5.4v23.2c0,2.4-2,4.4-4.4,4.4H25l-5,5.9L15,33H8.4C6,33,4,31,4,28.6V5.4
	C4,3,6,1,8.4,1z"/>
<path class="st1" d="M30.7,15.8h-1.4c-0.3-2-1.3-3.9-2.6-5.2c-1.4-1.4-3.2-2.3-5.3-2.6V6.4c0-0.7-0.6-1.3-1.3-1.3
	c-0.7,0-1.3,0.6-1.3,1.3v1.5c-2,0.3-3.9,1.2-5.3,2.6c-1.4,1.4-2.3,3.2-2.6,5.2H9.3c-0.7,0-1.3,0.6-1.3,1.3c0,0.7,0.6,1.3,1.3,1.3
	h1.4c0.3,2.1,1.2,3.9,2.6,5.3c1.4,1.4,3.2,2.3,5.3,2.6v1.4c0,0.7,0.6,1.3,1.3,1.3c0.7,0,1.3-0.6,1.3-1.3v-1.4c2-0.3,3.9-1.2,5.3-2.6
	c1.4-1.4,2.4-3.2,2.6-5.3h1.4c0.7,0,1.3-0.6,1.3-1.3C32,16.4,31.4,15.8,30.7,15.8z M24.7,21.8c-0.9,0.9-2.1,1.6-3.4,1.8v-1.2
	c0-0.7-0.6-1.3-1.3-1.3c-0.7,0-1.3,0.6-1.3,1.3v1.2c-1.3-0.3-2.5-0.9-3.4-1.8c-0.9-0.9-1.6-2.1-1.8-3.4h1.2c0.7,0,1.3-0.6,1.3-1.3
	c0-0.7-0.6-1.3-1.3-1.3h-1.2c0.3-1.3,0.9-2.4,1.8-3.3c0.9-0.9,2.1-1.6,3.4-1.8v1.2c0,0.7,0.6,1.3,1.3,1.3c0.7,0,1.3-0.6,1.3-1.3
	v-1.2c1.3,0.3,2.5,0.9,3.4,1.8c0.9,0.9,1.5,2,1.8,3.3h-1.2c-0.7,0-1.3,0.6-1.3,1.3c0,0.7,0.6,1.3,1.3,1.3h1.2
	C26.3,19.7,25.6,20.9,24.7,21.8z"/>
</svg>
