<?xml version="1.0" encoding="utf-8"?>
<!-- Generator: Adobe Illustrator 24.0.1, SVG Export Plug-In . SVG Version: 6.00 Build 0)  -->
<svg version="1.1" id="co_x5F_player" xmlns="http://www.w3.org/2000/svg" xmlns:xlink="http://www.w3.org/1999/xlink" x="0px"
	 y="0px" viewBox="0 0 40 40" style="enable-background:new 0 0 40 40;" xml:space="preserve">
<style type="text/css">
	.st0{fill-rule:evenodd;clip-rule:evenodd;fill:#2E7D32;stroke:#FFFFFF;stroke-miterlimit:10;}
	.st1{fill-rule:evenodd;clip-rule:evenodd;fill:#FFFFFF;}
</style>
<path class="st0" d="M8.4,1h23.2C34,1,36,3,36,5.4v23.2c0,2.4-2,4.4-4.4,4.4H25l-5,5.9L15,33H8.4C6,33,4,31,4,28.6V5.4
	C4,3,6,1,8.4,1z"/>
<path class="st1" d="M31.1,23.4v3.3c0,1-0.8,1.9-1.9,1.9h-0.5c-1,0-1.9-0.8-1.9-1.9v-3.2H13.2v3.2c0,1-0.8,1.9-1.9,1.9h-0.5
	c-1,0-1.9-0.8-1.9-1.9v-3.3c-1-0.1-1.7-0.9-1.7-1.9v-5c0-0.9,0.8-1.7,1.7-1.7h0l3-8.1c0.3-0.8,0.6-1.2,1.8-1.2c0.8,0,12.6,0,12.6,0
	c1,0,1.5,0.4,1.8,1.2l3,8.1h0c0.9,0,1.7,0.8,1.7,1.7v5C32.8,22.6,32,23.4,31.1,23.4z M9.8,19.2c0,0.9,0.8,1.7,1.7,1.7
	c0.9,0,1.7-0.8,1.7-1.7c0-0.9-0.8-1.7-1.7-1.7C10.5,17.5,9.8,18.3,9.8,19.2z M28.3,14.4l-2-5.3c-0.4-0.9-0.5-1-1.4-1h-10
	c-1,0-1,0.2-1.3,1l-2,5.3c-0.1,0.2,0.1,0.5,0.4,0.5h16C28.3,14.9,28.4,14.7,28.3,14.4z M28.5,17.5c-0.9,0-1.7,0.8-1.7,1.7
	c0,0.9,0.8,1.7,1.7,1.7c0.9,0,1.7-0.8,1.7-1.7C30.2,18.3,29.5,17.5,28.5,17.5z"/>
</svg>
