<?xml version="1.0" encoding="utf-8"?>
<!-- Generator: Adobe Illustrator 23.0.3, SVG Export Plug-In . SVG Version: 6.00 Build 0)  -->
<svg version="1.1" id="co_x5F_player" xmlns="http://www.w3.org/2000/svg" xmlns:xlink="http://www.w3.org/1999/xlink" x="0px"
	 y="0px" viewBox="0 0 40 40" style="enable-background:new 0 0 40 40;" xml:space="preserve">
<style type="text/css">
	.st0{fill-rule:evenodd;clip-rule:evenodd;fill:#01579B;stroke:#FFFFFF;stroke-miterlimit:10;}
	.st1{fill-rule:evenodd;clip-rule:evenodd;fill:#FFFFFF;}
</style>
<path class="st0" d="M8.4,1h23.2C34,1,36,3,36,5.4v23.2c0,2.4-2,4.4-4.4,4.4H25l-5,5.9L15,33H8.4C6,33,4,31,4,28.6V5.4
	C4,3,6,1,8.4,1z"/>
<path class="st1" d="M23.4,15.8h0.8c0.8,0,1.5,0.7,1.5,1.5v11.3c0,0.8-0.7,1.5-1.5,1.5h-0.8c-0.8,0-1.5-0.7-1.5-1.5V17.3
	C21.9,16.4,22.5,15.8,23.4,15.8z"/>
<path class="st1" d="M20,4.5c0.6,0,1.1,0.5,1.1,1.1v8.3c0,0.6-0.5,1.1-1.1,1.1s-1.1-0.5-1.1-1.1V5.6C18.9,5,19.4,4.5,20,4.5z"/>
<path class="st1" d="M23.8,4.5c0.6,0,1.1,0.5,1.1,1.1v8.3c0,0.6-0.5,1.1-1.1,1.1c-0.6,0-1.1-0.5-1.1-1.1V5.6
	C22.6,5,23.1,4.5,23.8,4.5z"/>
<path class="st1" d="M27.5,4.5c0.6,0,1.1,0.5,1.1,1.1v8.3c0,0.6-0.5,1.1-1.1,1.1s-1.1-0.5-1.1-1.1V5.6C26.4,5,26.9,4.5,27.5,4.5z"/>
<path class="st1" d="M20.4,13.5h6.8c0.8,0,1.5-0.8,1.5,0v2.3c0,0.8-0.7,1.5-1.5,1.5h-6.8c-0.8,0-1.5-0.7-1.5-1.5v-2.3
	C18.9,12.7,19.5,13.5,20.4,13.5z"/>
<path class="st1" d="M13.6,12h1.5c1.2,0,2.3,1,2.3,2.3V18c0,1.2-1,2.3-2.3,2.3h-1.5c-1.2,0-2.3-1-2.3-2.3v-3.8
	C11.4,13,12.4,12,13.6,12z"/>
<path class="st1" d="M15.5,7.5c1,0,1.9,0.8,1.9,1.9v18.8c0,1-0.8,1.9-1.9,1.9s-1.9-0.8-1.9-1.9V9.4C13.6,8.3,14.5,7.5,15.5,7.5z"/>
<path class="st1" d="M14.4,4.5c1.7,0,3,1.3,3,3V15c0,1.7-1.3,3-3,3s-3-1.3-3-3V7.5C11.4,5.8,12.7,4.5,14.4,4.5z"/>
</svg>
