<?xml version="1.0" encoding="utf-8"?>
<!-- Generator: Adobe Illustrator 23.0.3, SVG Export Plug-In . SVG Version: 6.00 Build 0)  -->
<svg version="1.1" id="co_x5F_player" xmlns="http://www.w3.org/2000/svg" xmlns:xlink="http://www.w3.org/1999/xlink" x="0px"
	 y="0px" viewBox="0 0 40 40" style="enable-background:new 0 0 40 40;" xml:space="preserve">
<style type="text/css">
	.st0{fill-rule:evenodd;clip-rule:evenodd;fill:#03A9F4;stroke:#FFFFFF;stroke-miterlimit:10;}
	.st1{fill-rule:evenodd;clip-rule:evenodd;fill:#FFFFFF;}
</style>
<path class="st0" d="M8.4,1h23.2C34,1,36,3,36,5.4v23.2c0,2.4-2,4.4-4.4,4.4H25l-5,5.9L15,33H8.4C6,33,4,31,4,28.6V5.4
	C4,3,6,1,8.4,1z"/>
<path class="st1" d="M29.2,22.8v5c0,0.9-0.8,1.7-1.7,1.7H27c-0.9,0-1.7-0.8-1.7-1.7v-2.9H14.6v2.9c0,0.9-0.8,1.7-1.7,1.7h-0.5
	c-0.9,0-1.7-0.8-1.7-1.7v-6l0,0V6.5c0-1.3,1-2.3,2.3-2.3h13.8c1.3,0,2.3,1,2.3,2.3v16.1C29.2,22.7,29.2,22.7,29.2,22.8z M25.3,22.6
	c0.8,0,1.5-0.7,1.5-1.5c0-0.8-0.7-1.5-1.5-1.5c-0.8,0-1.5,0.7-1.5,1.5S24.5,22.6,25.3,22.6z M13.1,21c0,0.8,0.7,1.5,1.5,1.5
	s1.5-0.7,1.5-1.5c0-0.8-0.7-1.5-1.5-1.5C13.8,19.5,13.1,20.2,13.1,21z M24.6,7.2c0-0.4-0.3-0.7-0.7-0.7h-7.8c-0.4,0-0.7,0.3-0.7,0.7
	v0.2c0,0.4,0.3,0.7,0.7,0.7h7.8c0.4,0,0.7-0.3,0.7-0.7C24.6,7.4,24.6,7.2,24.6,7.2z M26.9,11.1c0-0.8-0.7-1.5-1.5-1.5H14.7
	c-0.8,0-1.5,0.7-1.5,1.5v4.6c0,0.8,0.7,1.5,1.5,1.5h10.7c0.8,0,1.5-0.7,1.5-1.5V11.1z"/>
</svg>
