<?xml version="1.0" encoding="utf-8"?>
<!-- Generator: Adobe Illustrator 23.0.3, SVG Export Plug-In . SVG Version: 6.00 Build 0)  -->
<svg version="1.1" id="co_x5F_player" xmlns="http://www.w3.org/2000/svg" xmlns:xlink="http://www.w3.org/1999/xlink" x="0px"
	 y="0px" viewBox="0 0 40 40" style="enable-background:new 0 0 40 40;" xml:space="preserve">
<style type="text/css">
	.st0{fill-rule:evenodd;clip-rule:evenodd;fill:#7CB342;stroke:#FFFFFF;stroke-miterlimit:10;}
	.st1{fill-rule:evenodd;clip-rule:evenodd;fill:#FFFFFF;}
</style>
<path class="st0" d="M8.4,1h23.2C34,1,36,3,36,5.4v23.2c0,2.4-2,4.4-4.4,4.4H25l-5,5.9L15,33H8.4C6,33,4,31,4,28.6V5.4
	C4,3,6,1,8.4,1z"/>
<path class="st1" d="M28.9,29.3c-1,0-2-1.2-3-1.2c-1,0-2,1.3-2.9,1.2c-1,0-2-1.3-3-1.3c-1,0-2,1.3-3,1.3c-1,0-2-1.2-3-1.2
	s-2,1.3-2.9,1.2c-1,0-2-1.3-3-1.3v-1.7c1,0,2,1.3,3,1.3c1,0,2-1.2,2.9-1.2s2,1.2,3,1.2c1,0,2-1.3,3-1.3c1,0,2,1.3,3,1.3
	c1,0,2-1.2,2.9-1.2c1,0,2,1.2,3,1.2c1,0,2-1.3,3-1.3v1.7C30.9,28.1,29.9,29.3,28.9,29.3z M25.9,25.1c-1,0-2,1.3-2.9,1.2
	c-0.9,0-1.8-1-2.7-1.2h-0.6c-0.9,0.2-1.7,1.2-2.7,1.2s-2-1.2-3-1.2s-2,1.3-2.9,1.2c-1,0-2-1.3-3-1.3v-1.7c1,0,2,1.3,3,1.3
	c1,0,2-1.2,2.9-1.2c1,0,2,1.3,3,1.2c1,0,2-1.3,3-1.3c1,0,2,1.3,3,1.3c1,0,2-1.2,2.9-1.2c1,0,2,1.3,3,1.2c1,0,2-1.3,3-1.3v1.7
	c-1,0-2,1.3-3,1.3C27.9,26.3,26.9,25.1,25.9,25.1z M25.7,22.3c-0.9,0.1-1.8,1.2-2.7,1.2c-1,0-2-1.3-3-1.3c-1,0-2,1.3-3,1.3
	c-0.9,0-1.8-1.1-2.7-1.2l-2.7-4.7c-0.3-0.8,0-1.7,0.8-2l2.1-0.9v-3.3c0-0.6,0.3-1.1,0.9-1.4L19.4,8c0.4-0.2,0.9-0.2,1.3,0l4.1,1.9
	c0.6,0.3,0.9,0.8,0.9,1.4v3.3l2.1,1c0.8,0.4,1.1,1.3,0.8,2L25.7,22.3z M22.8,11.3l-2.2-1c-0.4-0.2-0.9-0.2-1.3,0l-2.8,1.3v1.9
	l2.8-1.3c0.4-0.2,0.9-0.2,1.3,0l2.2,1V11.3z M19.4,6.4L17.9,7V5.6c0-0.7,0.9-1.4,2.1-1.4c1.2,0,2.1,0.6,2.1,1.4V7l-1.5-0.7
	C20.2,6.2,19.8,6.2,19.4,6.4z"/>
</svg>
