<?xml version="1.0" encoding="utf-8"?>
<!-- Generator: Adobe Illustrator 23.0.3, SVG Export Plug-In . SVG Version: 6.00 Build 0)  -->
<svg version="1.1" id="co_x5F_player" xmlns="http://www.w3.org/2000/svg" xmlns:xlink="http://www.w3.org/1999/xlink" x="0px"
	 y="0px" viewBox="0 0 40 40" style="enable-background:new 0 0 40 40;" xml:space="preserve">
<style type="text/css">
	.st0{fill-rule:evenodd;clip-rule:evenodd;fill:#FFD600;stroke:#FFFFFF;stroke-miterlimit:10;}
	.st1{fill-rule:evenodd;clip-rule:evenodd;fill:#FFFFFF;}
</style>
<path class="st0" d="M8.4,1h23.2C34,1,36,3,36,5.4v23.2c0,2.4-2,4.4-4.4,4.4H25l-5,5.9L15,33H8.4C6,33,4,31,4,28.6V5.4
	C4,3,6,1,8.4,1z"/>
<path class="st1" d="M24.3,6.8l7.5,13.5c1,2,1,4.1-0.2,6l-0.1,0.1c-1.1,1.8-3,2.8-5.1,2.8H13.6c-2.1,0-4-1-5.1-2.8l-0.1-0.1
	c-1.2-1.9-1.2-4.1-0.2-6l7.5-13.5c0.9-1.6,2.4-2.6,4.3-2.6H20C21.9,4.3,23.5,5.2,24.3,6.8L24.3,6.8z M20,9.5c-1.2,0-2.2,1-2.2,2.2
	v4.4c0,1.2,1,2.2,2.2,2.2h0c1.2,0,2.2-1,2.2-2.2v-4.4C22.2,10.5,21.2,9.5,20,9.5L20,9.5L20,9.5z M20,20.5c-1.2,0-2.2,1-2.2,2.2v0
	c0,1.2,1,2.2,2.2,2.2h0c1.2,0,2.2-1,2.2-2.2v0C22.2,21.4,21.2,20.5,20,20.5L20,20.5z"/>
</svg>
