<?xml version="1.0" encoding="utf-8"?>
<!-- Generator: Adobe Illustrator 23.0.4, SVG Export Plug-In . SVG Version: 6.00 Build 0)  -->
<svg version="1.1" id="co_x5F_player" xmlns="http://www.w3.org/2000/svg" xmlns:xlink="http://www.w3.org/1999/xlink" x="0px"
	 y="0px" viewBox="0 0 40 40" style="enable-background:new 0 0 40 40;" xml:space="preserve">
<style type="text/css">
	.st0{fill-rule:evenodd;clip-rule:evenodd;fill:#2E7D32;stroke:#FFFFFF;stroke-miterlimit:10;}
	.st1{fill-rule:evenodd;clip-rule:evenodd;fill:#FFFFFF;}
</style>
<path class="st0" d="M8.4,1h23.2C34,1,36,3,36,5.4v23.2c0,2.4-2,4.4-4.4,4.4H25l-5,5.9L15,33H8.4C6,33,4,31,4,28.6V5.4
	C4,3,6,1,8.4,1z"/>
<path class="st1" d="M20,5.4c6.5,0,11.7,5.2,11.7,11.7c0,6.5-5.2,11.7-11.7,11.7c-6.5,0-11.7-5.2-11.7-11.7
	C8.3,10.7,13.5,5.4,20,5.4L20,5.4z M25.5,12.1c0.1-0.2,0-0.3-0.1-0.4c-0.1-0.1-0.3-0.2-0.4-0.1l-7.7,2.8l-2.8,7.7
	c-0.1,0.2,0,0.3,0.1,0.4c0.1,0.1,0.3,0.2,0.4,0.1l7.7-2.8L25.5,12.1L25.5,12.1z M21.8,18.9l-3.7-3.7l-2,5.7L21.8,18.9L21.8,18.9z
	 M20,8c-5,0-9.1,4.1-9.1,9.1s4.1,9.1,9.1,9.1s9.1-4.1,9.1-9.1C29.1,12.1,25,8,20,8z"/>
</svg>
