<?xml version="1.0" encoding="utf-8"?>
<!-- Generator: Adobe Illustrator 23.0.3, SVG Export Plug-In . SVG Version: 6.00 Build 0)  -->
<svg version="1.1" id="co_x5F_player" xmlns="http://www.w3.org/2000/svg" xmlns:xlink="http://www.w3.org/1999/xlink" x="0px"
	 y="0px" viewBox="0 0 40 40" style="enable-background:new 0 0 40 40;" xml:space="preserve">
<style type="text/css">
	.st0{fill-rule:evenodd;clip-rule:evenodd;fill:#2E7D32;stroke:#FFFFFF;stroke-miterlimit:10;}
	.st1{fill-rule:evenodd;clip-rule:evenodd;fill:#FFFFFF;}
</style>
<path class="st0" d="M8.4,1h23.2C34,1,36,3,36,5.4v23.2c0,2.4-2,4.4-4.4,4.4H25l-5,5.9L15,33H8.4C6,33,4,31,4,28.6V5.4
	C4,3,6,1,8.4,1z"/>
<path class="st1" d="M28.9,17.7h-5c-0.4,0-0.7-0.3-0.7-0.7v-2.6l-2.3,3.5l3.3,2c0.4,0.2,0.6,0.6,0.6,1v7.3c0,0.7-0.6,1.3-1.4,1.3H23
	c-0.7,0-1.4-0.6-1.4-1.3V22l-3.1-1.8v4.3c0,0.5-0.4,0.8-0.8,0.8h-6.4c-0.7,0-1.4-0.6-1.4-1.3v-0.4c0-0.7,0.6-1.4,1.4-1.4h4.2v-4.1
	c0-0.3,0.1-0.6,0.3-0.9l4-6.5h-3.9l-1.4,2.3c-0.3,0.6-1.1,0.7-1.6,0.4l0,0c-0.6-0.3-0.7-1.1-0.4-1.6l1.8-2.9
	c0.2-0.3,0.4-0.4,0.7-0.4h5.7c0.3,0,0.6,0.1,0.9,0.3l0.8,0.6c-0.3-0.5-0.5-1.1-0.5-1.7c0-1.7,1.3-3,3-3s3,1.3,3,3c0,1.7-1.3,3-3,3
	c-0.2,0-0.4,0-0.6-0.1l0.4,0.3c0.5,0.3,0.8,0.8,0.8,1.4l0,3.1h3.4c0.7,0,1.2,0.5,1.2,1.1v0C30,17.2,29.5,17.7,28.9,17.7z"/>
</svg>
