<?xml version="1.0" encoding="utf-8"?>
<!-- Generator: Adobe Illustrator 23.0.3, SVG Export Plug-In . SVG Version: 6.00 Build 0)  -->
<svg version="1.1" id="co_x5F_player" xmlns="http://www.w3.org/2000/svg" xmlns:xlink="http://www.w3.org/1999/xlink" x="0px"
	 y="0px" viewBox="0 0 40 40" style="enable-background:new 0 0 40 40;" xml:space="preserve">
<style type="text/css">
	.st0{fill-rule:evenodd;clip-rule:evenodd;fill:#01579B;stroke:#FFFFFF;stroke-miterlimit:10;}
	.st1{fill-rule:evenodd;clip-rule:evenodd;fill:#FFFFFF;}
</style>
<path class="st0" d="M8.4,1h23.2C34,1,36,3,36,5.4v23.2c0,2.4-2,4.4-4.4,4.4H25l-5,5.9L15,33H8.4C6,33,4,31,4,28.6V5.4
	C4,3,6,1,8.4,1z"/>
<path class="st1" d="M30.6,18.3l-1.2-4.4c-0.1-0.3-0.6-0.2-0.4,0.2l1.7,6.5c0.1,0.3,0,0.7-0.4,0.7H29v5c0,0.9-1.4,0.9-1.4,0v-5h-0.7
	v5c0,0.9-1.4,0.9-1.4,0v-5h-1.4c-0.3,0-0.5-0.4-0.4-0.7l1.7-6.5c0.1-0.4-0.4-0.5-0.4-0.2l-1.2,4.4c-0.2,0.6-1.6,0.6-1.2-0.6l1.5-5
	c0.2-0.6,0.6-1.1,1.4-1.1c0.3,0,0.6,0,0.9,0c-0.7-0.3-1.2-1-1.2-1.9c0-1.1,0.9-2.1,2.1-2.1c1.1,0,2.1,0.9,2.1,2.1
	c0,0.8-0.5,1.5-1.2,1.9c0.3,0,0.5,0,0.8,0c0.8,0,1.3,0.5,1.4,1.1l1.5,5C32.2,18.8,30.8,18.9,30.6,18.3z M19.7,29.6h-0.2
	c-0.5,0-0.9-0.4-0.9-0.9V5.5c0-0.5,0.4-0.9,0.9-0.9h0.2c0.5,0,1,0.4,1,0.9v23.3C20.6,29.2,20.2,29.6,19.7,29.6z M15,18.3v-4.2
	c0-0.5-0.7-0.5-0.7,0v11.7c0,1.4-2.1,1.4-2.1,0V19c0-0.5-0.7-0.5-0.7,0v6.9c0,1.4-2.1,1.4-2.1,0V14.1c0-0.4-0.7-0.5-0.7,0v4.2
	c0,1-1.4,0.9-1.4,0v-4.8c0-1,0.8-1.9,1.9-1.9h1.9c-0.8-0.3-1.3-1.1-1.3-1.9c0-1.1,0.9-2.1,2.1-2.1S14,8.5,14,9.6
	c0,0.9-0.5,1.6-1.3,1.9h1.8c1,0,1.9,0.8,1.9,1.8v4.9C16.4,19.2,15,19.2,15,18.3z"/>
</svg>
