<?xml version="1.0" encoding="utf-8"?>
<!-- Generator: Adobe Illustrator 23.0.3, SVG Export Plug-In . SVG Version: 6.00 Build 0)  -->
<svg version="1.1" id="co_x5F_player" xmlns="http://www.w3.org/2000/svg" xmlns:xlink="http://www.w3.org/1999/xlink" x="0px"
	 y="0px" viewBox="0 0 40 40" style="enable-background:new 0 0 40 40;" xml:space="preserve">
<style type="text/css">
	.st0{fill-rule:evenodd;clip-rule:evenodd;fill:#2E7D32;stroke:#FFFFFF;stroke-miterlimit:10;}
	.st1{fill-rule:evenodd;clip-rule:evenodd;fill:#FFFFFF;}
</style>
<path class="st0" d="M8.4,1h23.2C34,1,36,3,36,5.4v23.2c0,2.4-2,4.4-4.4,4.4H25l-5,5.9L15,33H8.4C6,33,4,31,4,28.6V5.4
	C4,3,6,1,8.4,1z"/>
<path class="st1" d="M7.6,16.9L19,5.1c0.4-0.5,1.2-0.5,1.6,0l4.8,4.9V7.1c0-0.6,0.5-1.1,1.1-1.1h2c0.6,0,1.1,0.5,1.1,1.1v7.2
	l2.5,2.6c0.4,0.4,0.4,1.1,0,1.6L32,18.6c-0.4,0.4-1.2,0.4-1.6,0l-0.8-0.8v9.9c0,1-0.8,1.9-1.9,1.9c-5.1,0-10.6,0-15.7,0
	c-1,0-1.9-0.8-1.9-1.9v-9.9l-0.9,0.9c-0.4,0.4-1.1,0.4-1.6,0l-0.1-0.1C7.2,18,7.2,17.3,7.6,16.9L7.6,16.9z M16.9,16.9
	c-0.4,0-0.7,0.3-0.7,0.7v1.9c0,0.4,0.3,0.7,0.7,0.7h1.9c0.4,0,0.7-0.3,0.7-0.7v-1.9c0-0.4-0.3-0.7-0.7-0.7H16.9L16.9,16.9z
	 M21.1,16.9c-0.4,0-0.7,0.3-0.7,0.7v1.9c0,0.4,0.3,0.7,0.7,0.7H23c0.4,0,0.7-0.3,0.7-0.7v-1.9c0-0.4-0.3-0.7-0.7-0.7H21.1L21.1,16.9
	z M23.7,21.9c0-0.4-0.3-0.7-0.7-0.7h-1.9c-0.4,0-0.7,0.3-0.7,0.7v1.9c0,0.4,0.3,0.7,0.7,0.7H23c0.4,0,0.7-0.3,0.7-0.7V21.9
	L23.7,21.9z M18.7,24.5c0.4,0,0.7-0.3,0.7-0.7v-1.9c0-0.4-0.3-0.7-0.7-0.7h-1.9c-0.4,0-0.7,0.3-0.7,0.7v1.9c0,0.4,0.3,0.7,0.7,0.7
	H18.7z"/>
</svg>
