<?xml version="1.0" encoding="utf-8"?>
<!-- Generator: Adobe Illustrator 23.0.3, SVG Export Plug-In . SVG Version: 6.00 Build 0)  -->
<svg version="1.1" id="co_x5F_player" xmlns="http://www.w3.org/2000/svg" xmlns:xlink="http://www.w3.org/1999/xlink" x="0px"
	 y="0px" viewBox="0 0 40 40" style="enable-background:new 0 0 40 40;" xml:space="preserve">
<style type="text/css">
	.st0{fill-rule:evenodd;clip-rule:evenodd;fill:#D32F2F;stroke:#FFFFFF;stroke-miterlimit:10;}
	.st1{fill-rule:evenodd;clip-rule:evenodd;fill:#FFFFFF;}
</style>
<path class="st0" d="M8.4,1h23.2C34,1,36,3,36,5.4v23.2c0,2.4-2,4.4-4.4,4.4H25l-5,5.9L15,33H8.4C6,33,4,31,4,28.6V5.4
	C4,3,6,1,8.4,1z"/>
<path class="st1" d="M26.4,24.9H26l2,3.5c0.2,0.3,0,0.7-0.4,0.7h-2.1c-0.2,0-0.3-0.1-0.4-0.2l-2.3-4h-5.7l-2.3,4
	c-0.1,0.1-0.2,0.2-0.4,0.2h-2.1c-0.4,0-0.6-0.4-0.4-0.7l2-3.5h-0.3c-1.2,0-2.1-0.9-2.1-2.1V9.4c0-1.2,0.9-2.1,2.1-2.1H17l-0.5-2.5h0
	c0,0,0,0,0,0c0-0.6,0.5-1.1,1.1-1.1h5c0.6,0,1.1,0.5,1.1,1.1c0,0,0,0,0,0h0L23,7.3h3.3c1.2,0,2.1,1,2.1,2.1v13.4
	C28.5,24,27.5,24.9,26.4,24.9z M24.9,22.8c0.8,0,1.4-0.6,1.4-1.4S25.7,20,24.9,20s-1.4,0.6-1.4,1.4C23.5,22.2,24.2,22.8,24.9,22.8z
	 M13.6,21.4c0,0.8,0.6,1.4,1.4,1.4c0.8,0,1.4-0.6,1.4-1.4S15.8,20,15,20C14.3,20,13.6,20.6,13.6,21.4z M18.8,5.9l0.3,1.4h1.8
	l0.3-1.4H18.8z M24.2,10c0-0.3-0.3-0.6-0.6-0.6h-7.2c-0.3,0-0.6,0.3-0.6,0.6v0.2c0,0.3,0.3,0.6,0.6,0.6h7.2c0.3,0,0.6-0.3,0.6-0.6
	L24.2,10L24.2,10z M26.4,13.6c0-0.8-0.6-1.4-1.4-1.4h-9.9c-0.8,0-1.4,0.6-1.4,1.4v3.5c0,0.8,0.6,1.4,1.4,1.4H25
	c0.8,0,1.4-0.6,1.4-1.4V13.6z"/>
</svg>
