<?xml version="1.0" encoding="iso-8859-1"?>
<!-- Generator: Adobe Illustrator 16.0.2, SVG Export Plug-In . SVG Version: 6.00 Build 0)  -->
<!DOCTYPE svg PUBLIC "-//W3C//DTD SVG 1.1//EN" "http://www.w3.org/Graphics/SVG/1.1/DTD/svg11.dtd">
<svg version="1.1" id="co_x5F_mobile" xmlns="http://www.w3.org/2000/svg" xmlns:xlink="http://www.w3.org/1999/xlink" x="0px"
	 y="0px" width="40px" height="40px" viewBox="0 0 40 40" style="enable-background:new 0 0 40 40;" xml:space="preserve">
	 <style type="text/css">
	 	.st0{fill-rule:evenodd;clip-rule:evenodd;fill:#F57C00;stroke:#FFFFFF;stroke-miterlimit:10;}
	 </style>
<path class="st0" d="M35.996,18.004h-2.15c-0.447-3.049-1.879-5.782-3.961-7.864c-2.092-2.092-4.84-3.526-7.908-3.966V3.986
	c0-1.119-0.918-1.979-2.02-1.979c-1.09,0-1.98,0.889-1.98,1.979v2.188C14.91,6.614,12.16,8.048,10.07,10.14
	c-2.082,2.082-3.514,4.815-3.961,7.864h-2.15c-1.119,0-1.98,0.918-1.98,2.02c0,1.091,0.889,1.98,1.98,1.98h2.137
	c0.434,3.085,1.871,5.85,3.975,7.952c2.09,2.092,4.84,3.527,7.906,3.967v2.1c0,1.119,0.918,1.98,2.02,1.98
	c1.092,0,1.98-0.89,1.98-1.98v-2.1c3.068-0.439,5.816-1.875,7.908-3.967c2.102-2.102,3.541-4.867,3.973-7.952h2.139
	c1.119,0,1.979-0.917,1.979-2.019C37.975,18.895,37.086,18.004,35.996,18.004z M27.031,27.103c-1.357,1.357-3.104,2.327-5.055,2.726
	v-1.844c0-1.12-0.918-1.98-2.02-1.98c-1.09,0-1.98,0.889-1.98,1.98v1.844c-1.951-0.399-3.695-1.367-5.055-2.726
	c-1.367-1.367-2.34-3.129-2.732-5.099h1.809c1.119,0,1.98-0.917,1.98-2.019c0-1.09-0.891-1.98-1.98-1.98h-1.791
	c0.404-1.934,1.369-3.663,2.715-5.01c1.359-1.358,3.104-2.327,5.055-2.726v1.756c0,1.12,0.918,1.98,2.02,1.98
	c1.092,0,1.98-0.889,1.98-1.98v-1.756c1.951,0.397,3.697,1.368,5.055,2.726c1.348,1.347,2.313,3.077,2.717,5.01h-1.791
	c-1.119,0-1.98,0.918-1.98,2.02c0,1.091,0.889,1.98,1.98,1.98h1.809C29.373,23.973,28.398,25.735,27.031,27.103z"/>
</svg>
