<?xml version="1.0" encoding="utf-8"?>
<!-- Generator: Adobe Illustrator 24.0.1, SVG Export Plug-In . SVG Version: 6.00 Build 0)  -->
<svg version="1.1" id="co_x5F_player" xmlns="http://www.w3.org/2000/svg" xmlns:xlink="http://www.w3.org/1999/xlink" x="0px"
	 y="0px" viewBox="0 0 40 40" style="enable-background:new 0 0 40 40;" xml:space="preserve">
<style type="text/css">
	.st0{fill-rule:evenodd;clip-rule:evenodd;fill:#2E7D32;stroke:#FFFFFF;stroke-miterlimit:10;}
	.st1{fill-rule:evenodd;clip-rule:evenodd;fill:#FFFFFF;}
</style>
<path class="st0" d="M8.4,1h23.2C34,1,36,3,36,5.4v23.2c0,2.4-2,4.4-4.4,4.4H25l-5,5.9L15,33H8.4C6,33,4,31,4,28.6V5.4
	C4,3,6,1,8.4,1z"/>
<path class="st1" d="M12.4,5.4h15.2C28.4,5.4,29,6,29,6.8v0c0,0.8-0.6,1.4-1.4,1.4h-0.7v2.1h2.5c1.7,0,3,1.4,3,3v2.2
	c0,1.7-1.4,3-3,3h-2.6c-0.5,2.1-2.5,3.5-4.7,3.5v2.6c0,0.8,0.7,1.5,1.5,1.5h1.3c0.8,0,1.4,0.6,1.4,1.4v0c0,0.8-0.6,1.4-1.4,1.4h-9.7
	c-0.8,0-1.4-0.6-1.4-1.4v0c0-0.8,0.6-1.4,1.4-1.4h1.3c0.8,0,1.5-0.7,1.5-1.5V22c-2.2,0-4.2-1.3-4.7-3.5h-2.6c-1.7,0-3-1.4-3-3v-2.2
	c0-1.7,1.4-3,3-3h2.5V8.2h-0.7c-0.8,0-1.4-0.6-1.4-1.4v0C11,6,11.6,5.4,12.4,5.4L12.4,5.4z M20.4,10.8c-0.1-0.2-0.2-0.3-0.4-0.3
	c-0.2,0-0.3,0.1-0.4,0.3l-0.9,1.9l-2,0.2c-0.2,0-0.3,0.1-0.4,0.3c-0.1,0.2,0,0.4,0.1,0.5l1.5,1.4l-0.4,2c0,0.2,0,0.4,0.2,0.5
	c0.1,0.1,0.3,0.1,0.5,0l1.8-1l1.8,1c0.2,0.1,0.3,0.1,0.5,0c0.1-0.1,0.2-0.3,0.2-0.5l-0.4-2l1.5-1.4c0.1-0.1,0.2-0.3,0.1-0.5
	c-0.1-0.2-0.2-0.3-0.4-0.3l-2-0.2L20.4,10.8L20.4,10.8z M26.9,13v2.8h2.2c0.3,0,0.6-0.3,0.6-0.6v-1.5c0-0.3-0.3-0.6-0.6-0.6L26.9,13
	L26.9,13z M13.1,15.8V13h-2.2c-0.3,0-0.6,0.3-0.6,0.6v1.5c0,0.3,0.3,0.6,0.6,0.6H13.1z"/>
</svg>
