<?xml version="1.0" encoding="utf-8"?>
<!-- Generator: Adobe Illustrator 23.0.3, SVG Export Plug-In . SVG Version: 6.00 Build 0)  -->
<svg version="1.1" id="co_x5F_player" xmlns="http://www.w3.org/2000/svg" xmlns:xlink="http://www.w3.org/1999/xlink" x="0px"
	 y="0px" viewBox="0 0 40 40" style="enable-background:new 0 0 40 40;" xml:space="preserve">
<style type="text/css">
	.st0{fill-rule:evenodd;clip-rule:evenodd;fill:#C62828;stroke:#FFFFFF;stroke-miterlimit:10;}
	.st1{fill-rule:evenodd;clip-rule:evenodd;fill:#FFFFFF;}
</style>
<path class="st0" d="M8.4,1h23.2C34,1,36,3,36,5.4v23.2c0,2.4-2,4.4-4.4,4.4H25l-5,5.9L15,33H8.4C6,33,4,31,4,28.6V5.4
	C4,3,6,1,8.4,1z"/>
<path class="st1" d="M16.7,6.9h6.6c1.2,0,2.2,0.6,2.8,1.6l1.6,2.8h1.6c1.8,0,3.3,1.5,3.3,3.3v9.1c0,1.8-1.5,3.3-3.3,3.3H10.6
	c-1.8,0-3.3-1.5-3.3-3.3v-9.1c0-1.8,1.5-3.3,3.3-3.3h1.6l1.6-2.8C14.5,7.5,15.5,6.9,16.7,6.9L16.7,6.9z M17.7,9.1
	c-0.4,0-0.7,0.3-0.7,0.7v0.2c0,0.4,0.3,0.7,0.7,0.7h4.6c0.4,0,0.7-0.3,0.7-0.7V9.7c0-0.4-0.3-0.7-0.7-0.7H17.7L17.7,9.1z M20,12.8
	c-3.3,0-5.9,2.7-5.9,5.9s2.7,5.9,5.9,5.9s5.9-2.7,5.9-5.9C25.9,15.5,23.3,12.8,20,12.8L20,12.8z M20,18.8l-3.4-1.6
	c-0.2,0.5-0.3,1-0.3,1.6c0,2.1,1.7,3.7,3.7,3.7s3.7-1.7,3.7-3.7c0-2.1-1.7-3.7-3.7-3.7c-0.4,0-0.9,0.1-1.3,0.2L20,18.8z"/>
</svg>
