<?xml version="1.0" encoding="utf-8"?>
<!-- Generator: Adobe Illustrator 23.0.3, SVG Export Plug-In . SVG Version: 6.00 Build 0)  -->
<svg version="1.1" id="co_x5F_player" xmlns="http://www.w3.org/2000/svg" xmlns:xlink="http://www.w3.org/1999/xlink" x="0px"
	 y="0px" viewBox="0 0 40 40" style="enable-background:new 0 0 40 40;" xml:space="preserve">
<style type="text/css">
	.st0{fill-rule:evenodd;clip-rule:evenodd;fill:#01579B;stroke:#FFFFFF;stroke-miterlimit:10;}
	.st1{fill-rule:evenodd;clip-rule:evenodd;fill:#FFFFFF;}
</style>
<path class="st0" d="M8.4,1h23.2C34,1,36,3,36,5.4v23.2c0,2.4-2,4.4-4.4,4.4H25l-5,5.9L15,33H8.4C6,33,4,31,4,28.6V5.4
	C4,3,6,1,8.4,1z"/>
<path class="st1" d="M28.8,7.9c4.9,4.9,4.9,12.8,0,17.7c-4.9,4.9-12.8,4.9-17.7,0c-4.9-4.9-4.9-12.8,0-17.7C16,3.1,24,3.1,28.8,7.9
	L28.8,7.9z M22.1,13.9c0-0.7-0.6-1.3-1.3-1.3h-3.5c-0.6,0-1.2,0.8-1.2,1.4v0c0,0.6,0.6,1.4,1.2,1.4h1.3v6.9h-1.3
	c-1.6,0-1.5,2.8,0,2.8h6c1.6,0,1.6-2.8,0-2.8h-1.2L22.1,13.9L22.1,13.9z M20.3,6.9c-1.3,0-2.4,1.1-2.4,2.4c0,1.3,1.1,2.4,2.4,2.4
	s2.4-1.1,2.4-2.4C22.7,8,21.6,6.9,20.3,6.9z"/>
</svg>
