<?xml version="1.0" encoding="utf-8"?>
<!-- Generator: Adobe Illustrator 23.0.3, SVG Export Plug-In . SVG Version: 6.00 Build 0)  -->
<svg version="1.1" id="co_x5F_player" xmlns="http://www.w3.org/2000/svg" xmlns:xlink="http://www.w3.org/1999/xlink" x="0px"
	 y="0px" viewBox="0 0 40 40" style="enable-background:new 0 0 40 40;" xml:space="preserve">
<style type="text/css">
	.st0{fill-rule:evenodd;clip-rule:evenodd;fill:#2E7D32;stroke:#FFFFFF;stroke-miterlimit:10;}
	.st1{fill-rule:evenodd;clip-rule:evenodd;fill:#FFFFFF;}
</style>
<path class="st0" d="M8.4,1h23.2C34,1,36,3,36,5.4v23.2c0,2.4-2,4.4-4.4,4.4H25l-5,5.9L15,33H8.4C6,33,4,31,4,28.6V5.4
	C4,3,6,1,8.4,1z"/>
<path class="st1" d="M30.6,27.3L22,12.1c-0.2-0.3-0.3-0.7-0.2-1l2.5-4.4c0.5-0.9-0.7-1.6-1.3-0.7L20.7,10V5.3c0-1-1.4-1-1.4,0V10
	L17,6.1c-0.5-0.9-1.7-0.2-1.3,0.7l2.5,4.4c0.2,0.3,0,0.7-0.1,1L9.4,27.3c-0.3,0.5-0.3,1,0,1.5s0.8,0.8,1.3,0.8h18.5
	c0.6,0,1-0.3,1.3-0.8C30.9,28.3,30.9,27.8,30.6,27.3z M23.6,27.9c-0.1,0.2-0.3,0.3-0.5,0.3h-6c-0.2,0-0.4-0.1-0.5-0.3
	c-0.1-0.2-0.1-0.4,0-0.6l3-5.3c0.1-0.2,0.3-0.3,0.5-0.3c0.2,0,0.4,0.1,0.5,0.3l3,5.3C23.7,27.5,23.7,27.7,23.6,27.9z"/>
</svg>
