<?xml version="1.0" encoding="utf-8"?>
<!-- Generator: Adobe Illustrator 23.0.3, SVG Export Plug-In . SVG Version: 6.00 Build 0)  -->
<svg version="1.1" id="co_x5F_player" xmlns="http://www.w3.org/2000/svg" xmlns:xlink="http://www.w3.org/1999/xlink" x="0px"
	 y="0px" viewBox="0 0 40 40" style="enable-background:new 0 0 40 40;" xml:space="preserve">
<style type="text/css">
	.st0{fill-rule:evenodd;clip-rule:evenodd;fill:#F57C00;stroke:#FFFFFF;stroke-miterlimit:10;}
	.st1{fill-rule:evenodd;clip-rule:evenodd;fill:#FFFFFF;}
</style>
<path class="st0" d="M8.4,1h23.2C34,1,36,3,36,5.4v23.2c0,2.4-2,4.4-4.4,4.4H25l-5,5.9L15,33H8.4C6,33,4,31,4,28.6V5.4
	C4,3,6,1,8.4,1z"/>
<path class="st1" d="M26.1,24.8h-0.3l2.1,3.6c0.2,0.3,0,0.7-0.4,0.7l-2.1,0c-0.6,0-0.6-1.4-1.4-1.4h-8.6c-0.8,0-0.7,1.4-1.4,1.4
	l-2,0c-0.4,0-0.6-0.4-0.4-0.7l2.1-3.6h-0.3c-1.2,0-2.2-1-2.2-2.2V7.5c0-1.2,1-2.2,2.2-2.2h3c0.3-0.8,1.1-1.4,2-1.4h2.9
	c0.9,0,1.7,0.6,2,1.4h3c1.2,0,2.2,1,2.2,2.2v15.1C28.3,23.8,27.3,24.8,26.1,24.8z M16,26.2h7.2c0.8,0,0.1-1.4-0.7-1.4h-5.8
	C15.9,24.8,15.2,26.2,16,26.2z M14.6,21.2c0.8,0,1.4-0.6,1.4-1.4c0-0.8-0.6-1.4-1.4-1.4s-1.4,0.6-1.4,1.4
	C13.2,20.5,13.8,21.2,14.6,21.2z M17.5,9.7h-2.9c-0.8,0-1.4,0.6-1.4,1.4v4.3c0,0.8,0.6,1.4,1.4,1.4h2.9c0.8,0,1.4-0.6,1.4-1.4v-4.3
	C18.9,10.3,18.3,9.7,17.5,9.7z M19.7,5.3c-0.8,0-1.4,0.6-1.4,1.4s0.6,1.4,1.4,1.4c0.8,0,1.4-0.6,1.4-1.4S20.4,5.3,19.7,5.3z
	 M26.1,11.1c0-0.8-0.6-1.4-1.4-1.4h-2.9c-0.8,0-1.4,0.6-1.4,1.4v4.3c0,0.8,0.6,1.4,1.4,1.4h2.9c0.8,0,1.4-0.6,1.4-1.4V11.1z
	 M24.7,18.3c-0.8,0-1.4,0.6-1.4,1.4c0,0.8,0.6,1.4,1.4,1.4c0.8,0,1.4-0.6,1.4-1.4C26.1,18.9,25.5,18.3,24.7,18.3z"/>
</svg>
