<?xml version="1.0" encoding="iso-8859-1"?>
<!-- Generator: Adobe Illustrator 16.0.2, SVG Export Plug-In . SVG Version: 6.00 Build 0)  -->
<!DOCTYPE svg PUBLIC "-//W3C//DTD SVG 1.1//EN" "http://www.w3.org/Graphics/SVG/1.1/DTD/svg11.dtd">
<svg version="1.1" id="co_x5F_medicine" xmlns="http://www.w3.org/2000/svg" xmlns:xlink="http://www.w3.org/1999/xlink" x="0px"
	 y="0px" viewBox="0 0 40 40" style="enable-background:new 0 0 40 40;" xml:space="preserve">
<path fill="#0D47A1" style="fill-rule:evenodd;clip-rule:evenodd;" d="M17.278,2.326c-0.371,0.187-0.352,0.972,0.042,1.751
	c0.018,0.035,0.036,0.07,0.055,0.104c-2.371,0.559-4.379,2.056-5.613,4.076c-1.535,0.413-2.666,1.814-2.666,3.479
	c0,1.214,0.602,2.288,1.523,2.94c0.385,1.965,1.41,3.699,2.849,4.98c-0.338,0.114-0.655,0.305-0.924,0.573l-4.253,4.252l-1.147-0.25
	c-0.766-0.168-0.953,0.606-0.953,0.606c-0.095,0.43,0.18,0.859,0.607,0.953l0.153,0.033l-1.727,1.727
	c-0.572,0.571,0.417,1.21,0.813,0.813l0.772-0.771c0.055,0.229,0.144,0.452,0.268,0.661l-0.949,0.948
	c-0.572,0.572,0.417,1.209,0.813,0.813l0.942-0.942c0.219,0.135,0.455,0.231,0.699,0.289L7.725,30.22
	c-0.572,0.57,0.416,1.209,0.813,0.813l5.432-5.461l0.003,10.88c0,0.887,1.024,0.909,1.024,0v-1.092
	c0.201,0.123,0.235,0.219,0.469,0.278v1.341c0,0.809,0.962,0.741,0.962,0v-1.331c0.25-0.059,0.361-0.158,0.574-0.289v1.213
	c0,0.815,0.994,0.562,0.994,0v-5.766c0.766,0.157,2.19,0.166,2.998,0l0.002,5.646c0,0.809,0.962,0.866,0.962,0v-1.092
	c0.201,0.123,0.359,0.219,0.594,0.278v1.341c0,0.767,0.869,0.784,0.869,0v-1.331c0.25-0.059,0.36-0.158,0.574-0.289v1.213
	c0,0.784,0.994,0.68,0.994,0c0,0-0.002-6.89-0.002-11.093l5.555,5.554c0.572,0.572,1.21-0.416,0.813-0.813l-0.858-0.857
	c0.244-0.058,0.48-0.154,0.699-0.289l0.942,0.942c0.572,0.571,1.209-0.417,0.813-0.813l-0.949-0.948
	c0.123-0.209,0.212-0.432,0.267-0.662l0.772,0.772c0.572,0.572,1.209-0.416,0.813-0.813l-1.727-1.727l0.154-0.033
	c0.764-0.167,0.607-0.953,0.607-0.953c-0.095-0.429-0.523-0.7-0.953-0.606l-1.147,0.25l-4.253-4.252
	c-0.305-0.304-0.671-0.509-1.061-0.615c1.414-1.276,2.42-2.995,2.802-4.938c0.921-0.652,1.522-1.727,1.522-2.94
	c0-1.665-1.13-3.066-2.666-3.479c-1.22-1.999-3.199-3.484-5.536-4.058c0.022-0.039,0.044-0.08,0.065-0.122
	c0.394-0.779,0.414-1.564,0.042-1.751c-0.371-0.188-0.991,0.293-1.385,1.073l-0.044,0.09V3.472c0-0.874-0.337-1.583-0.752-1.583
	c-0.415,0-0.752,0.709-0.752,1.583c0,0.059,0.001,0.117,0.004,0.175c-0.033-0.082-0.071-0.165-0.112-0.247
	C18.269,2.619,17.648,2.139,17.278,2.326L17.278,2.326z M19.636,16.535c1.14,0,2.064,0.521,2.064,1.165
	c0,0.643-0.924,1.164-2.064,1.164s-2.064-0.521-2.064-1.164C17.572,17.057,18.496,16.535,19.636,16.535L19.636,16.535z
	 M19.561,12.621c0.317,0,0.576,0.157,0.576,0.351c0,0.192-0.258,0.35-0.576,0.35s-0.575-0.157-0.575-0.35
	C18.986,12.778,19.244,12.621,19.561,12.621L19.561,12.621z M16.412,9.33c0.643,0,1.165,0.521,1.165,1.164s-0.521,1.165-1.165,1.165
	s-1.166-0.521-1.166-1.165S15.769,9.33,16.412,9.33L16.412,9.33z M22.636,9.33c0.643,0,1.165,0.521,1.165,1.164
	s-0.521,1.165-1.165,1.165s-1.165-0.521-1.165-1.165S21.993,9.33,22.636,9.33L22.636,9.33z M19.451,26.859
	c0.364,0,0.659,0.296,0.659,0.659c0,0.364-0.295,0.659-0.659,0.659s-0.66-0.295-0.66-0.659
	C18.792,27.155,19.087,26.859,19.451,26.859L19.451,26.859z M16.417,6.917c1.317,0,2.461,0.744,3.035,1.834
	c0.574-1.09,1.718-1.834,3.035-1.834c1.893,0,3.427,1.535,3.427,3.428c0,1.516-0.986,2.803-2.352,3.254
	c0.336,0.643,0.528,1.373,0.528,2.148c0,2.561-2.077,4.637-4.638,4.637s-4.638-2.076-4.638-4.637c0-0.775,0.191-1.506,0.528-2.148
	c-1.366-0.451-2.352-1.738-2.352-3.254C12.989,8.452,14.524,6.917,16.417,6.917L16.417,6.917z M19.451,23.134
	c1.454,0,2.634,1.18,2.634,2.634s-1.18,2.634-2.634,2.634s-2.634-1.18-2.634-2.634S17.997,23.134,19.451,23.134L19.451,23.134z
	 M10.194,25.944c0.537,0.536,0.537,1.407,0,1.943c-0.537,0.537-1.408,0.537-1.944,0c-0.537-0.536-0.537-1.407,0-1.943
	C8.786,25.407,9.657,25.407,10.194,25.944L10.194,25.944z M28.886,25.944c0.537-0.537,1.407-0.537,1.944,0
	c0.537,0.536,0.537,1.407,0,1.943c-0.537,0.537-1.407,0.537-1.944,0C28.349,27.352,28.349,26.48,28.886,25.944z"/>
</svg>
