<?xml version="1.0" encoding="iso-8859-1"?>
<!-- Generator: Adobe Illustrator 16.0.2, SVG Export Plug-In . SVG Version: 6.00 Build 0)  -->
<!DOCTYPE svg PUBLIC "-//W3C//DTD SVG 1.1//EN" "http://www.w3.org/Graphics/SVG/1.1/DTD/svg11.dtd">
<svg version="1.1" id="co_x5F_multimedia" xmlns="http://www.w3.org/2000/svg" xmlns:xlink="http://www.w3.org/1999/xlink" x="0px"
	 y="0px" viewBox="0 0 40 40" style="enable-background:new 0 0 40 40;" xml:space="preserve">
<path fill="#0D47A1" style="fill-rule:evenodd;clip-rule:evenodd;" d="M13.611,23.65c1.501-0.594,3.042-0.721,4.386-0.451V6.066
	c0-0.835,0.442-1.55,1.189-1.924c0.747-0.373,1.584-0.297,2.252,0.203c1.053,0.791,2.233,1.508,3.62,2.433
	c4.615,3.076,9.569,9.343,3.146,17.292c1.957-7.265-1.573-9.75-6.229-11.724v15.53h-0.015c-0.169,2.161-1.912,4.339-4.55,5.382
	c-3.411,1.349-7.028,0.292-8.077-2.361C8.284,28.244,10.2,24.998,13.611,23.65z"/>
</svg>
