<?xml version="1.0" encoding="iso-8859-1"?>
<!-- Generator: Adobe Illustrator 16.0.2, SVG Export Plug-In . SVG Version: 6.00 Build 0)  -->
<!DOCTYPE svg PUBLIC "-//W3C//DTD SVG 1.1//EN" "http://www.w3.org/Graphics/SVG/1.1/DTD/svg11.dtd">
<svg version="1.1" id="co_x5F_building" xmlns="http://www.w3.org/2000/svg" xmlns:xlink="http://www.w3.org/1999/xlink" x="0px"
	 y="0px" viewBox="0 0 40 40" style="enable-background:new 0 0 40 40;" xml:space="preserve">
<path fill="#0D47A1" style="fill-rule:evenodd;clip-rule:evenodd;" d="M17.314,7.556l2.969-3.711c0.173-0.216,0.41-0.331,0.687-0.331
	s0.515,0.115,0.688,0.331l2.969,3.711c0.233,0.292,0.356,0.605,0.382,0.979l1.276,18.509c0.018,0.252-0.062,0.476-0.235,0.661
	c-0.172,0.185-0.39,0.279-0.643,0.279h-8.872c-0.253,0-0.472-0.095-0.644-0.279c-0.173-0.186-0.252-0.409-0.234-0.661l1.276-18.509
	C16.958,8.161,17.081,7.848,17.314,7.556L17.314,7.556z M14.306,29.983h13.328c0.771,0,1.415,0.558,1.524,1.322l0.561,3.919
	c0.064,0.458-0.059,0.878-0.362,1.227c-0.303,0.35-0.7,0.531-1.163,0.531c-4.815,0-9.631,0-14.446,0
	c-0.463,0-0.86-0.182-1.164-0.531c-0.303-0.349-0.427-0.769-0.361-1.227l0.561-3.919C12.891,30.541,13.534,29.983,14.306,29.983z"/>
</svg>
