<?xml version="1.0" encoding="iso-8859-1"?>
<!-- Generator: Adobe Illustrator 16.0.2, SVG Export Plug-In . SVG Version: 6.00 Build 0)  -->
<!DOCTYPE svg PUBLIC "-//W3C//DTD SVG 1.1//EN" "http://www.w3.org/Graphics/SVG/1.1/DTD/svg11.dtd">
<svg version="1.1" id="co_x5F_multimedia" xmlns="http://www.w3.org/2000/svg" xmlns:xlink="http://www.w3.org/1999/xlink" x="0px"
	 y="0px" viewBox="0 0 40 40" style="enable-background:new 0 0 40 40;" xml:space="preserve">
<path fill="#0D47A1" style="fill-rule:evenodd;clip-rule:evenodd;" d="M34.975,11.658L24.878,21.754c-0.856,0.857-2.254,0.856-3.111,0l-4.579-4.58
	c-0.857-0.857-0.857-2.255,0-3.111L27.284,3.967c1.371-1.37,3.607-1.37,4.978,0l2.713,2.713
	C36.346,8.051,36.346,10.287,34.975,11.658z M19.76,24.13l-1.935,1.936c0.588,1.964,0.176,4.067-1.493,5.735
	c-1.974,1.974-5.331,1.693-8.501,1.858c-0.386,0.02-0.612-0.473-0.334-0.751l2.81-2.81c0.162-0.161,0.376-0.226,0.6-0.179
	c0.772,0.159,1.608-0.061,2.207-0.659c0.948-0.947,0.948-2.484,0-3.432c-0.947-0.947-2.483-0.947-3.431,0
	c-0.6,0.599-0.819,1.436-0.66,2.208c0.046,0.223-0.018,0.438-0.18,0.6l-2.798,2.798c-0.357,0.356-0.777,0.175-0.75-0.334
	c0.163-3.148-0.12-6.523,1.846-8.489c1.668-1.669,3.772-2.08,5.735-1.492l1.935-1.936c0.429-0.428,1.127-0.428,1.556,0l3.394,3.393
	C20.188,23.003,20.188,23.702,19.76,24.13z"/>
</svg>
