<?xml version="1.0" encoding="iso-8859-1"?>
<!-- Generator: Adobe Illustrator 16.0.2, SVG Export Plug-In . SVG Version: 6.00 Build 0)  -->
<!DOCTYPE svg PUBLIC "-//W3C//DTD SVG 1.1//EN" "http://www.w3.org/Graphics/SVG/1.1/DTD/svg11.dtd">
<svg version="1.1" id="co_x5F_culture" xmlns="http://www.w3.org/2000/svg" xmlns:xlink="http://www.w3.org/1999/xlink" x="0px"
	 y="0px" viewBox="0 0 40 40" style="enable-background:new 0 0 40 40;" xml:space="preserve">
<path fill="#0D47A1" style="fill-rule:evenodd;clip-rule:evenodd;" d="M2.884,2.016h0.632c0.242,0,0.451,0.086,0.622,0.258L4.575,2.71
	c0.343,0.343,0.902,0.343,1.245,0l0.438-0.437c0.171-0.172,0.38-0.258,0.622-0.258h1.238c0.242,0,0.45,0.086,0.622,0.258L9.176,2.71
	c0.343,0.343,0.902,0.343,1.244,0l0.438-0.437c0.171-0.172,0.379-0.258,0.622-0.258h1.238c0.242,0,0.451,0.086,0.622,0.258
	l0.437,0.437c0.343,0.343,0.901,0.343,1.244,0l0.438-0.437c0.171-0.172,0.38-0.258,0.622-0.258h1.238
	c0.242,0,0.451,0.086,0.622,0.258l0.437,0.437c0.343,0.343,0.901,0.343,1.244,0l0.438-0.437c0.171-0.172,0.38-0.258,0.622-0.258
	h1.238c0.242,0,0.451,0.086,0.622,0.258l0.437,0.437c0.343,0.343,0.901,0.343,1.244,0l0.438-0.437
	c0.171-0.172,0.38-0.258,0.622-0.258h1.238c0.242,0,0.45,0.086,0.622,0.258l0.437,0.437c0.342,0.343,0.901,0.343,1.244,0
	l0.438-0.437c0.171-0.172,0.379-0.258,0.622-0.258h1.238c0.242,0,0.451,0.086,0.622,0.258l0.437,0.437
	c0.342,0.343,0.901,0.343,1.244,0l0.438-0.437c0.171-0.172,0.38-0.258,0.622-0.258h0.631c0.484,0,0.88,0.396,0.88,0.88v0.619
	c0,0.242-0.086,0.451-0.257,0.622l-0.45,0.45c-0.342,0.343-0.342,0.902,0,1.244l0.45,0.449c0.171,0.172,0.257,0.381,0.257,0.623
	v1.213c0,0.242-0.086,0.451-0.257,0.622l-0.45,0.45c-0.342,0.343-0.342,0.901,0,1.244l0.45,0.449
	c0.171,0.171,0.257,0.38,0.257,0.622v1.213c0,0.243-0.086,0.45-0.257,0.622l-0.45,0.451c-0.342,0.342-0.342,0.9,0,1.244l0.45,0.449
	c0.171,0.171,0.257,0.379,0.257,0.621v1.214c0,0.242-0.086,0.45-0.257,0.622l-0.45,0.449c-0.342,0.344-0.342,0.902,0,1.245
	l0.45,0.449c0.171,0.171,0.257,0.38,0.257,0.622v1.213c0,0.242-0.086,0.451-0.257,0.622l-0.45,0.45
	c-0.342,0.343-0.342,0.901,0,1.244l0.45,0.449c0.171,0.172,0.257,0.38,0.257,0.622v1.214c0,0.242-0.086,0.45-0.257,0.622l-0.45,0.45
	c-0.342,0.342-0.342,0.9,0,1.243l0.45,0.45c0.171,0.171,0.257,0.38,0.257,0.622v1.213c0,0.242-0.086,0.45-0.257,0.622l-0.45,0.45
	c-0.342,0.343-0.342,0.901,0,1.244l0.45,0.449c0.171,0.172,0.257,0.38,0.257,0.622v0.62c0,0.484-0.396,0.88-0.88,0.88h-0.619
	c-0.242,0-0.45-0.087-0.622-0.258l-0.45-0.45c-0.342-0.343-0.901-0.343-1.244,0l-0.45,0.45c-0.171,0.171-0.38,0.258-0.623,0.258
	h-1.213c-0.242,0-0.45-0.087-0.622-0.258l-0.45-0.45c-0.342-0.343-0.901-0.343-1.244,0l-0.45,0.45
	c-0.171,0.171-0.38,0.258-0.622,0.258h-1.212c-0.243,0-0.451-0.087-0.622-0.258l-0.45-0.45c-0.343-0.343-0.901-0.343-1.244,0
	l-0.45,0.45c-0.171,0.171-0.379,0.258-0.622,0.258h-1.212c-0.242,0-0.451-0.087-0.622-0.258l-0.45-0.45
	c-0.343-0.343-0.901-0.343-1.244,0l-0.45,0.45c-0.171,0.171-0.38,0.258-0.622,0.258h-1.213c-0.242,0-0.451-0.087-0.622-0.258
	l-0.45-0.45c-0.343-0.343-0.901-0.343-1.244,0l-0.449,0.45c-0.172,0.171-0.38,0.258-0.623,0.258h-1.213
	c-0.242,0-0.45-0.087-0.622-0.258l-0.451-0.45c-0.342-0.343-0.901-0.343-1.244,0l-0.45,0.45c-0.171,0.171-0.379,0.258-0.622,0.258
	H6.892c-0.243,0-0.451-0.087-0.622-0.258l-0.45-0.45c-0.343-0.343-0.901-0.343-1.245,0l-0.449,0.45
	c-0.171,0.171-0.38,0.258-0.623,0.258H2.884c-0.484,0-0.88-0.396-0.88-0.88V34.51c0-0.242,0.087-0.45,0.258-0.622l0.45-0.451
	c0.342-0.342,0.342-0.901,0-1.243l-0.45-0.45c-0.171-0.172-0.258-0.38-0.258-0.622v-1.212c0-0.242,0.087-0.451,0.258-0.623
	l0.45-0.45c0.342-0.343,0.342-0.901,0-1.244l-0.45-0.449c-0.171-0.172-0.258-0.38-0.258-0.622v-1.213
	c0-0.242,0.087-0.451,0.258-0.622l0.45-0.45c0.342-0.343,0.342-0.902,0-1.244l-0.45-0.45c-0.171-0.171-0.258-0.38-0.258-0.622
	v-1.212c0-0.242,0.087-0.451,0.258-0.622l0.45-0.45c0.342-0.343,0.342-0.902,0-1.245l-0.45-0.449
	c-0.171-0.172-0.258-0.38-0.258-0.623v-1.211c0-0.243,0.087-0.451,0.258-0.623l0.45-0.45c0.342-0.343,0.342-0.901,0-1.243
	l-0.45-0.451c-0.171-0.172-0.258-0.379-0.258-0.622v-1.212c0-0.242,0.087-0.451,0.258-0.622l0.45-0.451
	c0.342-0.343,0.342-0.901,0-1.243l-0.45-0.45c-0.171-0.171-0.258-0.38-0.258-0.622V6.903c0-0.242,0.087-0.45,0.258-0.622l0.45-0.45
	c0.342-0.342,0.342-0.902,0-1.244l-0.45-0.45c-0.171-0.171-0.258-0.38-0.258-0.622V2.896C2.004,2.411,2.4,2.016,2.884,2.016
	L2.884,2.016z M8.88,22.785l1.606,1.601c0.343,0.342,0.9,0.342,1.243-0.001l6.594-6.595c0.428-0.428,1.127-0.428,1.555,0
	l7.545,7.545c0.343,0.343,0.901,0.343,1.245,0l0.707-0.707c0.429-0.429,1.127-0.429,1.555,0l1.691,1.691
	c0.064,0.064,0.156,0.083,0.24,0.047c0.084-0.034,0.135-0.111,0.135-0.203v-7.319c-0.226,0.108-0.479,0.169-0.746,0.169H25.82
	c-0.96,0-1.746-0.785-1.746-1.746l0,0c0-0.794,0.537-1.469,1.265-1.678c-0.02-0.092-0.031-0.188-0.031-0.285
	c0-0.729,0.591-1.321,1.321-1.321c0.434,0,0.819,0.209,1.06,0.532c0.364-0.92,1.269-1.571,2.326-1.571
	c1.38,0,2.499,1.107,2.499,2.473c0,0.042-0.001,0.083-0.003,0.125c0.171,0.024,0.335,0.076,0.487,0.148V5.015H5.003V24.57
	c0,0.091,0.052,0.169,0.136,0.204c0.084,0.034,0.175,0.017,0.24-0.048l1.948-1.941C7.755,22.358,8.452,22.358,8.88,22.785
	L8.88,22.785z M32.997,28.803l-0.008,0.009l0.008,0.012V28.803L32.997,28.803z M17.577,9.396c0.003-0.055,0.004-0.109,0.004-0.165
	c0-1.815-1.487-3.287-3.321-3.287c-1.407,0-2.609,0.866-3.093,2.089c-0.32-0.43-0.832-0.708-1.409-0.708
	c-0.97,0-1.757,0.786-1.757,1.757c0,0.13,0.015,0.257,0.042,0.379C7.074,9.739,6.36,10.636,6.36,11.69l0,0
	c0,1.277,1.045,2.321,2.321,2.321h8.552c1.275,0,2.32-1.045,2.32-2.321l0,0C19.553,10.531,18.691,9.563,17.577,9.396z"/>
</svg>
