<?xml version="1.0" encoding="iso-8859-1"?>
<!-- Generator: Adobe Illustrator 16.0.2, SVG Export Plug-In . SVG Version: 6.00 Build 0)  -->
<!DOCTYPE svg PUBLIC "-//W3C//DTD SVG 1.1//EN" "http://www.w3.org/Graphics/SVG/1.1/DTD/svg11.dtd">
<svg version="1.1" id="co_x5F_culture" xmlns="http://www.w3.org/2000/svg" xmlns:xlink="http://www.w3.org/1999/xlink" x="0px"
	 y="0px" viewBox="0 0 40 40" style="enable-background:new 0 0 40 40;" xml:space="preserve">
<path fill="#0D47A1" style="fill-rule:evenodd;clip-rule:evenodd;" d="M9.045,1.989h21.926c3.574,0,6.498,2.924,6.498,6.498l0,0
	c0,2.492-1.397,3.89-0.886,3.182c-1.351,1.874-3.379,1.933-3.846,1.933c-1.069,0-2.076-0.278-2.866-0.813
	c-1.745-1.177-1.475-1.904-1.575-2.502c-0.071-0.57-0.026-1.232,0.211-1.785c0.442-1.032,1.678-1.373,2.487-0.816
	c1.268,0.873-0.26,1.62,0.173,1.351c-0.545,0.34-0.711,1.056-0.373,1.601c0.338,0.545,1.056,0.711,1.6,0.373
	c0.462-0.289,0.851-0.707,1.1-1.238c0.197-0.42,0.906-2.557-1.181-3.995c-1.989-1.37-4.903-0.609-5.942,1.815
	c-0.414,0.964-0.499,2.06-0.384,2.978c0.035,0.282,0.092,0.559,0.164,0.815c0.394,1.395,1.231,2.566,2.412,3.357
	c0.251,0.168,0.39,0.428,0.39,0.73v0.85c0,0.363-0.296,0.69-0.66,0.691l-16.647-0.023c-0.364,0-0.66-0.297-0.66-0.661v-0.843
	c0-0.304,0.14-0.565,0.393-0.733c1.194-0.793,2.079-1.968,2.474-3.368c0.072-0.257,0.129-0.533,0.164-0.815
	c0.114-0.918,0.029-2.014-0.384-2.978c-1.04-2.425-3.955-3.186-5.942-1.815C5.694,7.149,6.235,9.188,6.508,9.771
	c0.249,0.53,0.638,0.949,1.1,1.238c0.545,0.338,1.262,0.172,1.601-0.373c0.338-0.545,0.171-1.261-0.373-1.601
	C8.636,8.911,8.525,8.716,8.551,8.392h0.001l0.004-0.04l0.001,0.001c0.035-0.283,0.554-1.213,1.831-0.855
	c0.56,0.158,0.91,0.545,1.106,1.004c0.237,0.553,0.283,1.215,0.211,1.785c0.113-0.905,0.167,1.326-1.574,2.502
	c-0.79,0.535-1.797,0.813-2.866,0.813c-3.121,0-4.385-2.796-4.035-2.222c-0.325-0.648-0.545-1.357-0.636-2.105
	C2.583,8.97,2.547,8.487,2.547,8.487C2.547,4.912,5.471,1.989,9.045,1.989L9.045,1.989z M11.646,20.988h16.676
	c0.363,0,0.66,0.297,0.66,0.659v15.678c0,0.363-0.297,0.659-0.66,0.659h-1.679c-0.364,0-0.66-0.296-0.66-0.659V23.647
	c0-0.363-0.297-0.66-0.66-0.66h-0.679c-0.364,0-0.66,0.297-0.66,0.66v13.678c0,0.363-0.297,0.659-0.66,0.659h-1.679
	c-0.364,0-0.66-0.296-0.66-0.659V23.647c0-0.363-0.296-0.66-0.66-0.66h-0.68c-0.363,0-0.66,0.297-0.66,0.66v13.678
	c0,0.363-0.296,0.659-0.66,0.659h-1.68c-0.364,0-0.66-0.296-0.66-0.659V23.647c0-0.363-0.297-0.66-0.66-0.66h-0.68
	c-0.364,0-0.66,0.297-0.66,0.66v13.678c0,0.363-0.297,0.659-0.66,0.659h-1.679c-0.364,0-0.66-0.296-0.66-0.659V21.647
	C10.985,21.285,11.282,20.988,11.646,20.988L11.646,20.988z M11.646,17.988h16.676c0.363,0,0.66,0.297,0.66,0.66v0.68
	c0,0.363-0.297,0.659-0.66,0.659H11.646c-0.364,0-0.66-0.296-0.66-0.659v-0.68C10.985,18.285,11.282,17.988,11.646,17.988z"/>
</svg>
