<?xml version="1.0" encoding="iso-8859-1"?>
<!-- Generator: Adobe Illustrator 16.0.2, SVG Export Plug-In . SVG Version: 6.00 Build 0)  -->
<!DOCTYPE svg PUBLIC "-//W3C//DTD SVG 1.1//EN" "http://www.w3.org/Graphics/SVG/1.1/DTD/svg11.dtd">
<svg version="1.1" id="co_x5F_player" xmlns="http://www.w3.org/2000/svg" xmlns:xlink="http://www.w3.org/1999/xlink" x="0px"
	 y="0px" viewBox="0 0 40 40" style="enable-background:new 0 0 40 40;" xml:space="preserve">
<path fill="#0D47A1" style="fill-rule:evenodd;clip-rule:evenodd;" d="M29.659,26.846l-0.183-0.183c-0.702-0.702-0.702-1.848,0-2.551l2.121-2.12
	h-5.659c-1.071,0-1.939-0.868-1.939-1.939V9.994h-2.004v22.055c0,1.072-0.868,1.94-1.94,1.94h-6.126c-1.072,0-1.94-0.869-1.94-1.94
	V9.994H9.985c0,0,0.008,14.899,0.008,10.036c0,1.071-0.869,1.94-1.94,1.94H3.94c-1.072,0-1.94-0.9-1.94-1.972
	s0.868-2.004,1.94-2.004h2.055V7.93c0-1.067,0.865-1.933,1.933-1.933V5.989h6.126c1.071,0,1.94,0.869,1.94,1.94v22.055h1.996V7.93
	c0-1.071,0.869-1.94,1.94-1.94h6.133c1.072,0,1.94,0.869,1.94,1.94v10.058h3.854l-2.381-2.381c-0.702-0.702-0.702-1.848,0-2.551
	l0.183-0.182c0.702-0.702,1.849-0.702,2.551,0l6.924,7.048l-6.924,6.924C31.508,27.548,30.361,27.548,29.659,26.846z"/>
</svg>
