<?xml version="1.0" encoding="iso-8859-1"?>
<!-- Generator: Adobe Illustrator 16.0.2, SVG Export Plug-In . SVG Version: 6.00 Build 0)  -->
<!DOCTYPE svg PUBLIC "-//W3C//DTD SVG 1.1//EN" "http://www.w3.org/Graphics/SVG/1.1/DTD/svg11.dtd">
<svg version="1.1" id="co_x5F_player" xmlns="http://www.w3.org/2000/svg" xmlns:xlink="http://www.w3.org/1999/xlink" x="0px"
	 y="0px" viewBox="0 0 40 40" style="enable-background:new 0 0 40 40;" xml:space="preserve">
<path fill="#0D47A1" d="M26.877,12.016c-1.072,0-1.941-0.963-1.941-2.034c0-1.072,0.869-2.003,1.941-2.003h2.564h0.002v0.008
	c2.074,0,3.959,0.848,5.324,2.212c1.357,1.36,2.203,3.241,2.203,5.313h0.008v0.003v12.957v0.001h-0.008
	c0,2.075-0.848,3.959-2.213,5.323c-1.359,1.359-3.238,2.203-5.313,2.204v0.008h-0.004H11.525h-0.002V36
	c-2.074,0-3.959-0.848-5.323-2.213c-1.358-1.358-2.203-3.239-2.204-5.313H3.988v-0.003V15.515v-0.002h0.008
	c0.001-2.074,0.849-3.958,2.213-5.322c1.359-1.359,3.239-2.203,5.313-2.204V7.979h0.004v0.008h3.251l-2.309-2.309
	c-0.702-0.702-0.703-1.849-0.001-2.551l0.183-0.182c0.703-0.703,1.849-0.703,2.551,0l6.925,7.017L15.2,16.948
	c-0.702,0.703-1.848,0.703-2.551,0l-0.182-0.182c-0.702-0.703-0.702-1.849,0-2.552l2.208-2.208H11.65v0.008h-0.004v-0.008
	c-1.001,0-1.917,0.416-2.585,1.083c-0.663,0.664-1.075,1.577-1.075,2.579h0.008v0.001v12.676v0.003H7.986
	c0,1.001,0.415,1.917,1.083,2.584c0.663,0.664,1.576,1.076,2.579,1.076v-0.007h0.002h17.697h0.004v0.007
	c1.002,0,1.918-0.415,2.586-1.083c0.662-0.663,1.074-1.576,1.074-2.579h-0.008v-0.001V15.67v-0.002h0.008
	c0-1.001-0.414-1.917-1.082-2.585c-0.664-0.664-1.576-1.076-2.58-1.076v0.008h-0.002H26.877z"/>
</svg>
