<?xml version="1.0" encoding="iso-8859-1"?>
<!-- Generator: Adobe Illustrator 16.0.2, SVG Export Plug-In . SVG Version: 6.00 Build 0)  -->
<!DOCTYPE svg PUBLIC "-//W3C//DTD SVG 1.1//EN" "http://www.w3.org/Graphics/SVG/1.1/DTD/svg11.dtd">
<svg version="1.1" id="co_x5F_work" xmlns="http://www.w3.org/2000/svg" xmlns:xlink="http://www.w3.org/1999/xlink" x="0px"
	 y="0px" viewBox="0 0 40 40" style="enable-background:new 0 0 40 40;" xml:space="preserve">
<path fill="#0D47A1" style="fill-rule:evenodd;clip-rule:evenodd;" d="M5.727,7.981h5.777c-0.154,0.376-0.239,0.788-0.239,1.22
	c0,1.777,1.441,3.219,3.219,3.219s3.219-1.442,3.219-3.219c0-0.432-0.086-0.844-0.24-1.22h4.038
	c-0.154,0.376-0.239,0.788-0.239,1.22c0,1.777,1.441,3.219,3.22,3.219c1.777,0,3.219-1.442,3.219-3.219
	c0-0.432-0.085-0.844-0.24-1.22h6.778c2.06,0,3.739,1.68,3.739,3.739v21.515c0,2.06-1.68,3.74-3.739,3.74H5.727
	c-2.06,0-3.739-1.68-3.739-3.74V11.72C1.987,9.66,3.667,7.981,5.727,7.981L5.727,7.981z M14.305,2.982
	c-0.727,0-1.32,0.593-1.32,1.319V9.21c0,0.727,0.594,1.319,1.32,1.319h0.359c0.727,0,1.32-0.594,1.32-1.319V4.301
	c0-0.726-0.593-1.319-1.32-1.319H14.305L14.305,2.982z M24.302,2.982c-0.727,0-1.32,0.593-1.32,1.319V9.21
	c0,0.727,0.594,1.319,1.32,1.319h0.359c0.727,0,1.32-0.594,1.32-1.319V4.301c0-0.726-0.593-1.319-1.32-1.319H24.302L24.302,2.982z
	 M6.15,28.092c-0.585,0.315-0.925,0.885-0.925,1.549v0.589c0,0.969,0.791,1.76,1.76,1.76h11.477c0.969,0,1.759-0.791,1.759-1.76
	v-0.589c0-0.665-0.34-1.234-0.925-1.549l-4.327-2.33c-0.669,0.397-1.433,0.621-2.246,0.622v0.001h0h-0.001v-0.001
	c-0.812,0-1.576-0.225-2.246-0.622L6.15,28.092L6.15,28.092z M12.724,16.152L12.724,16.152L12.724,16.152l-0.001,0.001v-0.001
	c-1.064,0-2.031,0.487-2.734,1.274c-0.714,0.8-1.156,1.909-1.156,3.137h0.002v0v0.002H8.832c0,1.227,0.442,2.336,1.156,3.135
	c0.703,0.788,1.669,1.276,2.734,1.276v-0.001h0.001h0v0.001c1.064,0,2.031-0.487,2.734-1.274c0.714-0.801,1.157-1.91,1.157-3.138
	h-0.002v-0.001v-0.001h0.002c0-1.226-0.443-2.335-1.158-3.136l0.001-0.001C14.755,16.639,13.788,16.152,12.724,16.152L12.724,16.152
	z M23.862,30.976c-0.484,0-0.88,0.396-0.88,0.88v0.239c0,0.485,0.396,0.88,0.88,0.88H34.1c0.485,0,0.88-0.396,0.88-0.88v-0.24
	c0-0.485-0.395-0.88-0.88-0.88H23.862L23.862,30.976z M23.862,14.979c-0.484,0-0.879,0.395-0.88,0.88v0.24
	c0,0.484,0.396,0.879,0.88,0.879H34.1c0.485,0,0.88-0.395,0.88-0.879v-0.24c0-0.485-0.395-0.88-0.88-0.88H23.862L23.862,14.979z
	 M23.862,18.978c-0.484,0-0.879,0.396-0.88,0.88v0.24c0,0.484,0.396,0.88,0.88,0.88H34.1c0.485,0,0.88-0.396,0.88-0.88v-0.24
	c0-0.484-0.395-0.88-0.88-0.88H23.862L23.862,18.978z M23.862,22.978c-0.484,0-0.88,0.395-0.88,0.88v0.24
	c0,0.484,0.396,0.88,0.88,0.88H34.1c0.485,0,0.88-0.396,0.88-0.88v-0.24c0-0.485-0.395-0.88-0.88-0.88H23.862L23.862,22.978z
	 M23.862,26.977c-0.484,0-0.88,0.395-0.88,0.879v0.24c0,0.485,0.396,0.88,0.88,0.88H34.1c0.485,0,0.88-0.395,0.88-0.879v-0.24
	c0-0.485-0.395-0.879-0.88-0.879H23.862z"/>
</svg>
