<?xml version="1.0" encoding="iso-8859-1"?>
<!-- Generator: Adobe Illustrator 16.0.2, SVG Export Plug-In . SVG Version: 6.00 Build 0)  -->
<!DOCTYPE svg PUBLIC "-//W3C//DTD SVG 1.1//EN" "http://www.w3.org/Graphics/SVG/1.1/DTD/svg11.dtd">
<svg version="1.1" id="co_x5F_transport" xmlns="http://www.w3.org/2000/svg" xmlns:xlink="http://www.w3.org/1999/xlink" x="0px"
	 y="0px" viewBox="0 0 40 40" style="enable-background:new 0 0 40 40;" xml:space="preserve">
<path fill="#0D47A1" style="fill-rule:evenodd;clip-rule:evenodd;" d="M34.865,17.996c-0.478,0-0.878,0.409-0.878,0.889v4.243
	c0,0.479,0.396,0.881,0.88,0.881l4.123-0.002v1.928c0,1.072-0.582,2.019-1.415,2.572l-0.212-0.241
	c-0.17-0.17-0.377-0.254-0.617-0.254H26.451c-0.24,0-0.446,0.084-0.618,0.254l-1.766,1.727c-2.685-0.001-5.371-0.002-8.058-0.004
	l-1.762-1.723c-0.172-0.17-0.377-0.254-0.616-0.254H3.366c-0.24,0-0.445,0.084-0.617,0.254l-0.286,0.282
	c-0.872-0.546-1.454-1.516-1.454-2.617v-8.865c0-1.697,1.382-3.082,3.077-3.082H6.01c0.006-0.549,0.448-0.99,0.996-0.99h0.543
	l-3.04-2.344c-1.164-0.9,0.115-1.813,0.221-1.851L4.575,8.917c0.158-0.103,0.18-0.127,0.154-0.118l4.673-3.592
	c0.386-0.298,0.913-0.279,1.277,0.012l4.87,3.747c1.383,1.061-0.849,2.329,0.002,1.684l-3.022,2.344h0.47
	c0.551,0,0.993,0.44,0.997,0.99h11.991c0.002-0.552,0.446-0.99,0.997-0.99h0.542l-3.04-2.344c-1.164-0.9,0.115-1.813,0.221-1.851
	l-0.154,0.118c0.158-0.103,0.18-0.127,0.154-0.118l4.673-3.592c0.386-0.298,0.913-0.279,1.277,0.012l4.87,3.747
	c1.383,1.061-0.849,2.329,0.002,1.684l-3.022,2.344h0.471c0.552,0,0.998,0.438,0.998,0.99h2.029c1.936,0,2.997,1.337,2.997,3.012
	c0,0,0,0.488,0,1.001C37.322,17.996,34.865,17.996,34.865,17.996z M7.107,18.005H4.884c-0.482,0-0.878,0.396-0.878,0.882v4.242
	c0,0.483,0.394,0.881,0.878,0.881h2.224c0.484,0,0.88-0.396,0.88-0.881v-4.242C7.987,18.401,7.592,18.005,7.107,18.005z
	 M12.619,9.81l-2.587-1.991L7.443,9.808l2.595,2L12.619,9.81z M13.98,18.887c0-0.485-0.396-0.882-0.88-0.882h-2.224
	c-0.482,0-0.878,0.396-0.878,0.882v4.242c0,0.483,0.394,0.881,0.878,0.881h2.224c0.484,0,0.88-0.396,0.88-0.881V18.887z
	 M19.992,18.887c0-0.485-0.398-0.882-0.881-0.882h-2.224c-0.481,0-0.88,0.398-0.88,0.882v4.242c0,0.482,0.396,0.881,0.88,0.881
	h2.224c0.484,0,0.881-0.396,0.881-0.881V18.887z M26.001,18.887c0-0.485-0.398-0.882-0.878-0.882h-2.256
	c-0.479,0-0.88,0.398-0.88,0.882v4.242c0,0.481,0.396,0.881,0.88,0.881h2.256c0.483,0,0.878-0.396,0.878-0.881V18.887z
	 M27.998,23.129c0,0.48,0.395,0.881,0.88,0.881h2.225c0.483,0,0.878-0.396,0.878-0.881v-4.242c0-0.485-0.398-0.882-0.878-0.882
	h-2.225c-0.479,0-0.88,0.4-0.88,0.882V23.129z M32.597,9.81L30.01,7.818l-2.589,1.989l2.595,2L32.597,9.81z M7.742,30.014
	c0.13,0.297,0.202,0.626,0.202,0.971c0,1.337-1.082,2.421-2.417,2.421c-1.334,0-2.415-1.084-2.415-2.421
	c0-0.345,0.072-0.674,0.201-0.971H7.742z M13.515,30.014c0.131,0.297,0.201,0.626,0.201,0.971c0,1.337-1.081,2.421-2.416,2.421
	c-1.334,0-2.417-1.084-2.417-2.421c0-0.345,0.072-0.674,0.203-0.971H13.515z M30.827,30.014c0.129,0.297,0.201,0.626,0.201,0.971
	c0,1.337-1.081,2.421-2.415,2.421c-1.335,0-2.418-1.084-2.418-2.421c0-0.345,0.072-0.674,0.203-0.971H30.827z M36.598,30.014
	c0.131,0.297,0.203,0.626,0.203,0.971c0,1.337-1.083,2.421-2.417,2.421s-2.417-1.084-2.417-2.421c0-0.345,0.074-0.674,0.203-0.971
	H36.598z"/>
</svg>
