<?xml version="1.0" encoding="iso-8859-1"?>
<!-- Generator: Adobe Illustrator 16.0.2, SVG Export Plug-In . SVG Version: 6.00 Build 0)  -->
<!DOCTYPE svg PUBLIC "-//W3C//DTD SVG 1.1//EN" "http://www.w3.org/Graphics/SVG/1.1/DTD/svg11.dtd">
<svg version="1.1" id="co_x5F_education_x5F_1_x5C_2"
	 xmlns="http://www.w3.org/2000/svg" xmlns:xlink="http://www.w3.org/1999/xlink" x="0px" y="0px"
	 viewBox="0 0 40 40" style="enable-background:new 0 0 40 40;" xml:space="preserve">
<path fill="#0D47A1" style="fill-rule:evenodd;clip-rule:evenodd;" d="M22.344,4.238l3.67,9.191l9.779,0.721c2.313,0.232,3.057,3.069,1.338,4.313
	l-7.605,6.33l2.334,9.523c0.494,2.27-1.975,3.855-3.688,2.605l-8.371-5.278l-8.334,5.163c-2.007,1.172-4.277-0.686-3.618-2.701
	l2.433-9.594l-7.486-6.331c-1.733-1.546-0.669-4.28,1.452-4.276l9.875-0.65l3.708-9.076C18.764,2.052,21.693,2.219,22.344,4.238
	L22.344,4.238z M20.068,6.843l-0.121,0.298v20.955l8.537,5.383l-2.41-9.819l7.877-6.557l-10.082-0.743L20.068,6.843z"/>
</svg>
