<?xml version="1.0" encoding="iso-8859-1"?>
<!-- Generator: Adobe Illustrator 16.0.2, SVG Export Plug-In . SVG Version: 6.00 Build 0)  -->
<!DOCTYPE svg PUBLIC "-//W3C//DTD SVG 1.1//EN" "http://www.w3.org/Graphics/SVG/1.1/DTD/svg11.dtd">
<svg version="1.1" id="co_x5F_education_x5F_1_x5C_2"
	 xmlns="http://www.w3.org/2000/svg" xmlns:xlink="http://www.w3.org/1999/xlink" x="0px" y="0px"
	 viewBox="0 0 40 40" style="enable-background:new 0 0 40 40;" xml:space="preserve">
<path fill="#0D47A1" style="fill-rule:evenodd;clip-rule:evenodd;" d="M22.332,4.238l3.67,9.191l9.777,0.721c2.313,0.232,3.059,3.069,1.34,4.313
	l-7.607,6.33l2.336,9.523c0.494,2.27-1.975,3.855-3.688,2.605l-8.373-5.278l-8.334,5.163c-2.006,1.172-4.277-0.686-3.617-2.701
	l2.434-9.594l-7.488-6.331c-1.732-1.546-0.668-4.28,1.453-4.276l9.875-0.65l3.707-9.076C18.752,2.052,21.682,2.219,22.332,4.238
	L22.332,4.238z M20.055,6.843l-3.822,9.359L6.006,16.876l7.721,6.528l-2.52,9.933l8.596-5.324l8.668,5.466l-2.408-9.819l7.877-6.557
	l-10.084-0.743L20.055,6.843z"/>
</svg>
