<?xml version="1.0" encoding="iso-8859-1"?>
<!-- Generator: Adobe Illustrator 16.0.2, SVG Export Plug-In . SVG Version: 6.00 Build 0)  -->
<!DOCTYPE svg PUBLIC "-//W3C//DTD SVG 1.1//EN" "http://www.w3.org/Graphics/SVG/1.1/DTD/svg11.dtd">
<svg version="1.1" id="co_x5F_user" xmlns="http://www.w3.org/2000/svg" xmlns:xlink="http://www.w3.org/1999/xlink" x="0px"
	 y="0px" viewBox="0 0 40 40" style="enable-background:new 0 0 40 40;" xml:space="preserve">
<path fill="#0D47A1" style="fill-rule:evenodd;clip-rule:evenodd;" d="M36.329,29.301l-5.099,5.099c-0.782,0.782-2.057,0.742-2.828-0.027
	l-2.941-3.112c-0.748-0.792-0.771-2.03,0-2.801l0.028-0.028c0.771-0.771,2.029-0.771,2.8,0l1.627,1.627l3.585-3.584
	c0.771-0.772,2.029-0.772,2.8,0l0.028,0.027C37.1,27.272,37.1,28.53,36.329,29.301z M29.605,27.199
	c-1.562-1.563-4.095-1.563-5.657,0c-0.772,0.771-1.159,1.78-1.168,2.793h-0.119H6.724c-1.472,0-2.733-0.79-3.376-2.114
	c-0.643-1.326-0.483-2.806,0.428-3.962c0.47-0.597,1.073-1.103,1.79-1.488l7.196-3.875c2.702,1.601,5.98,1.603,8.685-0.001
	c0,0,5.241,2.977,7.364,4.003c0.628,0.37,1.175,0.822,1.601,1.361c0.511,0.648,0.759,1.398,0.788,2.166l-1.355,1.355L29.605,27.199z
	 M22.392,15.591c-2.7,3.023-7.416,3.54-10.576-0.002c-2.982-3.342-2.98-8.794,0.001-12.135c2.931-3.281,7.644-3.281,10.574,0
	l-0.002,0.001C25.363,6.788,25.377,12.245,22.392,15.591z"/>
</svg>
