<?xml version="1.0" encoding="iso-8859-1"?>
<!-- Generator: Adobe Illustrator 16.0.2, SVG Export Plug-In . SVG Version: 6.00 Build 0)  -->
<!DOCTYPE svg PUBLIC "-//W3C//DTD SVG 1.1//EN" "http://www.w3.org/Graphics/SVG/1.1/DTD/svg11.dtd">
<svg version="1.1" id="co_x5F_player" xmlns="http://www.w3.org/2000/svg" xmlns:xlink="http://www.w3.org/1999/xlink" x="0px"
	 y="0px" viewBox="0 0 40 40" style="enable-background:new 0 0 40 40;" xml:space="preserve">
<path fill="#0D47A1" d="M9.802,18.503c0,1.072-0.869,1.94-1.94,1.94c-1.072,0-1.94-0.868-1.94-1.94v-0.001h0.007c0-3.747,1.515-7.134,3.963-9.582
	c2.447-2.446,5.833-3.96,9.578-3.961V4.95h0.003h0.001v0.009c3.746,0,7.133,1.515,9.581,3.962c2.446,2.447,3.96,5.834,3.961,9.578
	h0.008v0.004v0.001h-0.008c0,3.746-1.515,7.134-3.962,9.582c-2.339,2.337-5.537,3.824-9.084,3.952l1.978,1.977
	c0.702,0.702,0.702,1.848,0,2.551l-0.182,0.182c-0.703,0.702-1.849,0.702-2.551,0l-6.924-6.923l6.924-6.924
	c0.703-0.703,1.849-0.703,2.551,0l0.182,0.182c0.703,0.704,0.702,1.848,0,2.552l-2.542,2.541l0.067,0h0.003v0.008
	c2.664-0.001,5.081-1.086,6.835-2.841s2.841-4.173,2.841-6.837h-0.007v-0.001v-0.004h0.007c0-2.663-1.086-5.08-2.84-6.834
	c-1.755-1.755-4.173-2.841-6.837-2.841v0.007h-0.001H19.47V8.824c-2.664,0-5.081,1.085-6.835,2.839
	c-1.755,1.755-2.841,4.174-2.841,6.838L9.802,18.503L9.802,18.503z"/>
</svg>
