<?xml version="1.0" encoding="iso-8859-1"?>
<!-- Generator: Adobe Illustrator 16.0.2, SVG Export Plug-In . SVG Version: 6.00 Build 0)  -->
<!DOCTYPE svg PUBLIC "-//W3C//DTD SVG 1.1//EN" "http://www.w3.org/Graphics/SVG/1.1/DTD/svg11.dtd">
<svg version="1.1" id="co_x5F_basic" xmlns="http://www.w3.org/2000/svg" xmlns:xlink="http://www.w3.org/1999/xlink" x="0px"
	 y="0px" viewBox="0 0 40 40" style="enable-background:new 0 0 40 40;" xml:space="preserve">
<path fill="#0D47A1" style="fill-rule:evenodd;clip-rule:evenodd;" d="M17.508,1.988c8,0,14.487,6.488,14.487,14.488
	c0,2.898-0.853,5.597-2.319,7.862l5.542,5.543c1.114,1.114,1.114,2.931,0,4.043l-0.201,0.201c-1.114,1.114-2.931,1.114-4.044,0
	l-5.53-5.53c-2.279,1.497-5.005,2.368-7.935,2.368c-8,0-14.488-6.488-14.488-14.487C3.021,8.476,9.508,1.988,17.508,1.988
	L17.508,1.988z M17.508,6.993c-5.236,0-9.482,4.247-9.482,9.483c0,5.235,4.246,9.482,9.482,9.482c5.237,0,9.483-4.247,9.483-9.482
	C26.991,11.24,22.745,6.993,17.508,6.993z"/>
</svg>
