<?xml version="1.0" encoding="iso-8859-1"?>
<!-- Generator: Adobe Illustrator 16.0.2, SVG Export Plug-In . SVG Version: 6.00 Build 0)  -->
<!DOCTYPE svg PUBLIC "-//W3C//DTD SVG 1.1//EN" "http://www.w3.org/Graphics/SVG/1.1/DTD/svg11.dtd">
<svg version="1.1" id="co_x5F_transport" xmlns="http://www.w3.org/2000/svg" xmlns:xlink="http://www.w3.org/1999/xlink" x="0px"
	 y="0px" width="40px" height="40px" viewBox="0 0 40 40" style="enable-background:new 0 0 40 40;" xml:space="preserve">
<path fill="#0D47A1" style="fill-rule:evenodd;clip-rule:evenodd;" d="M35.5,27.751l-2.514,3.086c-0.649,0.758-1.508,1.153-2.505,1.153H7.18
	c-1.349,0-2.501-0.76-3.033-2.001l-1.179-2.521c-0.624-1.393,0.115-2.477,1.496-2.477L6,24.995v-0.994c0-1.104,0.896-2,2-2h1v-1
	c0-1.104,0.896-2,2-2h1v-1c0-1.105,0.896-2,2-2h0.01l-0.008-0.008v-5.654c0-0.727,0.593-1.32,1.32-1.32h1.36
	c0.727,0,1.32,0.594,1.32,1.32L18,16.001h6c1.104,0,2,0.895,2,2v1h1c1.104,0,2,0.896,2,2v1h1c1.104,0,2,0.896,2,2v0.67l2.125,0.33
	C35.753,25.001,36.363,26.888,35.5,27.751z M10.001,24.993c0-0.553-0.447-1-1-1s-1,0.447-1,1h0H10.001L10.001,24.993z
	 M13.001,21.993c0-0.552-0.447-1-1-1s-1,0.448-1,1h0H13.001L13.001,21.993z M14,24.993c0-0.553-0.447-1-1-1s-1,0.447-1,1l0,0H14
	L14,24.993z M16.001,18.992c0-0.552-0.447-0.999-1-0.999s-1,0.447-1,0.999l0,0.001L16.001,18.992L16.001,18.992z M17,21.993
	c0-0.552-0.447-1-1-1s-1,0.448-1,1l0,0H17L17,21.993z M18,24.993c0-0.553-0.448-1-1-1s-1,0.447-1,1l0,0H18L18,24.993z
	 M20.001,18.992c0-0.552-0.448-0.999-1-0.999s-1,0.447-1,0.999v0.001L20.001,18.992L20.001,18.992z M21,21.993c0-0.552-0.448-1-1-1
	s-1,0.448-1,1l0,0H21L21,21.993z M21.002,23.993c-0.552,0-1,0.447-1,1h0h2h0C22.001,24.44,21.554,23.993,21.002,23.993z M24,18.992
	c0-0.552-0.448-0.999-1-0.999s-1,0.447-1,0.999l0,0.001L24,18.992L24,18.992z M25.001,21.993c0-0.552-0.447-1-1-1s-1,0.448-1,1h0
	H25.001L25.001,21.993z M26.001,24.993c0-0.553-0.448-1-1-1s-1,0.447-1,1h0H26.001L26.001,24.993z M30,24.993c0-0.553-0.448-1-1-1
	s-1,0.447-1,1l0,0H30L30,24.993z M29.486,26.986c-0.828,0-1.5,0.673-1.5,1.5c0,0.828,0.672,1.5,1.5,1.5s1.5-0.672,1.5-1.5
	C30.985,27.659,30.314,26.986,29.486,26.986z"/>
</svg>
