<?xml version="1.0" encoding="iso-8859-1"?>
<!-- Generator: Adobe Illustrator 16.0.2, SVG Export Plug-In . SVG Version: 6.00 Build 0)  -->
<!DOCTYPE svg PUBLIC "-//W3C//DTD SVG 1.1//EN" "http://www.w3.org/Graphics/SVG/1.1/DTD/svg11.dtd">
<svg version="1.1" id="co_x5F_transport" xmlns="http://www.w3.org/2000/svg" xmlns:xlink="http://www.w3.org/1999/xlink" x="0px"
	 y="0px" width="40px" height="40px" viewBox="0 0 40 40" style="enable-background:new 0 0 40 40;" xml:space="preserve">
<path fill="white" style="fill-rule:evenodd;clip-rule:evenodd;" d="M29,31.001h-0.448l2.883,4.993c0.255,0.441-0.063,0.99-0.571,0.99L28,37.001
	c-0.898,0-0.89-2-2-2H14c-1.11,0-1,2-2,2l-2.845-0.017c-0.508,0-0.826-0.549-0.571-0.99l2.883-4.993H11c-1.657,0-3-1.344-3-3v-21
	c0-1.657,1.343-3,3-3h4.184c0.413-1.163,1.512-2,2.816-2h4c1.305,0,2.403,0.837,2.816,2H29c1.657,0,3,1.343,3,3v21
	C32,29.657,30.657,31.001,29,31.001z M15,33.001h10c1.138,0,0.138-2-1-2h-8C14.862,31.001,13.862,33.001,15,33.001z M13.011,25.986
	c1.104,0,2-0.896,2-2c0-1.104-0.896-1.999-2-1.999s-1.999,0.896-1.999,1.999C11.012,25.091,11.906,25.986,13.011,25.986z M17,10.001
	h-4c-1.104,0-2,0.896-2,2v6c0,1.104,0.896,2,2,2h4c1.104,0,2-0.896,2-2v-6C19,10.896,18.104,10.001,17,10.001z M20.01,3.991
	c-1.104,0-2,0.896-2,2c0,1.104,0.896,2,2,2c1.104,0,1.999-0.896,1.999-2C22.009,4.887,21.113,3.991,20.01,3.991z M29,12.001
	c0-1.104-0.896-2-2-2h-4c-1.104,0-2,0.896-2,2v6c0,1.104,0.896,2,2,2h4c1.104,0,2-0.896,2-2V12.001z M27.008,21.987
	c-1.104,0-2,0.896-2,1.999c0,1.104,0.896,2,2,2s1.999-0.896,1.999-2C29.007,22.883,28.112,21.987,27.008,21.987z"/>
</svg>
