<?xml version="1.0" encoding="utf-8"?>
<!-- Generator: Adobe Illustrator 16.0.2, SVG Export Plug-In . SVG Version: 6.00 Build 0)  -->
<!DOCTYPE svg PUBLIC "-//W3C//DTD SVG 1.1//EN" "http://www.w3.org/Graphics/SVG/1.1/DTD/svg11.dtd">
<svg version="1.1" id="co_x5F_transport" xmlns="http://www.w3.org/2000/svg" xmlns:xlink="http://www.w3.org/1999/xlink" x="0px"
	 y="0px" viewBox="0 0 40 40" enable-background="new 0 0 40 40" xml:space="preserve">
<path fill="#C5E1A5" fill-rule="evenodd" clip-rule="evenodd" d="M32.74,37.316c-1.422,0.001-2.867-1.788-4.283-1.788s-2.804,1.789-4.214,1.788
	s-2.832-1.795-4.248-1.795s-2.827,1.794-4.249,1.795c-1.421,0.001-2.866-1.788-4.282-1.788s-2.804,1.789-4.214,1.788
	c-1.411-0.001-2.832-1.795-4.248-1.795v-2.493c1.416,0,2.837,1.794,4.248,1.795c1.41,0,2.798-1.788,4.214-1.788
	s2.861,1.788,4.282,1.788c1.422-0.001,2.833-1.795,4.249-1.795s2.838,1.794,4.248,1.795c1.41,0,2.798-1.788,4.214-1.788
	s2.861,1.788,4.283,1.788c1.421-0.001,2.832-1.795,4.248-1.795v2.493C35.572,35.521,34.161,37.315,32.74,37.316z M28.457,31.251
	c-1.416,0-2.879,1.789-4.214,1.788s-2.53-1.433-3.797-1.737h-0.902c-1.265,0.305-2.451,1.736-3.797,1.737s-2.866-1.788-4.282-1.788
	S8.661,33.04,7.25,33.039c-1.411-0.001-2.832-1.794-4.248-1.794v-2.493c1.416,0,2.837,1.793,4.248,1.794
	c1.41,0.002,2.797-1.787,4.214-1.787c1.416,0,2.861,1.789,4.282,1.787c1.422-0.001,2.833-1.794,4.249-1.794s2.838,1.793,4.248,1.794
	c1.411,0.002,2.798-1.787,4.214-1.787s2.861,1.789,4.283,1.787c1.421-0.001,2.832-1.794,4.248-1.794v2.493
	c-1.416,0-2.827,1.793-4.248,1.794C31.318,33.04,29.873,31.251,28.457,31.251z M28.17,27.232c-1.316,0.211-2.611,1.765-3.927,1.765
	c-1.41-0.002-2.832-1.795-4.248-1.795s-2.827,1.793-4.249,1.795c-1.303,0-2.625-1.503-3.928-1.753l-3.929-6.78
	c-0.495-1.101-0.007-2.399,1.09-2.901l3.014-1.343v-4.791c0-0.881,0.484-1.634,1.285-2l5.798-2.653c0.602-0.276,1.229-0.276,1.83,0
	l5.799,2.653c0.801,0.366,1.285,1.119,1.285,2v4.791l3.014,1.381c1.096,0.503,1.584,1.801,1.09,2.901L28.17,27.232z M24,11.609
	l-3.094-1.415c-0.601-0.275-1.228-0.275-1.83,0L15,12.059v2.784l4.075-1.867c0.603-0.275,1.23-0.275,1.833,0L24,14.392V11.609z
	 M19.077,4.488l-2.084,0.954V3.377c0-1.071,1.35-1.946,3-1.946s2.999,0.875,2.999,1.946v2.065l-2.083-0.954
	C20.305,4.214,19.679,4.214,19.077,4.488z"/>
</svg>
