<?xml version="1.0" encoding="iso-8859-1"?>
<!-- Generator: Adobe Illustrator 16.0.2, SVG Export Plug-In . SVG Version: 6.00 Build 0)  -->
<!DOCTYPE svg PUBLIC "-//W3C//DTD SVG 1.1//EN" "http://www.w3.org/Graphics/SVG/1.1/DTD/svg11.dtd">
<svg version="1.1" id="co_x5F_transport" xmlns="http://www.w3.org/2000/svg" xmlns:xlink="http://www.w3.org/1999/xlink" x="0px"
	 y="0px" viewBox="0 0 40 40" style="enable-background:new 0 0 40 40;" xml:space="preserve">
<path fill="white" style="fill-rule:evenodd;clip-rule:evenodd;" d="M29,32h-0.461l2.883,4.995c0.253,0.439-0.062,0.989-0.571,0.989H27.83
	c-0.242,0-0.45-0.121-0.571-0.33L23.994,32h-7.997l-3.264,5.654c-0.121,0.209-0.329,0.33-0.571,0.33H9.142
	c-0.507,0-0.825-0.55-0.571-0.989L11.453,32H11c-1.657,0-3-1.343-3-2.999V10c0-1.656,1.343-3,3-3h4.693L15,3.532h0.006
	C15.006,3.521,15,3.512,15,3.5c0-0.827,0.672-1.499,1.5-1.499h7c0.828,0,1.5,0.672,1.5,1.499c0,0.012-0.006,0.021-0.006,0.032H25
	L24.307,7H29c1.657,0,3,1.344,3,3v19.001C32,30.657,30.657,32,29,32z M26.972,28.986c1.104,0,2-0.896,2-2s-0.896-1.999-2-1.999
	c-1.104,0-1.999,0.896-1.999,1.999S25.868,28.986,26.972,28.986z M10.976,26.986c0,1.104,0.896,2,2,2c1.104,0,1.999-0.896,1.999-2
	s-0.896-1.999-1.999-1.999C11.871,24.987,10.976,25.883,10.976,26.986z M18.294,5.001L18.693,7h2.613l0.399-1.999H18.294z
	 M25.973,10.87c0-0.484-0.396-0.879-0.881-0.879H14.854c-0.484,0-0.88,0.395-0.88,0.879v0.24c0,0.484,0.396,0.881,0.88,0.881h10.237
	c0.485,0,0.881-0.396,0.881-0.881V10.87z M29,16.001C29,14.896,28.104,14,27,14H13c-1.104,0-2,0.896-2,2.001V21
	c0,1.104,0.896,2.001,2,2.001h14c1.104,0,2-0.896,2-2.001V16.001z"/>
</svg>
