<?xml version="1.0" encoding="utf-8"?>
<!-- Generator: Adobe Illustrator 24.0.1, SVG Export Plug-In . SVG Version: 6.00 Build 0)  -->
<svg version="1.1" id="co_x5F_navigation" xmlns="http://www.w3.org/2000/svg" xmlns:xlink="http://www.w3.org/1999/xlink" x="0px"
	 y="0px" viewBox="0 0 40 40" style="enable-background:new 0 0 40 40;" xml:space="preserve">
<style type="text/css">
	.st0{fill-rule:evenodd;clip-rule:evenodd;fill:#FFFFFF;}
</style>
<path class="st0" d="M34.7,30.2h-0.6v4c0,1.5-1.1,2.7-2.5,2.7c0,0-1.6,0-1.5,0c-1.3-0.1-2.3-1.3-2.3-2.7v-4H12.2v4
	c0,1.5-1.1,2.7-2.5,2.7H8.5c-1.4,0-2.5-1.2-2.5-2.7v-4H5.3c-1.4,0-2.5-1.2-2.5-2.7v-8.3c0-1.3,1-2.5,2.3-2.5h0L8.9,5.3
	c0.4-1.1,1.7-2.2,2.8-2.2h16.6c1.1,0,2.4,1.1,2.8,2.2L35,16.7h0c1.3,0,2.3,1.1,2.3,2.5v8.3C37.3,29,36.1,30.2,34.7,30.2z M7.9,21
	c-1,0.3-1.7,1.2-1.7,2.4c0,1.2,0.7,2.1,1.7,2.4c0.2,0.1,0.4,0.1,0.6,0.1c1.3,0,2.3-1.1,2.3-2.5c0-1.4-1-2.5-2.3-2.5
	C8.3,21,8.1,21,7.9,21z M29.8,16l-2.2-6.8c-0.2-0.5-0.6-0.9-1.2-0.9H13.6c-0.5,0-1,0.3-1.2,0.9L10.2,16c-0.1,0.4,0.1,0.7,0.5,0.7
	h18.7C29.7,16.7,29.9,16.3,29.8,16z M31.5,21c-1.3,0-2.3,1.1-2.3,2.5c0,1.4,1,2.5,2.3,2.5s2.3-1.1,2.3-2.5
	C33.8,22.1,32.8,21,31.5,21z"/>
</svg>
