<?xml version="1.0" encoding="iso-8859-1"?>
<!-- Generator: Adobe Illustrator 16.0.2, SVG Export Plug-In . SVG Version: 6.00 Build 0)  -->
<!DOCTYPE svg PUBLIC "-//W3C//DTD SVG 1.1//EN" "http://www.w3.org/Graphics/SVG/1.1/DTD/svg11.dtd">
<svg version="1.1" id="co_x5F_transport" xmlns="http://www.w3.org/2000/svg" xmlns:xlink="http://www.w3.org/1999/xlink" x="0px"
	 y="0px" viewBox="0 0 40 40" style="enable-background:new 0 0 40 40;" xml:space="preserve">
<path fill="#81D4FA" style="fill-rule:evenodd;clip-rule:evenodd;" d="M31.971,27.288v6.496c0,1.212-0.988,2.2-2.2,2.2h-0.6
	c-1.211,0-2.2-0.988-2.2-2.2V30H12.975v3.784c0,1.212-0.988,2.2-2.2,2.2h-0.6c-1.211,0-2.2-0.988-2.2-2.2v-7.799L8,25.994V6.001
	C8,4.344,9.343,3,11,3h18c1.657,0,3,1.344,3,3.001V27C32,27.099,31.98,27.192,31.971,27.288z M26.972,26.986
	c1.104,0,2-0.896,2-1.999c0-1.104-0.895-2-2-2c-1.104,0-2,0.896-2,2C24.972,26.091,25.868,26.986,26.972,26.986z M10.976,24.987
	c0,1.104,0.896,1.999,2,1.999c1.104,0,2-0.896,2-1.999c0-1.104-0.895-2-2-2C11.871,22.987,10.976,23.883,10.976,24.987z
	 M25.972,6.87c0-0.484-0.396-0.879-0.88-0.879H14.854c-0.484,0-0.88,0.395-0.88,0.879v0.24c0,0.484,0.396,0.881,0.88,0.881h10.238
	c0.484,0,0.88-0.396,0.88-0.881V6.87z M29,12.001c0-1.105-0.896-2-2-2H13c-1.104,0-2,0.895-2,2v6c0,1.104,0.896,2,2,2h14
	c1.104,0,2-0.896,2-2V12.001z"/>
</svg>
