<?xml version="1.0" encoding="iso-8859-1"?>
<!-- Generator: Adobe Illustrator 16.0.2, SVG Export Plug-In . SVG Version: 6.00 Build 0)  -->
<!DOCTYPE svg PUBLIC "-//W3C//DTD SVG 1.1//EN" "http://www.w3.org/Graphics/SVG/1.1/DTD/svg11.dtd">
<svg version="1.1" id="co_x5F_furniture" xmlns="http://www.w3.org/2000/svg" xmlns:xlink="http://www.w3.org/1999/xlink" x="0px"
	 y="0px" viewBox="0 0 40 40" style="enable-background:new 0 0 40 40;" xml:space="preserve">
<path fill="#0D47A1" d="M17.986,14.003V8.434c0-1.441,0.629-3.09,1.76-4.027c1.018-0.95,2.363-1.491,3.758-1.491c1.518,0,2.898,0.62,3.896,1.619
	c0.999,0.999,1.619,2.38,1.619,3.899c0,1.115-0.903,2.019-2.018,2.019c-1.113,0-2.018-0.903-2.018-2.019
	c0-0.806-0.707-1.482-1.513-1.482c-0.802,0-1.481,0.674-1.481,1.482v5.569H17.986L17.986,14.003z M25.002,29.829v2.776
	c0,2.424-1.976,4.401-4.398,4.401h-1.199c-2.424,0-4.399-1.978-4.399-4.401v-2.776c-4.929-0.917-8.587-5.305-8.587-10.326
	c0-0.097,0.002-0.193,0.004-0.29c0.049-1.785,1.514-3.21,3.299-3.21h20.566c1.785,0,3.248,1.424,3.298,3.208
	c0.003,0.098,0.004,0.195,0.004,0.292C33.589,24.627,29.872,28.923,25.002,29.829z"/>
</svg>
