<?xml version="1.0" encoding="iso-8859-1"?>
<!-- Generator: Adobe Illustrator 16.0.2, SVG Export Plug-In . SVG Version: 6.00 Build 0)  -->
<!DOCTYPE svg PUBLIC "-//W3C//DTD SVG 1.1//EN" "http://www.w3.org/Graphics/SVG/1.1/DTD/svg11.dtd">
<svg version="1.1" id="co_x5F_medicine" xmlns="http://www.w3.org/2000/svg" xmlns:xlink="http://www.w3.org/1999/xlink" x="0px"
	 y="0px" width="40px" height="40px" viewBox="0 0 40 40" style="enable-background:new 0 0 40 40;" xml:space="preserve">
<path fill="#0D47A1" d="M32,13.001c0-6.322-6.872-9.953-12.001-10.003V2.997c-0.005,0-0.009,0-0.014,0.001c-0.005-0.001-0.009-0.001-0.013-0.001
	v0.001C14.843,3.048,8,7.095,8,13.001c0,2.627,0,5.644,0,8c0,2,0.958,3,3,3c0-2.232,0,4.109,0,6c0,2.82,4.254,4.528,6.941,5.919
	c0.533,0.276,1.484-0.219,2.044-0.228c0.56,0.009,1.511,0.504,2.044,0.228C24.717,34.529,29,32.634,29,30.001c0-2.078,0-8.046,0-6
	c1.979,0,3-0.938,3-3C32,17.646,32,18.794,32,13.001z M17.97,23.882L17.97,23.882c0.194-0.567,0.581-1.463,1.244-2.451
	c0.168-0.252,0.499-0.407,0.756-0.425c0.255,0.018,0.587,0.173,0.755,0.425c0.664,0.988,1.051,1.884,1.245,2.451
	c0.188,0.553-0.294,1.115-0.866,1.115c-0.865,0-0.658-1.004-1.104-0.996c-0.468,0.009-0.325,0.996-1.165,0.996
	C18.263,24.997,17.781,24.435,17.97,23.882L17.97,23.882z M11.297,20.526L11.297,20.526c-0.376-0.48-0.475-1.924,0-3.033
	c0.402-0.939,1.978-1.406,3.424-1.492c1.562-0.094,2.833,0.828,2.833,2.29c0,1.463-1.474,2.332-3.019,2.559
	C12.895,21.089,11.777,21.14,11.297,20.526L11.297,20.526z M26,27.001c0,1.439-0.877,2.842-1,3c-1.201,1.301-8.576,1.232-10,0
	c-0.413-0.613-1-2.18-1-5c-0.001-0.734,1-0.84,1,0c0,0.485,0.68,2.598,1,3c0.509,0.637,2.069,1,4,1s3.491-0.363,4-1
	c0.321-0.401,1-2.516,1-3c0-0.811,1-0.691,1,0C26,25.001,26,25.509,26,27.001z M28.673,20.526L28.673,20.526
	c-0.48,0.613-1.6,0.563-3.239,0.323c-1.545-0.227-3.019-1.096-3.019-2.559c0-1.462,1.271-2.384,2.833-2.29
	c1.446,0.086,3.022,0.553,3.425,1.492C29.147,18.603,29.048,20.046,28.673,20.526z"/>
</svg>
