<?xml version="1.0" encoding="iso-8859-1"?>
<!-- Generator: Adobe Illustrator 16.0.2, SVG Export Plug-In . SVG Version: 6.00 Build 0)  -->
<!DOCTYPE svg PUBLIC "-//W3C//DTD SVG 1.1//EN" "http://www.w3.org/Graphics/SVG/1.1/DTD/svg11.dtd">
<svg version="1.1" id="co_x5F_building" xmlns="http://www.w3.org/2000/svg" xmlns:xlink="http://www.w3.org/1999/xlink" x="0px"
	 y="0px" viewBox="0 0 40 40" style="enable-background:new 0 0 40 40;" xml:space="preserve">
<path fill="#0D47A1" style="fill-rule:evenodd;clip-rule:evenodd;" d="M36.093,22.991h-2.12v2c0,0.429-0.185,0.799-0.527,1.056l-2.944,2.208
	c-0.343,0.257-0.528,0.627-0.528,1.057v7.798c0,0.485-0.395,0.88-0.88,0.88h-3.239c-0.484,0-0.88-0.395-0.88-0.88v-7.798
	c0-0.43-0.185-0.799-0.528-1.057l-2.942-2.208c-0.344-0.258-0.528-0.627-0.528-1.056v-2h-3v2c0,0.429-0.186,0.799-0.528,1.056
	l-2.943,2.208c-0.343,0.257-0.528,0.627-0.528,1.057v7.798c0,0.485-0.396,0.88-0.88,0.88H9.855c-0.485,0-0.881-0.395-0.881-0.88
	l0.001-7.798c0-0.43-0.186-0.799-0.528-1.057l-2.943-2.208c-0.344-0.258-0.528-0.627-0.528-1.056v-2H2.856
	c-0.485,0-0.88-0.396-0.88-0.88v-2.239c0-0.485,0.395-0.88,0.88-0.88h33.236c0.484,0,0.88,0.395,0.88,0.88v2.239
	C36.973,22.596,36.577,22.991,36.093,22.991z M30.212,15.553c0,1.627-1.319,2.946-2.946,2.946s-2.946-1.319-2.946-2.946
	s1.319-2.946,2.946-2.946S30.212,13.926,30.212,15.553z M15.493,15.553c0,1.627-1.319,2.946-2.946,2.946s-2.946-1.319-2.946-2.946
	s1.319-2.946,2.946-2.946S15.493,13.926,15.493,15.553z M32.293,15.94h-0.824c0.013-0.128,0.018-0.257,0.018-0.387
	c0-2.348-1.903-4.252-4.251-4.252s-4.252,1.904-4.252,4.252c0,0.13,0.006,0.259,0.018,0.387H16.78
	c0.013-0.128,0.019-0.257,0.019-0.387c0-2.348-1.904-4.252-4.252-4.252s-4.252,1.904-4.252,4.252c0,0.13,0.006,0.259,0.018,0.387
	H7.677c-0.938,0-1.701-0.765-1.701-1.701v-3.71h0.408c0.424,0,0.772-0.349,0.772-0.773c0-0.426-0.348-0.773-0.772-0.773H5.98
	c0.063-0.88,0.801-2.016,1.696-2.016h1.392l3.619-3.785c0.67-0.781,1.555-1.202,2.583-1.188h6.147
	c1.029-0.008,1.915,0.408,2.583,1.188l3.621,3.785h1.081c1.445,0,2.753,1.045,3.683,2.016h-1.672c-0.425,0-0.772,0.348-0.772,0.773
	c0,0.425,0.348,0.773,0.772,0.773h2.879c0.258,0.608,0.4,1.277,0.4,1.979v1.731C33.993,15.175,33.229,15.94,32.293,15.94z
	 M16.986,4.487c0-0.281-0.229-0.511-0.511-0.511h-1.751c-0.16,0-0.298,0.066-0.398,0.191l-1.838,2.001
	c-0.126,0.157-0.149,0.359-0.062,0.54c0.086,0.181,0.258,0.289,0.459,0.289h3.59c0.281,0,0.511-0.229,0.511-0.511V4.487z
	 M24.229,6.169L22.39,4.168c-0.1-0.125-0.237-0.191-0.397-0.191h-2.48c-0.281,0-0.511,0.229-0.511,0.511v2
	c0,0.282,0.229,0.511,0.511,0.511h4.319c0.199,0,0.372-0.107,0.459-0.289C24.377,6.528,24.354,6.326,24.229,6.169z"/>
</svg>
