<?xml version="1.0" encoding="iso-8859-1"?>
<!-- Generator: Adobe Illustrator 16.0.2, SVG Export Plug-In . SVG Version: 6.00 Build 0)  -->
<!DOCTYPE svg PUBLIC "-//W3C//DTD SVG 1.1//EN" "http://www.w3.org/Graphics/SVG/1.1/DTD/svg11.dtd">
<svg version="1.1" id="co_x5F_culture" xmlns="http://www.w3.org/2000/svg" xmlns:xlink="http://www.w3.org/1999/xlink" x="0px"
	 y="0px" viewBox="0 0 40 40" style="enable-background:new 0 0 40 40;" xml:space="preserve">
<path fill="#0D47A1" style="fill-rule:evenodd;clip-rule:evenodd;" d="M19.021,2.025c9.385,0,16.996,7.611,16.996,16.996
	c0,9.386-7.611,16.997-16.996,16.997S2.025,28.407,2.025,19.021C2.025,9.637,9.636,2.025,19.021,2.025L19.021,2.025z M28.132,21.447
	c-0.422,0.507-0.886,0.968-1.38,1.38c-2.157,1.798-4.938,2.697-7.726,2.697c-2.789,0-5.569-0.899-7.727-2.697
	c-0.494-0.412-0.958-0.873-1.38-1.38c-0.409-0.491-1.14-0.559-1.632-0.149c-0.492,0.409-0.559,1.14-0.15,1.633
	c0.515,0.617,1.078,1.178,1.68,1.679c2.594,2.161,5.906,3.242,9.209,3.242c3.303,0,6.615-1.081,9.208-3.242
	c0.603-0.501,1.166-1.062,1.68-1.679c0.409-0.493,0.342-1.224-0.149-1.633C29.272,20.889,28.542,20.956,28.132,21.447L28.132,21.447
	z M12.494,9.028c-1.38,0-2.5,1.566-2.5,3.498c0,1.934,1.12,3.5,2.5,3.5c1.38,0,2.5-1.566,2.5-3.5
	C14.994,10.595,13.875,9.028,12.494,9.028L12.494,9.028z M25.549,9.028c-1.38,0-2.5,1.566-2.5,3.498
	c0,0.171,0.009,0.337,0.026,0.501h4.947c0.017-0.164,0.026-0.33,0.026-0.501C28.048,10.595,26.929,9.028,25.549,9.028z"/>
</svg>
