<?xml version="1.0" encoding="iso-8859-1"?>
<!-- Generator: Adobe Illustrator 16.0.2, SVG Export Plug-In . SVG Version: 6.00 Build 0)  -->
<!DOCTYPE svg PUBLIC "-//W3C//DTD SVG 1.1//EN" "http://www.w3.org/Graphics/SVG/1.1/DTD/svg11.dtd">
<svg version="1.1" id="co_x5F_finance" xmlns="http://www.w3.org/2000/svg" xmlns:xlink="http://www.w3.org/1999/xlink" x="0px"
	 y="0px" viewBox="0 0 40 40" style="enable-background:new 0 0 40 40;" xml:space="preserve">
<path fill="#0D47A1" d="M25.62,33.99c-1.555,1.556-4.101,1.556-5.655,0l0,0c-1.555-1.555-1.555-4.101,0-5.656l4.343-4.341H5.969
	c-2.199,0-3.998-1.8-3.998-4l0,0c0-2.199,1.799-3.999,3.998-3.999h18.339l-4.343-4.342c-1.555-1.555-1.555-4.101,0-5.656l0,0
	c1.555-1.556,4.101-1.556,5.655,0c0,0,9.829,9.818,11.175,11.165l0,0c1.661,1.66,1.675,3.994,0,5.668l0,0
	C35.671,23.953,25.62,33.99,25.62,33.99z"/>
</svg>
