<?xml version="1.0" encoding="iso-8859-1"?>
<!-- Generator: Adobe Illustrator 16.0.2, SVG Export Plug-In . SVG Version: 6.00 Build 0)  -->
<!DOCTYPE svg PUBLIC "-//W3C//DTD SVG 1.1//EN" "http://www.w3.org/Graphics/SVG/1.1/DTD/svg11.dtd">
<svg version="1.1" id="co_x5F_building" xmlns="http://www.w3.org/2000/svg" xmlns:xlink="http://www.w3.org/1999/xlink" x="0px"
	 y="0px" viewBox="0 0 40 40" style="enable-background:new 0 0 40 40;" xml:space="preserve">
<path fill="#0D47A1" style="fill-rule:evenodd;clip-rule:evenodd;" d="M33.989,29.462c-0.001,0.979-0.397,1.866-1.037,2.505
	c-0.643,0.645-1.532,1.044-2.514,1.044h-0.886c-0.979-0.002-1.865-0.397-2.505-1.038c-0.645-0.642-1.044-1.532-1.044-2.513v-9.604
	c-0.001-0.457-0.39-0.844-0.846-0.844l-1.181-0.08v14.069h1.68c0.728,0,1.32,0.593,1.32,1.319v0.36c0,0.727-0.593,1.32-1.32,1.32
	c-7.452,0-14.905,0-22.357,0c-0.728,0-1.32-0.594-1.32-1.32v-0.36c0-0.727,0.593-1.319,1.32-1.319h1.679V6.205
	c0-1.212,0.988-2.2,2.2-2.2h14.599c1.211,0,2.199,0.988,2.199,2.2v9.802l1.462-0.012c1.947,0,3.549,1.602,3.551,3.549v9.604
	c0,0.456,0.388,0.846,0.844,0.846h0.323c0.456,0,0.846-0.387,0.846-0.845l-0.006-12.245c0-0.044,0.016-0.08,0.046-0.11l2.689-2.385
	c0.046-0.045,0.109-0.057,0.168-0.033c0.059,0.024,0.095,0.079,0.095,0.143L33.989,29.462z M20.979,7.664
	c0-0.363-0.297-0.66-0.661-0.66H8.639c-0.363,0-0.66,0.297-0.66,0.66v8.68c0,0.363,0.297,0.659,0.66,0.659h11.679
	c0.364,0,0.661-0.295,0.661-0.659V7.664z M30.997,15.45l-5.019-5.066c-0.841-0.839,0.591-2.236,1.414-1.413l2.913,2.913
	c0.781-0.781,2.047-0.781,2.828,0c0.197,0.196,0.344,0.425,0.441,0.668c0.057,0.143,0.025,0.296-0.083,0.403L30.997,15.45z"/>
</svg>
