<?xml version="1.0" encoding="iso-8859-1"?>
<!-- Generator: Adobe Illustrator 16.0.2, SVG Export Plug-In . SVG Version: 6.00 Build 0)  -->
<!DOCTYPE svg PUBLIC "-//W3C//DTD SVG 1.1//EN" "http://www.w3.org/Graphics/SVG/1.1/DTD/svg11.dtd">
<svg version="1.1" id="co_x5F_finance" xmlns="http://www.w3.org/2000/svg" xmlns:xlink="http://www.w3.org/1999/xlink" x="0px"
	 y="0px" viewBox="0 0 40 40" style="enable-background:new 0 0 40 40;" xml:space="preserve">
<path fill="#0D47A1" d="M9.984,27.258c0.688,0.266,1.242,0.674,1.754,1.187c0.955,0.954,1.545,2.271,1.545,3.726c0,1.455-0.59,2.772-1.545,3.726
	c-0.953,0.954-2.271,1.544-3.725,1.544c-1.455,0-2.773-0.59-3.727-1.544c-0.953-0.954-1.543-2.271-1.543-3.726
	c0-1.455,0.59-2.772,1.543-3.726c0.5-0.5,1.039-0.9,1.707-1.168v-6.473l-1.496,1.56c-0.703,0.703-1.85,0.703-2.553,0l-0.182-0.182
	c-0.701-0.703-0.701-1.85,0-2.552l4.98-4.98c0.686-0.685,1.803-0.685,2.488,0l5.029,5.028c0.703,0.703,0.703,1.85,0,2.552
	l-0.182,0.182c-0.703,0.702-1.85,0.702-2.551,0l-1.545-1.607V27.258L9.984,27.258z M11.85,8.674c0.758,0.758,0.758,1.986,0,2.744
	s-1.984,0.758-2.742,0l-1.129-1.127l-1.127,1.127c-0.758,0.758-1.986,0.758-2.744,0s-0.758-1.986,0-2.744l1.127-1.127L4.107,6.419
	c-0.758-0.758-0.758-1.986,0-2.743c0.758-0.758,1.986-0.758,2.744,0l1.127,1.127l1.129-1.127c0.758-0.758,1.984-0.758,2.742,0
	c0.758,0.757,0.758,1.985,0,2.743l-1.127,1.128L11.85,8.674L11.85,8.674z M15.9,3.828v0.258c0.002,0.992,0.813,1.929,1.805,1.929
	l1.746-0.026c-2.42,2.6-3.566,5.755-3.566,9.063c0,1.276,0.141,2.56,0.402,3.805c0.91,4.335,1.297,6.279,1.861,8.674
	c-0.453,0.244-0.867,0.554-1.227,0.914c-0.955,0.954-1.545,2.271-1.545,3.726c0,1.455,0.59,2.772,1.545,3.726
	c0.953,0.954,2.271,1.544,3.725,1.544c1.455,0,2.771-0.59,3.727-1.544c0.953-0.954,1.543-2.271,1.543-3.726
	c0-1.455-0.59-2.772-1.543-3.726c-0.65-0.649-1.469-1.13-2.383-1.37c-0.768-3.381-1.887-8.97-2.127-10.633
	c-0.064-0.46-0.098-0.926-0.098-1.391c0-2.48,1.283-4.958,3.168-6.841l0.004,0.005l0.002-0.002l0.047-0.048l0.012,2.674
	c0,0.994,0.936,1.805,1.928,1.804l0.258-0.001c0.994,0,1.805-0.779,1.805-1.772l-0.01-7.133c0-0.935-0.795-1.734-1.77-1.726
	l-7.504-0.017C16.713,1.999,15.9,2.834,15.9,3.828L15.9,3.828z M21.629,31.188c0.252,0.251,0.406,0.599,0.406,0.982
	c0,0.384-0.154,0.732-0.406,0.982c-0.25,0.251-0.6,0.408-0.982,0.408s-0.73-0.156-0.982-0.408c-0.252-0.25-0.406-0.598-0.406-0.982
	c0-0.383,0.154-0.731,0.406-0.982c0.252-0.251,0.6-0.407,0.982-0.407S21.379,30.937,21.629,31.188L21.629,31.188z M36.672,24.014
	h-1.686v3.255c0.674,0.268,1.219,0.67,1.723,1.175c0.955,0.954,1.543,2.271,1.543,3.726c0,1.455-0.588,2.772-1.543,3.726
	c-0.953,0.954-2.271,1.544-3.725,1.544c-1.455,0-2.773-0.59-3.727-1.544c-0.953-0.954-1.545-2.271-1.545-3.726
	c0-1.455,0.592-2.772,1.545-3.726c0.504-0.504,1.08-0.907,1.754-1.175v-3.255h-1.684c-0.729,0-1.32-0.593-1.32-1.32v-1.396
	c0-0.728,0.592-1.321,1.32-1.321h7.344c0.727,0,1.318,0.593,1.318,1.321v1.396C37.99,23.421,37.398,24.014,36.672,24.014
	L36.672,24.014z M36.918,14.372c0.756,0.757,0.756,1.986,0,2.743c-0.758,0.758-1.986,0.758-2.744,0l-1.127-1.127l-1.129,1.127
	c-0.758,0.758-1.986,0.758-2.744,0c-0.756-0.757-0.756-1.986,0-2.743l1.129-1.128l-1.129-1.127c-0.756-0.757-0.756-1.986,0-2.743
	c0.758-0.758,1.986-0.758,2.744,0l1.129,1.127l1.127-1.127c0.758-0.758,1.986-0.758,2.744,0c0.756,0.757,0.756,1.986,0,2.743
	l-1.129,1.127L36.918,14.372L36.918,14.372z M33.967,31.188c-0.252-0.251-0.6-0.407-0.982-0.407c-0.385,0-0.732,0.155-0.984,0.407
	c-0.25,0.251-0.406,0.599-0.406,0.982c0,0.384,0.156,0.732,0.406,0.982c0.252,0.251,0.6,0.408,0.984,0.408
	c0.383,0,0.73-0.156,0.982-0.408c0.25-0.25,0.406-0.598,0.406-0.982C34.373,31.787,34.217,31.439,33.967,31.188L33.967,31.188z
	 M8.996,31.188c-0.252-0.251-0.6-0.407-0.982-0.407c-0.385,0-0.732,0.155-0.982,0.407c-0.252,0.251-0.406,0.599-0.406,0.982
	c0,0.384,0.154,0.732,0.406,0.982c0.25,0.251,0.598,0.408,0.982,0.408c0.383,0,0.73-0.156,0.982-0.408
	c0.25-0.25,0.406-0.598,0.406-0.982C9.402,31.787,9.246,31.439,8.996,31.188z"/>
</svg>
