<?xml version="1.0" encoding="iso-8859-1"?>
<!-- Generator: Adobe Illustrator 16.0.2, SVG Export Plug-In . SVG Version: 6.00 Build 0)  -->
<!DOCTYPE svg PUBLIC "-//W3C//DTD SVG 1.1//EN" "http://www.w3.org/Graphics/SVG/1.1/DTD/svg11.dtd">
<svg version="1.1" id="co_x5F_transport" xmlns="http://www.w3.org/2000/svg" xmlns:xlink="http://www.w3.org/1999/xlink" x="0px"
	 y="0px" viewBox="0 0 40 40" style="enable-background:new 0 0 40 40;" xml:space="preserve">
<path fill="#0D47A1" style="fill-rule:evenodd;clip-rule:evenodd;" d="M32.897,24.015c-1.14,0-0.78,0.002-1.92,0.002V11.008l1.918,0.001
	c1.693,0,3.074,1.384,3.074,3.082v6.841C35.97,22.628,34.591,24.013,32.897,24.015z M33.938,26.99c0,1.337-1.083,2.421-2.418,2.421
	c-1.332,0-2.415-1.084-2.415-2.421c0-0.345,0.072-0.673,0.201-0.971h4.431C33.865,26.317,33.938,26.646,33.938,26.99z
	 M24.019,11.003l4.961,0.004v13.012c-2.165,0-2.797-0.031-4.961-0.031V11.003z M28.166,26.99c0,1.337-1.082,2.421-2.417,2.421
	c-1.334,0-2.417-1.084-2.417-2.421c0-0.345,0.072-0.673,0.203-0.971h4.429C28.094,26.317,28.166,26.646,28.166,26.99z
	 M17.028,10.997l4.992,0.005v13.017l-4.992-0.002V10.997z M13.243,29.411c-1.334,0-2.415-1.084-2.415-2.421
	c0-0.345,0.07-0.673,0.201-0.971h4.429c0.131,0.298,0.203,0.626,0.203,0.971C15.661,28.327,14.578,29.411,13.243,29.411z
	 M10.005,10.993l4.994,0.004v13.018l-4.994-0.003V10.993z M7.473,29.411c-1.334,0-2.417-1.084-2.417-2.421
	c0-0.345,0.072-0.673,0.203-0.971h4.428c0.131,0.298,0.201,0.626,0.201,0.971C9.888,28.327,8.808,29.411,7.473,29.411z
	 M3.015,20.928v-6.854c0-1.698,1.384-3.083,3.077-3.083h1.917v13.021H6.092C4.396,24.011,3.015,22.626,3.015,20.928z"/>
</svg>
