<?xml version="1.0" encoding="iso-8859-1"?>
<!-- Generator: Adobe Illustrator 16.0.2, SVG Export Plug-In . SVG Version: 6.00 Build 0)  -->
<!DOCTYPE svg PUBLIC "-//W3C//DTD SVG 1.1//EN" "http://www.w3.org/Graphics/SVG/1.1/DTD/svg11.dtd">
<svg version="1.1" id="co_x5F_transport" xmlns="http://www.w3.org/2000/svg" xmlns:xlink="http://www.w3.org/1999/xlink" x="0px"
	 y="0px" viewBox="0 0 40 40" style="enable-background:new 0 0 40 40;" xml:space="preserve">
<path fill="#0D47A1" style="fill-rule:evenodd;clip-rule:evenodd;" d="M33.979,24.014H6.017c-5.517,0-5.518-13.009,0-13.009h8.988v-0.8
	c0-1.212,0.987-2.202,2.197-2.202H21.8c1.21,0,2.197,0.99,2.197,2.202v0.8h9.981C39.496,11.005,39.496,24.014,33.979,24.014z
	 M10.074,26.02c0.13,0.297,0.202,0.625,0.202,0.971c0,1.336-1.082,2.421-2.417,2.421s-2.417-1.085-2.417-2.421
	c0-0.346,0.072-0.674,0.202-0.971H10.074z M15.846,26.02c0.13,0.297,0.202,0.625,0.202,0.971c0,1.336-1.083,2.421-2.417,2.421
	c-1.335,0-2.417-1.085-2.417-2.421c0-0.346,0.072-0.674,0.202-0.971H15.846z M28.524,26.02c0.13,0.297,0.202,0.625,0.202,0.971
	c0,1.336-1.082,2.421-2.417,2.421c-1.334,0-2.416-1.085-2.416-2.421c0-0.346,0.072-0.674,0.202-0.971H28.524z M34.296,26.02
	c0.129,0.297,0.202,0.625,0.202,0.971c0,1.336-1.082,2.421-2.416,2.421c-1.335,0-2.417-1.085-2.417-2.421
	c0-0.346,0.072-0.674,0.202-0.971H34.296z"/>
</svg>
