<?xml version="1.0" encoding="iso-8859-1"?>
<!-- Generator: Adobe Illustrator 16.0.2, SVG Export Plug-In . SVG Version: 6.00 Build 0)  -->
<!DOCTYPE svg PUBLIC "-//W3C//DTD SVG 1.1//EN" "http://www.w3.org/Graphics/SVG/1.1/DTD/svg11.dtd">
<svg fill="#0D47A1" version="1.1" id="co_x5F_weather" xmlns="http://www.w3.org/2000/svg" xmlns:xlink="http://www.w3.org/1999/xlink" x="0px"
	 y="0px" width="40px" height="40px" viewBox="0 0 40 40" style="enable-background:new 0 0 40 40;" xml:space="preserve">
<path style="fill-rule:evenodd;clip-rule:evenodd;" d="M30.478,17.493L8.383,37.857c-0.177,0.163-0.444,0.17-0.63,0.017
	c-0.186-0.152-0.23-0.415-0.105-0.62l9.294-15.148c0.139-0.229,0.145-0.495,0.014-0.728c-0.131-0.233-0.36-0.368-0.628-0.368h-4.664
	c-0.552,0-1.025-0.288-1.279-0.778s-0.216-1.042,0.102-1.492L21.364,3.216c0.557-0.789,1.387-1.219,2.353-1.219h5.575
	c0.549,0,1.02,0.284,1.275,0.771c0.255,0.487,0.221,1.036-0.093,1.488l-6.4,9.229c-0.208,0.301-0.231,0.668-0.062,0.992
	s0.484,0.515,0.852,0.515h4.639c0.605,0,1.122,0.353,1.342,0.916C31.064,16.474,30.924,17.083,30.478,17.493z"/>
</svg>
