<?xml version="1.0" encoding="iso-8859-1"?>
<!-- Generator: Adobe Illustrator 16.0.2, SVG Export Plug-In . SVG Version: 6.00 Build 0)  -->
<!DOCTYPE svg PUBLIC "-//W3C//DTD SVG 1.1//EN" "http://www.w3.org/Graphics/SVG/1.1/DTD/svg11.dtd">
<svg version="1.1" id="co_x5F_transport" xmlns="http://www.w3.org/2000/svg" xmlns:xlink="http://www.w3.org/1999/xlink" x="0px"
	 y="0px" viewBox="0 0 40 40" style="enable-background:new 0 0 40 40;" xml:space="preserve">
<path fill="#0D47A1" style="fill-rule:evenodd;clip-rule:evenodd;" d="M25.163,32.016c-0.131,0.297-0.203,0.625-0.203,0.97
	c0,1.338,1.083,2.422,2.418,2.422c1.334,0,2.415-1.084,2.415-2.422c0-0.345-0.072-0.673-0.201-0.97H25.163z"/>
<path fill="#0D47A1" style="fill-rule:evenodd;clip-rule:evenodd;" d="M9.849,32.016c-0.131,0.297-0.203,0.625-0.203,0.97
	c0,1.338,1.083,2.422,2.417,2.422c1.335,0,2.415-1.084,2.415-2.422c0-0.345-0.07-0.673-0.2-0.97H9.849z"/>
<path fill="#0D47A1" style="fill-rule:evenodd;clip-rule:evenodd;" d="M4.077,32.016c-0.131,0.297-0.202,0.625-0.202,0.97
	c0,1.338,1.08,2.422,2.415,2.422c1.334,0,2.417-1.084,2.417-2.422c0-0.345-0.072-0.673-0.203-0.97H4.077z"/>
<path fill="#0D47A1" style="fill-rule:evenodd;clip-rule:evenodd;" d="M30.934,32.016c-0.128,0.297-0.202,0.625-0.202,0.97
	c0,1.338,1.083,2.422,2.417,2.422s2.417-1.084,2.417-2.422c0-0.345-0.072-0.673-0.203-0.97H30.934z"/>
<path fill="#0D47A1" style="fill-rule:evenodd;clip-rule:evenodd;" d="M37.985,17.982v-0.986c0-1.657-1.341-3.017-2.997-3.017h-8.001
	c-0.102-1.119-1.046-2.002-2.188-2.002h-2.386l4.081-3.078c-0.675,0.486,1.163-0.512,0.014-1.372l-5.979-4.484
	c0.07,0.054-0.477-0.442-1.046,0l-5.978,4.484c-1.149,0.86,0.688,1.858,0.014,1.372l4.081,3.078h-2.388
	c-1.142,0-2.086,0.883-2.188,2.002H4.107c-1.693,0-3.077,1.385-3.077,3.082l-0.004,9.942c0,1.659,1.343,3.003,2.997,3.003h0.072
	c0.006,0,0.008,0.003,0.012,0.003c19.464,0,30.881-0.003,30.881-0.003c1.656,0,2.997-1.344,2.997-3.003v-1.016h-5.117
	c-0.484,0-0.878-0.396-0.878-0.88v-6.246c0-0.484,0.394-0.88,0.878-0.88H37.985z M8.99,23.105c0,0.485-0.396,0.882-0.88,0.882H4.876
	c-0.486,0-0.88-0.396-0.88-0.882v-4.243c0-0.484,0.394-0.88,0.88-0.88H8.11c0.483,0,0.88,0.396,0.88,0.88V23.105z M15.98,23.105
	c0,0.485-0.396,0.882-0.878,0.882h-3.236c-0.484,0-0.88-0.396-0.88-0.882v-4.243c0-0.484,0.396-0.88,0.88-0.88h3.236
	c0.481,0,0.878,0.396,0.878,0.88V23.105z M16.334,8.214l3.671-2.755l3.672,2.755l-3.672,2.77L16.334,8.214z M23.002,23.105
	c0,0.485-0.395,0.882-0.88,0.882h-3.248c-0.484,0-0.878-0.396-0.878-0.882v-4.243c0-0.484,0.394-0.88,0.878-0.88h3.248
	c0.485,0,0.88,0.396,0.88,0.88V23.105z M29.992,23.105c0,0.485-0.395,0.882-0.878,0.882h-3.236c-0.484,0-0.878-0.396-0.878-0.882
	v-4.243c0-0.484,0.394-0.88,0.878-0.88h3.236c0.483,0,0.878,0.396,0.878,0.88V23.105z"/>
</svg>
