<?xml version="1.0" encoding="iso-8859-1"?>
<!-- Generator: Adobe Illustrator 16.0.2, SVG Export Plug-In . SVG Version: 6.00 Build 0)  -->
<!DOCTYPE svg PUBLIC "-//W3C//DTD SVG 1.1//EN" "http://www.w3.org/Graphics/SVG/1.1/DTD/svg11.dtd">
<svg version="1.1" id="co_x5F_multimedia" xmlns="http://www.w3.org/2000/svg" xmlns:xlink="http://www.w3.org/1999/xlink" x="0px"
	 y="0px" width="40px" height="40px" viewBox="0 0 40 40" style="enable-background:new 0 0 40 40;" xml:space="preserve">
<path fill="#0D47A1" style="fill-rule:evenodd;clip-rule:evenodd;" d="M36.469,29.001l-2.191,2.316l0.412,3.034
	c0.166,0.766-0.666,1.301-1.244,0.878l-2.881-1.368l-2.758,1.33c-0.678,0.396-1.443-0.232-1.221-0.912l0.412-3.162l-2.117-2.212
	c-0.586-0.522-0.227-1.445,0.488-1.443l3.135-0.585l1.451-2.697c0.314-0.719,1.303-0.662,1.523,0.019l1.523,2.8l3.014,0.545
	C36.797,27.625,37.049,28.582,36.469,29.001z M28.865,21.754l-1.938,2.895l-0.979,0.238c0.678-0.331,1.314-0.907,1.768-1.691
	c0.975-1.687,0.738-3.648-0.527-4.379c-1.266-0.731-3.082,0.045-4.057,1.732c-0.975,1.688-0.738,3.649,0.527,4.379
	c0.309,0.179,0.652,0.264,1.006,0.271l-1.281,0.313c-1.834,0.565-2.354,2.873-0.807,4.354l0.678,0.752
	c-1.908,0.879-4.023,1.383-6.261,1.383c-8.281,0-14.997-6.716-14.997-14.997S8.714,2.009,16.995,2.009
	c8.28,0,14.997,6.716,14.997,14.997c0,1.325-0.189,2.603-0.514,3.827C30.566,20.572,29.42,20.839,28.865,21.754z M10.329,9.082
	c-1.265-0.73-3.082,0.046-4.056,1.733c-0.975,1.688-0.738,3.649,0.527,4.379c1.266,0.731,3.082-0.044,4.057-1.732
	C11.831,11.774,11.595,9.813,10.329,9.082z M10.857,20.549c-0.975-1.687-2.791-2.463-4.057-1.732
	c-1.266,0.73-1.502,2.692-0.527,4.379c0.974,1.687,2.791,2.463,4.056,1.732C11.595,24.198,11.831,22.236,10.857,20.549z
	 M16.995,4.625c-1.948,0-3.528,1.185-3.528,2.647c0,1.461,1.58,2.646,3.528,2.646c1.949,0,3.528-1.185,3.528-2.646
	C20.523,5.81,18.944,4.625,16.995,4.625z M14.349,17.006c0,1.461,1.185,2.646,2.646,2.646c1.461,0,2.646-1.186,2.646-2.646
	c0-1.462-1.185-2.647-2.646-2.647C15.533,14.359,14.349,15.544,14.349,17.006z M16.995,24.093c-1.948,0-3.528,1.186-3.528,2.646
	c0,1.461,1.58,2.647,3.528,2.647c1.949,0,3.528-1.186,3.528-2.647C20.523,25.278,18.944,24.093,16.995,24.093z M27.717,10.815
	c-0.975-1.688-2.791-2.464-4.057-1.732c-1.264,0.73-1.5,2.691-0.527,4.379c0.975,1.688,2.791,2.463,4.057,1.732
	C28.455,14.464,28.691,12.503,27.717,10.815z"/>
</svg>
