<?xml version="1.0" encoding="iso-8859-1"?>
<!-- Generator: Adobe Illustrator 16.0.2, SVG Export Plug-In . SVG Version: 6.00 Build 0)  -->
<!DOCTYPE svg PUBLIC "-//W3C//DTD SVG 1.1//EN" "http://www.w3.org/Graphics/SVG/1.1/DTD/svg11.dtd">
<svg version="1.1" id="co_x5F_mobile" xmlns="http://www.w3.org/2000/svg" xmlns:xlink="http://www.w3.org/1999/xlink" x="0px"
	 y="0px" viewBox="0 0 40 40" style="enable-background:new 0 0 40 40;" xml:space="preserve">
<path fill="#0D47A1" style="fill-rule:evenodd;clip-rule:evenodd;" d="M21.029,5.361c2.209,7.801,8.736,13.981,8.736,20.84
	c0,5.401-4.381,9.782-9.783,9.782c-5.402,0-9.782-4.381-9.782-9.782c0-6.86,6.517-13.039,8.734-20.841
	c0.123-0.431,0.6-0.619,1.048-0.619C20.43,4.742,20.907,4.931,21.029,5.361L21.029,5.361z M26.11,26.582
	c-1.079-1.078-3.186-0.719-4.706,0.802c-1.521,1.521-1.879,3.627-0.801,4.705c1.079,1.078,3.186,0.72,4.706-0.8
	S27.188,27.661,26.11,26.582L26.11,26.582z M15.961,18.21c-0.569-0.296-1.369,0.113-1.787,0.916
	c-0.418,0.802-0.296,1.693,0.272,1.989c0.569,0.296,1.369-0.113,1.787-0.916C16.652,19.397,16.53,18.507,15.961,18.21z"/>
</svg>
