<?xml version="1.0" encoding="iso-8859-1"?>
<!-- Generator: Adobe Illustrator 16.0.2, SVG Export Plug-In . SVG Version: 6.00 Build 0)  -->
<!DOCTYPE svg PUBLIC "-//W3C//DTD SVG 1.1//EN" "http://www.w3.org/Graphics/SVG/1.1/DTD/svg11.dtd">
<svg version="1.1" id="co_x5F_navigation" xmlns="http://www.w3.org/2000/svg" xmlns:xlink="http://www.w3.org/1999/xlink" x="0px"
	 y="0px" viewBox="0 0 40 40" style="enable-background:new 0 0 40 40;" xml:space="preserve">
<path fill="#0D47A1" style="fill-rule:evenodd;clip-rule:evenodd;" d="M30.694,38.013H4.341c-0.727,0-1.32-0.592-1.32-1.319v-0.36
	c0-0.727,0.593-1.32,1.32-1.32h26.354c0.727,0,1.32,0.593,1.32,1.32v0.36C32.015,37.421,31.421,38.013,30.694,38.013z M26.987,11.49
	l0.029,7.104c0.004,0.854-0.299,1.588-0.902,2.19l-6.775,6.774l2.349,2.411h5.785c0.848,0,1.54,0.661,1.54,1.508v0.026
	c0,0.847-0.691,1.508-1.54,1.508h-6.432c-0.424,0-0.789-0.152-1.089-0.452l-4.86-4.859c0.165,0.432,0.265,0.896,0.265,1.386
	c0,2.157-1.75,3.907-3.908,3.907c-2.158,0-3.909-1.75-3.909-3.907s1.75-3.908,3.909-3.908c0.489,0,0.953,0.1,1.385,0.265
	l-2.429-2.429h-4.91c-0.848,0-1.54-0.629-1.54-1.477v-0.025c0-0.848,0.692-1.54,1.54-1.54h5.557c0.424,0,0.789,0.151,1.089,0.451
	l2.776,2.807l5.979-6.009l-5.389-5.561c-0.33-0.341-0.496-0.749-0.496-1.223V3.138c0-2.236,3.974-2.256,3.974,0.094V9.69
	l4.025,4.104v-3.088c0-0.483,0.173-0.901,0.516-1.244l4.901-4.9c1.662-1.661,4.405,1.081,2.744,2.744L26.987,11.49z"/>
</svg>
