<?xml version="1.0" encoding="iso-8859-1"?>
<!-- Generator: Adobe Illustrator 16.0.2, SVG Export Plug-In . SVG Version: 6.00 Build 0)  -->
<!DOCTYPE svg PUBLIC "-//W3C//DTD SVG 1.1//EN" "http://www.w3.org/Graphics/SVG/1.1/DTD/svg11.dtd">
<svg version="1.1" id="co_x5F_food_x5F_1" xmlns="http://www.w3.org/2000/svg" xmlns:xlink="http://www.w3.org/1999/xlink" x="0px"
	 y="0px" width="40px" height="40px" viewBox="0 0 40 40" style="enable-background:new 0 0 40 40;" xml:space="preserve">
<path fill="#0D47A1" style="fill-rule:evenodd;clip-rule:evenodd;" d="M32.268,26.537c-1.668,1.667-3.672,2.365-4.477,1.56
	c-0.139-0.139-0.219-0.323-0.27-0.526c-0.053,0.203-0.131,0.388-0.271,0.526c-0.805,0.806-2.809,0.107-4.475-1.56
	c-1.668-1.667-2.367-3.671-1.561-4.477c0.805-0.806,2.809-0.106,4.477,1.561c1,1.001,1.643,2.12,1.83,3.031
	c0.186-0.911,0.828-2.03,1.83-3.031c1.666-1.667,3.67-2.366,4.475-1.561C34.633,22.866,33.934,24.87,32.268,26.537z M32.268,20.053
	c-1.668,1.668-3.672,2.366-4.477,1.561c-0.139-0.139-0.219-0.324-0.27-0.527c-0.053,0.203-0.131,0.389-0.271,0.527
	c-0.805,0.806-2.809,0.107-4.475-1.561c-1.668-1.666-2.367-3.671-1.561-4.476c0.805-0.806,2.809-0.106,4.477,1.56
	c1,1.001,1.643,2.12,1.83,3.032c0.186-0.912,0.828-2.031,1.83-3.032c1.666-1.666,3.67-2.365,4.475-1.56
	C34.633,16.382,33.934,18.387,32.268,20.053z M32.268,13.569c-1.668,1.667-3.672,2.365-4.477,1.561
	c-0.139-0.14-0.219-0.324-0.27-0.527c-0.053,0.203-0.131,0.388-0.271,0.527c-0.805,0.805-2.809,0.106-4.475-1.561
	c-1.668-1.666-2.367-3.67-1.561-4.476c0.805-0.806,2.809-0.107,4.477,1.56c1,1.001,1.643,2.12,1.83,3.032
	c0.186-0.912,0.828-2.031,1.83-3.032c1.666-1.667,3.67-2.365,4.475-1.56C34.633,9.899,33.934,11.903,32.268,13.569z M27.523,10.536
	c-1.139,0-2.063-1.91-2.063-4.268S26.385,2,27.523,2s2.063,1.911,2.063,4.269S28.662,10.536,27.523,10.536z M16.268,33.107
	c-1.066,1.066-2.268,1.73-3.209,1.864v1.551c0,0.829-0.672,1.502-1.502,1.502s-1.504-0.673-1.504-1.502v-1.547
	c-0.951-0.108-2.184-0.773-3.277-1.868c-1.668-1.667-2.367-3.671-1.561-4.476c0.805-0.806,2.809-0.107,4.477,1.56
	c0.928,0.929,1.531,1.952,1.764,2.824c0.035-0.002,0.064-0.021,0.102-0.021c0.012,0,0.021,0.007,0.033,0.007
	c0.236-0.868,0.838-1.887,1.762-2.811c1.666-1.667,3.67-2.365,4.475-1.56C18.633,29.437,17.934,31.44,16.268,33.107z M16.268,26.537
	c-1.668,1.667-3.672,2.365-4.477,1.56c-0.139-0.139-0.219-0.323-0.27-0.526c-0.053,0.203-0.131,0.388-0.271,0.526
	c-0.805,0.806-2.809,0.107-4.475-1.56c-1.668-1.667-2.367-3.671-1.561-4.477c0.805-0.806,2.809-0.106,4.477,1.561
	c1,1.001,1.643,2.12,1.83,3.031c0.186-0.911,0.828-2.03,1.83-3.031c1.666-1.667,3.67-2.366,4.475-1.561
	C18.633,22.866,17.934,24.87,16.268,26.537z M16.268,20.053c-1.668,1.668-3.672,2.366-4.477,1.561
	c-0.139-0.139-0.219-0.324-0.27-0.527c-0.053,0.203-0.131,0.389-0.271,0.527c-0.805,0.806-2.809,0.107-4.475-1.561
	c-1.668-1.666-2.367-3.671-1.561-4.476c0.805-0.806,2.809-0.106,4.477,1.56c1,1.001,1.643,2.12,1.83,3.032
	c0.186-0.912,0.828-2.031,1.83-3.032c1.666-1.666,3.67-2.365,4.475-1.56C18.633,16.382,17.934,18.387,16.268,20.053z M16.268,13.569
	c-1.668,1.667-3.672,2.365-4.477,1.561c-0.139-0.14-0.219-0.324-0.27-0.527c-0.053,0.203-0.131,0.388-0.271,0.527
	c-0.805,0.805-2.809,0.106-4.475-1.561c-1.668-1.666-2.367-3.67-1.561-4.476c0.805-0.806,2.809-0.107,4.477,1.56
	c1,1.001,1.643,2.12,1.83,3.032c0.186-0.912,0.828-2.031,1.83-3.032c1.666-1.667,3.67-2.365,4.475-1.56
	C18.633,9.899,17.934,11.903,16.268,13.569z M11.523,10.536c-1.139,0-2.063-1.91-2.063-4.268S10.385,2,11.523,2
	s2.063,1.911,2.063,4.269S12.662,10.536,11.523,10.536z M25.691,30.191c0.928,0.929,1.531,1.952,1.764,2.824
	c0.035-0.002,0.064-0.021,0.102-0.021c0.012,0,0.021,0.007,0.033,0.007c0.236-0.868,0.838-1.887,1.762-2.811
	c1.666-1.667,3.67-2.365,4.475-1.56c0.807,0.805,0.107,2.809-1.559,4.476c-1.066,1.066-2.268,1.73-3.209,1.864v1.551
	c0,0.829-0.672,1.502-1.502,1.502s-1.504-0.673-1.504-1.502v-1.547c-0.951-0.108-2.184-0.773-3.277-1.868
	c-1.668-1.667-2.367-3.671-1.561-4.476C22.02,27.826,24.023,28.524,25.691,30.191z"/>
</svg>
