<?xml version="1.0" encoding="iso-8859-1"?>
<!-- Generator: Adobe Illustrator 16.0.2, SVG Export Plug-In . SVG Version: 6.00 Build 0)  -->
<!DOCTYPE svg PUBLIC "-//W3C//DTD SVG 1.1//EN" "http://www.w3.org/Graphics/SVG/1.1/DTD/svg11.dtd">
<svg version="1.1" id="co_x5F_basic" xmlns="http://www.w3.org/2000/svg" xmlns:xlink="http://www.w3.org/1999/xlink" x="0px"
	 y="0px" width="40px" height="40px" viewBox="0 0 40 40" style="enable-background:new 0 0 40 40;" xml:space="preserve">
<path fill="#0D47A1" style="fill-rule:evenodd;clip-rule:evenodd;" d="M4.248,35.008l-0.333-0.333c-1.285-1.285-1.284-3.381,0-4.667l11.164-11.164
	l4.999,4.999L8.914,35.008C7.629,36.293,5.533,36.293,4.248,35.008L4.248,35.008z M35.033,3.942l-5.804,2.37l-4.761-4.079
	l0.46,6.251l-5.351,3.268l6.089,1.494l1.454,6.098l3.303-5.328l6.249,0.501L32.626,9.73L35.033,3.942L35.033,3.942z M16.579,17.345
	l4.999,4.999l3.766-3.766l-0.968-4.054l-3.996-0.98L16.579,17.345z"/>
</svg>
