<?xml version="1.0" encoding="iso-8859-1"?>
<!-- Generator: Adobe Illustrator 16.0.2, SVG Export Plug-In . SVG Version: 6.00 Build 0)  -->
<!DOCTYPE svg PUBLIC "-//W3C//DTD SVG 1.1//EN" "http://www.w3.org/Graphics/SVG/1.1/DTD/svg11.dtd">
<svg version="1.1" id="co_x5F_mobile" xmlns="http://www.w3.org/2000/svg" xmlns:xlink="http://www.w3.org/1999/xlink" x="0px"
	 y="0px" width="40px" height="40px" viewBox="0 0 40 40" style="enable-background:new 0 0 40 40;" xml:space="preserve">
<path fill="#000066" style="fill-rule:evenodd;clip-rule:evenodd;" d="M32.686,7.274c7.027,7.026,7.027,18.423,0,25.451
	c-7.026,7.026-18.423,7.026-25.45,0c-7.027-7.027-7.027-18.424,0-25.451C14.263,0.248,25.66,0.248,32.686,7.274L32.686,7.274z
	 M23.001,15.855c0-1.039-0.848-1.886-1.886-1.886h-4.987c-0.935,0-1.759,1.138-1.759,2.072v0.034c0,0.935,0.825,1.947,1.759,1.947
	h1.856v9.953h-1.856c-2.245,0-2.151,4.052,0,4.052h8.603c2.272,0,2.261-4.052,0-4.052h-1.73V15.855L23.001,15.855z M20.43,5.775
	c-1.893,0-3.427,1.535-3.428,3.428c0,1.893,1.535,3.428,3.428,3.428s3.427-1.535,3.428-3.428C23.858,7.31,22.323,5.775,20.43,5.775z
	"/>
</svg>
