<?xml version="1.0" encoding="iso-8859-1"?>
<!-- Generator: Adobe Illustrator 16.0.2, SVG Export Plug-In . SVG Version: 6.00 Build 0)  -->
<!DOCTYPE svg PUBLIC "-//W3C//DTD SVG 1.1//EN" "http://www.w3.org/Graphics/SVG/1.1/DTD/svg11.dtd">
<svg version="1.1" id="co_x5F_mobile" xmlns="http://www.w3.org/2000/svg" xmlns:xlink="http://www.w3.org/1999/xlink" x="0px"
	 y="0px" width="40px" height="40px" viewBox="0 0 40 40" style="enable-background:new 0 0 40 40;" xml:space="preserve">
<path fill="#000066" style="fill-rule:evenodd;clip-rule:evenodd;" d="M26.624,3.274c3.413,1.354,6.313,3.724,8.33,6.736h-4.557
	c-0.488-1.433-1.078-2.751-1.752-3.925C28.038,5.028,27.359,4.084,26.624,3.274L26.624,3.274z M36.113,12.01
	c1.059,2.128,1.708,4.495,1.846,6.999H31.96c-0.072-2.478-0.411-4.839-0.967-6.999H36.113L36.113,12.01z M37.959,21.008
	c-0.137,2.491-0.781,4.847-1.83,6.967h-5.127c0.551-2.151,0.886-4.501,0.958-6.967H37.959L37.959,21.008z M34.975,29.975
	c-2.017,3.025-4.926,5.406-8.351,6.766c0.735-0.81,1.414-1.752,2.021-2.809c0.68-1.182,1.271-2.512,1.763-3.957H34.975
	L34.975,29.975z M13.615,36.839c-3.537-1.341-6.541-3.764-8.608-6.864h4.732c0.49,1.444,1.084,2.774,1.763,3.956
	C12.135,35.032,12.845,36.008,13.615,36.839L13.615,36.839z M3.853,27.975c-1.05-2.12-1.692-4.476-1.829-6.967h6.165
	c0.071,2.466,0.406,4.817,0.958,6.967H3.853L3.853,27.975z M2.023,19.008c0.137-2.503,0.786-4.87,1.845-6.999h5.286
	c-0.556,2.16-0.894,4.521-0.966,6.999H2.023L2.023,19.008z M5.027,10.01c2.066-3.087,5.063-5.499,8.589-6.834
	c-0.771,0.831-1.48,1.808-2.113,2.909c-0.675,1.173-1.265,2.492-1.754,3.925H5.027L5.027,10.01z M10.161,19.008h8.83V12.01h-7.799
	C10.601,14.141,10.237,16.505,10.161,19.008L10.161,19.008z M11.841,10.01h7.15V2.108c-2.212,0.451-4.229,2.262-5.779,4.958
	C12.699,7.959,12.239,8.945,11.841,10.01L11.841,10.01z M20.991,2.078v7.933h7.315c-0.398-1.064-0.857-2.05-1.37-2.942
	C25.349,4.303,23.269,2.469,20.991,2.078L20.991,2.078z M28.955,12.01h-7.964v6.999h8.995C29.91,16.505,29.548,14.14,28.955,12.01
	L28.955,12.01z M29.986,21.008h-8.995v6.967h7.973C29.551,25.853,29.91,23.498,29.986,21.008L29.986,21.008z M28.318,29.975h-7.327
	v7.963c2.276-0.392,4.356-2.225,5.945-4.989C27.454,32.049,27.918,31.051,28.318,29.975L28.318,29.975z M18.991,37.908v-7.933
	h-7.162c0.4,1.075,0.864,2.073,1.382,2.974C14.762,35.646,16.779,37.458,18.991,37.908L18.991,37.908z M11.184,27.975h7.808v-6.967
	h-8.83C10.237,23.498,10.597,25.853,11.184,27.975z"/>
</svg>
