<?xml version="1.0" encoding="iso-8859-1"?>
<!-- Generator: Adobe Illustrator 16.0.2, SVG Export Plug-In . SVG Version: 6.00 Build 0)  -->
<!DOCTYPE svg PUBLIC "-//W3C//DTD SVG 1.1//EN" "http://www.w3.org/Graphics/SVG/1.1/DTD/svg11.dtd">
<svg version="1.1" id="co_x5F_culture" xmlns="http://www.w3.org/2000/svg" xmlns:xlink="http://www.w3.org/1999/xlink" x="0px"
	 y="0px" width="40px" height="40px" viewBox="0 0 40 40" style="enable-background:new 0 0 40 40;" xml:space="preserve">
<path fill="#000066" style="fill-rule:evenodd;clip-rule:evenodd;" d="M7.389,2.979h25.193c2.423,0,4.399,1.977,4.399,4.399v25.194
	c0,2.423-1.977,4.399-4.399,4.399H7.389c-2.423,0-4.399-1.977-4.399-4.399V7.379C2.989,4.956,4.966,2.979,7.389,2.979L7.389,2.979z
	 M29.447,26.507l0.594-0.577c0.603-0.585,1.567-0.577,2.162,0.017l1.396,1.396c0.14,0.141,0.376,0.039,0.376-0.155v-7.383
	c-0.227,0.108-0.479,0.169-0.746,0.169h-6.432c-0.96,0-1.746-0.785-1.746-1.745l0,0c0-0.795,0.537-1.469,1.266-1.679
	c-0.021-0.093-0.031-0.187-0.031-0.285c0-0.729,0.592-1.321,1.321-1.321c0.434,0,0.818,0.209,1.061,0.532
	c0.363-0.92,1.268-1.571,2.325-1.571c1.38,0,2.498,1.108,2.498,2.473c0,0.042-0.001,0.084-0.003,0.124
	c0.172,0.026,0.336,0.077,0.487,0.149V7.546c0-0.848-0.692-1.539-1.54-1.539H7.521c-0.849,0-1.54,0.691-1.54,1.539v18.048
	c0,0.195,0.236,0.294,0.375,0.155l1.638-1.632c0.6-0.597,1.575-0.597,2.174,0l1.452,1.446c0.257,0.257,0.676,0.256,0.932-0.001
	l6.438-6.437c0.3-0.301,0.665-0.451,1.089-0.451c0.425,0,0.79,0.151,1.09,0.453l7.354,7.371
	C28.775,26.755,29.188,26.758,29.447,26.507L29.447,26.507z M18.554,10.387c0.003-0.055,0.005-0.108,0.005-0.165
	c0-1.814-1.488-3.287-3.322-3.287c-1.405,0-2.608,0.866-3.093,2.088c-0.319-0.429-0.832-0.707-1.408-0.707
	c-0.971,0-1.757,0.787-1.757,1.757c0,0.13,0.015,0.257,0.042,0.378c-0.97,0.28-1.683,1.177-1.683,2.232l0,0
	c0,1.276,1.044,2.32,2.32,2.32h8.552c1.275,0,2.32-1.045,2.32-2.32l0,0C20.53,11.522,19.668,10.554,18.554,10.387z"/>
</svg>
