<?xml version="1.0" encoding="utf-8"?>
<!-- Generator: Adobe Illustrator 23.0.2, SVG Export Plug-In . SVG Version: 6.00 Build 0)  -->
<svg version="1.1" id="Layer_1" xmlns="http://www.w3.org/2000/svg" xmlns:xlink="http://www.w3.org/1999/xlink" x="0px" y="0px"
	 viewBox="0 0 108 108" style="enable-background:new 0 0 108 108;" xml:space="preserve">
<path class="st1" d="M63.5,66.6h-0.4l3.2,5.5c0.3,0.4-0.1,1.1-0.7,1.1h-3.2c-1,0-1-2.2-2.2-2.2H47.1c-1.2,0-1.1,2.2-2.2,2.2h-3.1
	c-0.6,0-0.9-0.6-0.7-1.1l3.2-5.5h-0.6c-1.8,0-3.3-1.4-3.3-3.3v-23c0-1.8,1.4-3.3,3.3-3.3h4.6c0.4-1.3,1.6-2.2,3.1-2.2h4.4
	c1.4,0,2.6,0.9,3.1,2.2h4.6c1.8,0,3.3,1.4,3.3,3.3v23C66.7,65.1,65.3,66.6,63.5,66.6z M48.1,68.8h11c1.2,0,0.1-2.2-1.1-2.2h-8.7
	C48,66.6,46.9,68.8,48.1,68.8z M46,61.1c1.2,0,2.2-1,2.2-2.2s-1-2.2-2.2-2.2s-2.2,1-2.2,2.2C43.8,60.2,44.7,61.1,46,61.1z
	 M50.3,43.6h-4.4c-1.2,0-2.2,1-2.2,2.2v6.6c0,1.2,1,2.2,2.2,2.2h4.4c1.2,0,2.2-1,2.2-2.2v-6.6C52.5,44.6,51.6,43.6,50.3,43.6z
	 M53.6,37c-1.2,0-2.2,1-2.2,2.2s1,2.2,2.2,2.2s2.2-1,2.2-2.2S54.9,37,53.6,37z M63.5,45.8c0-1.2-1-2.2-2.2-2.2h-4.4
	c-1.2,0-2.2,1-2.2,2.2v6.6c0,1.2,1,2.2,2.2,2.2h4.4c1.2,0,2.2-1,2.2-2.2V45.8z M61.3,56.7c-1.2,0-2.2,1-2.2,2.2s1,2.2,2.2,2.2
	s2.2-1,2.2-2.2S62.5,56.7,61.3,56.7z"/>
<path class="st1" d="M81.3,70.9h1.4c0.4,0,0.7-0.3,0.7-0.7v-3.6h6.7c0.4,0,0.7-0.2,1.1-0.6c0.2-0.3,0.2-0.7,0-1.2l-4.3-8.1h1.8
	c0.4,0,0.9-0.2,1.1-0.7s0.2-0.9,0-1.2l-4.5-7H86c0.4,0,0.9-0.2,1.1-0.7s0.2-0.9,0-1.2L82,38.1c-0.2-0.3-0.4-0.4-0.7-0.4
	s-0.5,0.1-0.7,0.4l-5.1,7.8c-0.2,0.3-0.2,0.7,0,1.2s0.7,0.7,1.1,0.7h0.7l-4.5,7c-0.2,0.3-0.2,0.7,0,1.2s0.7,0.7,1.1,0.7h1.8
	l-4.3,8.1c-0.2,0.5-0.2,0.9,0,1.2c0.4,0.4,0.7,0.6,1.1,0.6h6.7v3.6c0,0.4,0.3,0.7,0.7,0.7H81.3"/>
<path class="st1" d="M26.7,70.9h1.4c0.4,0,0.7-0.3,0.7-0.7v-3.6h6.7c0.4,0,0.7-0.2,1.1-0.6c0.2-0.3,0.2-0.7,0-1.2l-4.3-8.1h1.8
	c0.4,0,0.9-0.2,1.1-0.7s0.2-0.9,0-1.2l-4.5-7h0.7c0.4,0,0.9-0.2,1.1-0.7s0.2-0.9,0-1.2l-5.1-7.8c-0.2-0.3-0.4-0.4-0.7-0.4
	s-0.5,0.1-0.7,0.4l-5.1,7.8c-0.2,0.3-0.2,0.7,0,1.2s0.7,0.7,1.1,0.7h0.7l-4.5,7c-0.2,0.3-0.2,0.7,0,1.2s0.7,0.7,1.1,0.7h1.8
	l-4.3,8.1c-0.2,0.5-0.2,0.9,0,1.2c0.4,0.4,0.7,0.6,1.1,0.6h6.7v3.6c0,0.4,0.3,0.7,0.7,0.7H26.7"/>
</svg>
